ISO-10303-21;
HEADER;
/* Generated by software containing ST-Developer
 * from STEP Tools, Inc. (www.steptools.com) 
 */
/* OPTION: using custom renumber hook */

FILE_DESCRIPTION(
/* description */ ('STEP AP242 Edition 2',
'CAx-IF Rec.Pracs.---Representation and Presentation of Product Manufa
cturing Information (PMI)---4.0---2014-10-13',
'CAx-IF Rec.Pracs.---3D Tessellated Geometry---0.4---2014-09-14','2;1',
'CAx-IF Rec.Pracs.---User Defined Attributes---1.5---2016-08-15'),
/* implementation_level */ '2;1');

FILE_NAME(
/* name */ 'NP-Crucible Assembly - HBS25028138 Bolt Assembly',
/* time_stamp */ '2026-07-15T12:54:19Z',
/* author */ (''),
/* organization */ (''),
/* preprocessor_version */ 'ST-DEVELOPER v20',
/* originating_system */ 'ONSHAPE BY PTC INC, 1.217',
/* authorisation */ '  ');

FILE_SCHEMA (('AP242_MANAGED_MODEL_BASED_3D_ENGINEERING_MIM_LF { 1 0 10303 442 3 1 4 }'));
ENDSEC;

DATA;
#10=SHAPE_REPRESENTATION_RELATIONSHIP('','',#623,#11);
#11=ADVANCED_BREP_SHAPE_REPRESENTATION('',(#621),#1010);
#12=CYLINDRICAL_SURFACE('',#634,0.0033655);
#13=CYLINDRICAL_SURFACE('',#639,0.0033655);
#14=CYLINDRICAL_SURFACE('',#642,0.00635);
#15=CYLINDRICAL_SURFACE('',#656,0.003175);
#16=CYLINDRICAL_SURFACE('',#665,0.003175);
#17=CYLINDRICAL_SURFACE('',#670,0.003175);
#18=CYLINDRICAL_SURFACE('',#675,0.00635);
#19=CONICAL_SURFACE('',#632,0.00481735291109131,1.0471975511966);
#20=CONICAL_SURFACE('',#655,0.00412444598552338,1.0471975511966);
#21=CONICAL_SURFACE('',#662,0.003175,0.785398163397453);
#22=CONICAL_SURFACE('',#667,0.003175,1.04719755119669);
#23=CONICAL_SURFACE('',#671,0.00315300295474387,1.04719755119645);
#24=CONICAL_SURFACE('',#674,0.00642313721478842,1.0471975511966);
#25=B_SPLINE_CURVE_WITH_KNOTS('',3,(#814,#815,#816,#817,#818),
 .UNSPECIFIED.,.F.,.F.,(4,1,4),(0.,0.00324350393519334,0.00648700787038668),
 .UNSPECIFIED.);
#26=B_SPLINE_CURVE_WITH_KNOTS('',3,(#822,#823,#824,#825,#826),
 .UNSPECIFIED.,.F.,.F.,(4,1,4),(0.,0.00324350394929451,0.00648700789858902),
 .UNSPECIFIED.);
#27=B_SPLINE_CURVE_WITH_KNOTS('',3,(#831,#832,#833,#834,#835),
 .UNSPECIFIED.,.F.,.F.,(4,1,4),(0.,0.00324350394927484,0.00648700789854968),
 .UNSPECIFIED.);
#28=B_SPLINE_CURVE_WITH_KNOTS('',3,(#836,#837,#838,#839,#840),
 .UNSPECIFIED.,.F.,.F.,(4,1,4),(0.,0.00324350394926701,0.00648700789853402),
 .UNSPECIFIED.);
#29=B_SPLINE_CURVE_WITH_KNOTS('',3,(#845,#846,#847,#848,#849),
 .UNSPECIFIED.,.F.,.F.,(4,1,4),(0.,0.00324350394926707,0.00648700789853413),
 .UNSPECIFIED.);
#30=B_SPLINE_CURVE_WITH_KNOTS('',3,(#850,#851,#852,#853,#854),
 .UNSPECIFIED.,.F.,.F.,(4,1,4),(0.,0.00324350394927482,0.00648700789854963),
 .UNSPECIFIED.);
#31=B_SPLINE_CURVE_WITH_KNOTS('',3,(#859,#860,#861,#862,#863),
 .UNSPECIFIED.,.F.,.F.,(4,1,4),(0.,0.00324350394928351,0.00648700789856702),
 .UNSPECIFIED.);
#32=B_SPLINE_CURVE_WITH_KNOTS('',3,(#864,#865,#866,#867,#868),
 .UNSPECIFIED.,.F.,.F.,(4,1,4),(0.,0.00324350393519333,0.00648700787038666),
 .UNSPECIFIED.);
#33=B_SPLINE_CURVE_WITH_KNOTS('',3,(#872,#873,#874,#875,#876),
 .UNSPECIFIED.,.F.,.F.,(4,1,4),(0.,0.00324350394927478,0.00648700789854955),
 .UNSPECIFIED.);
#34=B_SPLINE_CURVE_WITH_KNOTS('',3,(#878,#879,#880,#881,#882),
 .UNSPECIFIED.,.F.,.F.,(4,1,4),(0.,0.0032435039492745,0.00648700789854901),
 .UNSPECIFIED.);
#35=B_SPLINE_CURVE_WITH_KNOTS('',3,(#906,#907,#908,#909,#910),
 .UNSPECIFIED.,.F.,.F.,(4,1,4),(0.,0.00277697265503959,0.00555394531007917),
 .UNSPECIFIED.);
#36=B_SPLINE_CURVE_WITH_KNOTS('',3,(#916,#917,#918,#919,#920),
 .UNSPECIFIED.,.F.,.F.,(4,1,4),(0.,0.00277697265503966,0.00555394531007931),
 .UNSPECIFIED.);
#37=B_SPLINE_CURVE_WITH_KNOTS('',3,(#926,#927,#928,#929,#930),
 .UNSPECIFIED.,.F.,.F.,(4,1,4),(6.93889390390723E-18,0.00277697265503964,
0.00555394531007927),.UNSPECIFIED.);
#38=B_SPLINE_CURVE_WITH_KNOTS('',3,(#936,#937,#938,#939,#940),
 .UNSPECIFIED.,.F.,.F.,(4,1,4),(0.,0.00277697265503958,0.00555394531007917),
 .UNSPECIFIED.);
#39=B_SPLINE_CURVE_WITH_KNOTS('',3,(#946,#947,#948,#949,#950),
 .UNSPECIFIED.,.F.,.F.,(4,1,4),(2.1457344368073E-17,0.00277697265503964,
0.00555394531007926),.UNSPECIFIED.);
#40=B_SPLINE_CURVE_WITH_KNOTS('',3,(#961,#962,#963,#964,#965),
 .UNSPECIFIED.,.F.,.F.,(4,1,4),(0.,0.00277697265503963,0.00555394531007927),
 .UNSPECIFIED.);
#41=B_SPLINE_CURVE_WITH_KNOTS('',3,(#993,#994,#995,#996,#997),
 .UNSPECIFIED.,.F.,.F.,(4,1,4),(0.,0.0032435039493033,0.00648700789860661),
 .UNSPECIFIED.);
#42=B_SPLINE_CURVE_WITH_KNOTS('',3,(#999,#1000,#1001,#1002,#1003),
 .UNSPECIFIED.,.F.,.F.,(4,1,4),(0.,0.0032435039492745,0.00648700789854901),
 .UNSPECIFIED.);
#43=LINE('',#811,#61);
#44=LINE('',#820,#62);
#45=LINE('',#828,#63);
#46=LINE('',#842,#64);
#47=LINE('',#856,#65);
#48=LINE('',#903,#66);
#49=LINE('',#912,#67);
#50=LINE('',#914,#68);
#51=LINE('',#922,#69);
#52=LINE('',#924,#70);
#53=LINE('',#932,#71);
#54=LINE('',#934,#72);
#55=LINE('',#942,#73);
#56=LINE('',#944,#74);
#57=LINE('',#952,#75);
#58=LINE('',#954,#76);
#59=LINE('',#956,#77);
#60=LINE('',#991,#78);
#61=VECTOR('',#688,1.);
#62=VECTOR('',#689,1.);
#63=VECTOR('',#692,1.);
#64=VECTOR('',#695,1.);
#65=VECTOR('',#698,1.);
#66=VECTOR('',#729,1.);
#67=VECTOR('',#730,1.);
#68=VECTOR('',#731,1.);
#69=VECTOR('',#734,1.);
#70=VECTOR('',#735,1.);
#71=VECTOR('',#738,1.);
#72=VECTOR('',#739,1.);
#73=VECTOR('',#742,1.);
#74=VECTOR('',#743,1.);
#75=VECTOR('',#746,1.);
#76=VECTOR('',#747,1.);
#77=VECTOR('',#750,1.);
#78=VECTOR('',#793,1.);
#79=ORIENTED_EDGE('',*,*,#189,.T.);
#80=ORIENTED_EDGE('',*,*,#190,.T.);
#81=ORIENTED_EDGE('',*,*,#191,.T.);
#82=ORIENTED_EDGE('',*,*,#192,.F.);
#83=ORIENTED_EDGE('',*,*,#193,.F.);
#84=ORIENTED_EDGE('',*,*,#194,.T.);
#85=ORIENTED_EDGE('',*,*,#195,.T.);
#86=ORIENTED_EDGE('',*,*,#196,.T.);
#87=ORIENTED_EDGE('',*,*,#191,.F.);
#88=ORIENTED_EDGE('',*,*,#197,.T.);
#89=ORIENTED_EDGE('',*,*,#198,.T.);
#90=ORIENTED_EDGE('',*,*,#199,.T.);
#91=ORIENTED_EDGE('',*,*,#195,.F.);
#92=ORIENTED_EDGE('',*,*,#200,.T.);
#93=ORIENTED_EDGE('',*,*,#201,.T.);
#94=ORIENTED_EDGE('',*,*,#202,.T.);
#95=ORIENTED_EDGE('',*,*,#198,.F.);
#96=ORIENTED_EDGE('',*,*,#203,.F.);
#97=ORIENTED_EDGE('',*,*,#204,.T.);
#98=ORIENTED_EDGE('',*,*,#205,.F.);
#99=ORIENTED_EDGE('',*,*,#206,.F.);
#100=ORIENTED_EDGE('',*,*,#203,.T.);
#101=ORIENTED_EDGE('',*,*,#200,.F.);
#102=ORIENTED_EDGE('',*,*,#197,.F.);
#103=ORIENTED_EDGE('',*,*,#194,.F.);
#104=ORIENTED_EDGE('',*,*,#207,.F.);
#105=ORIENTED_EDGE('',*,*,#208,.F.);
#106=ORIENTED_EDGE('',*,*,#207,.T.);
#107=ORIENTED_EDGE('',*,*,#209,.F.);
#108=ORIENTED_EDGE('',*,*,#210,.F.);
#109=ORIENTED_EDGE('',*,*,#211,.F.);
#110=ORIENTED_EDGE('',*,*,#212,.F.);
#111=ORIENTED_EDGE('',*,*,#213,.T.);
#112=ORIENTED_EDGE('',*,*,#213,.F.);
#113=ORIENTED_EDGE('',*,*,#211,.T.);
#114=ORIENTED_EDGE('',*,*,#214,.T.);
#115=ORIENTED_EDGE('',*,*,#215,.T.);
#116=ORIENTED_EDGE('',*,*,#216,.F.);
#117=ORIENTED_EDGE('',*,*,#217,.T.);
#118=ORIENTED_EDGE('',*,*,#216,.T.);
#119=ORIENTED_EDGE('',*,*,#218,.T.);
#120=ORIENTED_EDGE('',*,*,#219,.F.);
#121=ORIENTED_EDGE('',*,*,#220,.T.);
#122=ORIENTED_EDGE('',*,*,#219,.T.);
#123=ORIENTED_EDGE('',*,*,#221,.T.);
#124=ORIENTED_EDGE('',*,*,#222,.F.);
#125=ORIENTED_EDGE('',*,*,#223,.T.);
#126=ORIENTED_EDGE('',*,*,#222,.T.);
#127=ORIENTED_EDGE('',*,*,#224,.F.);
#128=ORIENTED_EDGE('',*,*,#225,.F.);
#129=ORIENTED_EDGE('',*,*,#226,.T.);
#130=ORIENTED_EDGE('',*,*,#225,.T.);
#131=ORIENTED_EDGE('',*,*,#227,.T.);
#132=ORIENTED_EDGE('',*,*,#228,.F.);
#133=ORIENTED_EDGE('',*,*,#229,.T.);
#134=ORIENTED_EDGE('',*,*,#212,.T.);
#135=ORIENTED_EDGE('',*,*,#229,.F.);
#136=ORIENTED_EDGE('',*,*,#230,.F.);
#137=ORIENTED_EDGE('',*,*,#217,.F.);
#138=ORIENTED_EDGE('',*,*,#220,.F.);
#139=ORIENTED_EDGE('',*,*,#223,.F.);
#140=ORIENTED_EDGE('',*,*,#226,.F.);
#141=ORIENTED_EDGE('',*,*,#231,.T.);
#142=ORIENTED_EDGE('',*,*,#228,.T.);
#143=ORIENTED_EDGE('',*,*,#232,.T.);
#144=ORIENTED_EDGE('',*,*,#214,.F.);
#145=ORIENTED_EDGE('',*,*,#230,.T.);
#146=ORIENTED_EDGE('',*,*,#231,.F.);
#147=ORIENTED_EDGE('',*,*,#232,.F.);
#148=ORIENTED_EDGE('',*,*,#227,.F.);
#149=ORIENTED_EDGE('',*,*,#224,.T.);
#150=ORIENTED_EDGE('',*,*,#221,.F.);
#151=ORIENTED_EDGE('',*,*,#218,.F.);
#152=ORIENTED_EDGE('',*,*,#215,.F.);
#153=ORIENTED_EDGE('',*,*,#190,.F.);
#154=ORIENTED_EDGE('',*,*,#233,.T.);
#155=ORIENTED_EDGE('',*,*,#210,.T.);
#156=ORIENTED_EDGE('',*,*,#234,.F.);
#157=ORIENTED_EDGE('',*,*,#235,.F.);
#158=ORIENTED_EDGE('',*,*,#208,.T.);
#159=ORIENTED_EDGE('',*,*,#233,.F.);
#160=ORIENTED_EDGE('',*,*,#236,.T.);
#161=ORIENTED_EDGE('',*,*,#236,.F.);
#162=ORIENTED_EDGE('',*,*,#234,.T.);
#163=ORIENTED_EDGE('',*,*,#237,.T.);
#164=ORIENTED_EDGE('',*,*,#238,.T.);
#165=ORIENTED_EDGE('',*,*,#239,.F.);
#166=ORIENTED_EDGE('',*,*,#238,.F.);
#167=ORIENTED_EDGE('',*,*,#209,.T.);
#168=ORIENTED_EDGE('',*,*,#239,.T.);
#169=ORIENTED_EDGE('',*,*,#237,.F.);
#170=ORIENTED_EDGE('',*,*,#240,.T.);
#171=ORIENTED_EDGE('',*,*,#241,.T.);
#172=ORIENTED_EDGE('',*,*,#201,.F.);
#173=ORIENTED_EDGE('',*,*,#206,.T.);
#174=ORIENTED_EDGE('',*,*,#193,.T.);
#175=ORIENTED_EDGE('',*,*,#242,.T.);
#176=ORIENTED_EDGE('',*,*,#240,.F.);
#177=ORIENTED_EDGE('',*,*,#205,.T.);
#178=ORIENTED_EDGE('',*,*,#241,.F.);
#179=ORIENTED_EDGE('',*,*,#242,.F.);
#180=ORIENTED_EDGE('',*,*,#192,.T.);
#181=ORIENTED_EDGE('',*,*,#196,.F.);
#182=ORIENTED_EDGE('',*,*,#199,.F.);
#183=ORIENTED_EDGE('',*,*,#202,.F.);
#184=ORIENTED_EDGE('',*,*,#189,.F.);
#185=ORIENTED_EDGE('',*,*,#243,.F.);
#186=ORIENTED_EDGE('',*,*,#235,.T.);
#187=ORIENTED_EDGE('',*,*,#204,.F.);
#188=ORIENTED_EDGE('',*,*,#243,.T.);
#189=EDGE_CURVE('',#244,#244,#287,.T.);
#190=EDGE_CURVE('',#245,#245,#288,.T.);
#191=EDGE_CURVE('',#246,#247,#43,.T.);
#192=EDGE_CURVE('',#248,#247,#25,.T.);
#193=EDGE_CURVE('',#249,#248,#44,.T.);
#194=EDGE_CURVE('',#249,#246,#26,.T.);
#195=EDGE_CURVE('',#250,#251,#45,.T.);
#196=EDGE_CURVE('',#251,#247,#27,.T.);
#197=EDGE_CURVE('',#246,#250,#28,.T.);
#198=EDGE_CURVE('',#252,#253,#46,.T.);
#199=EDGE_CURVE('',#253,#251,#29,.T.);
#200=EDGE_CURVE('',#250,#252,#30,.T.);
#201=EDGE_CURVE('',#254,#255,#47,.T.);
#202=EDGE_CURVE('',#255,#253,#31,.T.);
#203=EDGE_CURVE('',#254,#252,#32,.T.);
#204=EDGE_CURVE('',#256,#256,#289,.T.);
#205=EDGE_CURVE('',#257,#249,#33,.T.);
#206=EDGE_CURVE('',#254,#257,#34,.T.);
#207=EDGE_CURVE('',#258,#258,#290,.T.);
#208=EDGE_CURVE('',#259,#259,#291,.T.);
#209=EDGE_CURVE('',#260,#260,#292,.T.);
#210=EDGE_CURVE('',#261,#261,#293,.T.);
#211=EDGE_CURVE('',#262,#262,#294,.T.);
#212=EDGE_CURVE('',#263,#263,#295,.T.);
#213=EDGE_CURVE('',#264,#264,#296,.T.);
#214=EDGE_CURVE('',#265,#266,#48,.T.);
#215=EDGE_CURVE('',#266,#267,#35,.T.);
#216=EDGE_CURVE('',#268,#267,#49,.T.);
#217=EDGE_CURVE('',#268,#265,#50,.T.);
#218=EDGE_CURVE('',#267,#269,#36,.T.);
#219=EDGE_CURVE('',#270,#269,#51,.T.);
#220=EDGE_CURVE('',#270,#268,#52,.T.);
#221=EDGE_CURVE('',#269,#271,#37,.T.);
#222=EDGE_CURVE('',#272,#271,#53,.T.);
#223=EDGE_CURVE('',#272,#270,#54,.T.);
#224=EDGE_CURVE('',#273,#271,#38,.T.);
#225=EDGE_CURVE('',#274,#273,#55,.T.);
#226=EDGE_CURVE('',#274,#272,#56,.T.);
#227=EDGE_CURVE('',#273,#275,#39,.T.);
#228=EDGE_CURVE('',#276,#275,#57,.T.);
#229=EDGE_CURVE('',#276,#274,#58,.T.);
#230=EDGE_CURVE('',#265,#276,#59,.T.);
#231=EDGE_CURVE('',#277,#277,#297,.T.);
#232=EDGE_CURVE('',#275,#266,#40,.T.);
#233=EDGE_CURVE('',#278,#278,#298,.T.);
#234=EDGE_CURVE('',#279,#279,#299,.T.);
#235=EDGE_CURVE('',#280,#280,#300,.T.);
#236=EDGE_CURVE('',#281,#281,#301,.T.);
#237=EDGE_CURVE('',#282,#282,#302,.T.);
#238=EDGE_CURVE('',#283,#283,#303,.T.);
#239=EDGE_CURVE('',#284,#284,#304,.T.);
#240=EDGE_CURVE('',#257,#285,#60,.T.);
#241=EDGE_CURVE('',#285,#255,#41,.T.);
#242=EDGE_CURVE('',#248,#285,#42,.T.);
#243=EDGE_CURVE('',#286,#286,#305,.T.);
#244=VERTEX_POINT('',#807);
#245=VERTEX_POINT('',#809);
#246=VERTEX_POINT('',#812);
#247=VERTEX_POINT('',#813);
#248=VERTEX_POINT('',#819);
#249=VERTEX_POINT('',#821);
#250=VERTEX_POINT('',#829);
#251=VERTEX_POINT('',#830);
#252=VERTEX_POINT('',#843);
#253=VERTEX_POINT('',#844);
#254=VERTEX_POINT('',#857);
#255=VERTEX_POINT('',#858);
#256=VERTEX_POINT('',#871);
#257=VERTEX_POINT('',#877);
#258=VERTEX_POINT('',#885);
#259=VERTEX_POINT('',#887);
#260=VERTEX_POINT('',#890);
#261=VERTEX_POINT('',#893);
#262=VERTEX_POINT('',#895);
#263=VERTEX_POINT('',#898);
#264=VERTEX_POINT('',#900);
#265=VERTEX_POINT('',#904);
#266=VERTEX_POINT('',#905);
#267=VERTEX_POINT('',#911);
#268=VERTEX_POINT('',#913);
#269=VERTEX_POINT('',#921);
#270=VERTEX_POINT('',#923);
#271=VERTEX_POINT('',#931);
#272=VERTEX_POINT('',#933);
#273=VERTEX_POINT('',#941);
#274=VERTEX_POINT('',#943);
#275=VERTEX_POINT('',#951);
#276=VERTEX_POINT('',#953);
#277=VERTEX_POINT('',#959);
#278=VERTEX_POINT('',#969);
#279=VERTEX_POINT('',#972);
#280=VERTEX_POINT('',#975);
#281=VERTEX_POINT('',#978);
#282=VERTEX_POINT('',#982);
#283=VERTEX_POINT('',#985);
#284=VERTEX_POINT('',#987);
#285=VERTEX_POINT('',#992);
#286=VERTEX_POINT('',#1007);
#287=CIRCLE('',#626,0.00481735291109131);
#288=CIRCLE('',#627,0.003175);
#289=CIRCLE('',#633,0.00481735291109131);
#290=CIRCLE('',#635,0.0033655);
#291=CIRCLE('',#636,0.0033655);
#292=CIRCLE('',#638,0.003175);
#293=CIRCLE('',#640,0.0033655);
#294=CIRCLE('',#641,0.0033655);
#295=CIRCLE('',#643,0.00635);
#296=CIRCLE('',#644,0.00635);
#297=CIRCLE('',#653,0.00412444598552338);
#298=CIRCLE('',#657,0.003175);
#299=CIRCLE('',#659,0.003175);
#300=CIRCLE('',#661,0.00635);
#301=CIRCLE('',#663,0.002921);
#302=CIRCLE('',#666,0.003175);
#303=CIRCLE('',#668,0.003175);
#304=CIRCLE('',#669,0.00315300295474387);
#305=CIRCLE('',#676,0.00635);
#306=EDGE_LOOP('',(#79));
#307=EDGE_LOOP('',(#80));
#308=EDGE_LOOP('',(#81,#82,#83,#84));
#309=EDGE_LOOP('',(#85,#86,#87,#88));
#310=EDGE_LOOP('',(#89,#90,#91,#92));
#311=EDGE_LOOP('',(#93,#94,#95,#96));
#312=EDGE_LOOP('',(#97));
#313=EDGE_LOOP('',(#98,#99,#100,#101,#102,#103));
#314=EDGE_LOOP('',(#104));
#315=EDGE_LOOP('',(#105));
#316=EDGE_LOOP('',(#106));
#317=EDGE_LOOP('',(#107));
#318=EDGE_LOOP('',(#108));
#319=EDGE_LOOP('',(#109));
#320=EDGE_LOOP('',(#110));
#321=EDGE_LOOP('',(#111));
#322=EDGE_LOOP('',(#112));
#323=EDGE_LOOP('',(#113));
#324=EDGE_LOOP('',(#114,#115,#116,#117));
#325=EDGE_LOOP('',(#118,#119,#120,#121));
#326=EDGE_LOOP('',(#122,#123,#124,#125));
#327=EDGE_LOOP('',(#126,#127,#128,#129));
#328=EDGE_LOOP('',(#130,#131,#132,#133));
#329=EDGE_LOOP('',(#134));
#330=EDGE_LOOP('',(#135,#136,#137,#138,#139,#140));
#331=EDGE_LOOP('',(#141));
#332=EDGE_LOOP('',(#142,#143,#144,#145));
#333=EDGE_LOOP('',(#146));
#334=EDGE_LOOP('',(#147,#148,#149,#150,#151,#152));
#335=EDGE_LOOP('',(#153));
#336=EDGE_LOOP('',(#154));
#337=EDGE_LOOP('',(#155));
#338=EDGE_LOOP('',(#156));
#339=EDGE_LOOP('',(#157));
#340=EDGE_LOOP('',(#158));
#341=EDGE_LOOP('',(#159));
#342=EDGE_LOOP('',(#160));
#343=EDGE_LOOP('',(#161));
#344=EDGE_LOOP('',(#162));
#345=EDGE_LOOP('',(#163));
#346=EDGE_LOOP('',(#164));
#347=EDGE_LOOP('',(#165));
#348=EDGE_LOOP('',(#166));
#349=EDGE_LOOP('',(#167));
#350=EDGE_LOOP('',(#168));
#351=EDGE_LOOP('',(#169));
#352=EDGE_LOOP('',(#170,#171,#172,#173));
#353=EDGE_LOOP('',(#174,#175,#176,#177));
#354=EDGE_LOOP('',(#178,#179,#180,#181,#182,#183));
#355=EDGE_LOOP('',(#184));
#356=EDGE_LOOP('',(#185));
#357=EDGE_LOOP('',(#186));
#358=EDGE_LOOP('',(#187));
#359=EDGE_LOOP('',(#188));
#360=FACE_BOUND('',#306,.T.);
#361=FACE_BOUND('',#307,.T.);
#362=FACE_BOUND('',#308,.T.);
#363=FACE_BOUND('',#309,.T.);
#364=FACE_BOUND('',#310,.T.);
#365=FACE_BOUND('',#311,.T.);
#366=FACE_BOUND('',#312,.T.);
#367=FACE_BOUND('',#313,.T.);
#368=FACE_BOUND('',#314,.T.);
#369=FACE_BOUND('',#315,.T.);
#370=FACE_BOUND('',#316,.T.);
#371=FACE_BOUND('',#317,.T.);
#372=FACE_BOUND('',#318,.T.);
#373=FACE_BOUND('',#319,.T.);
#374=FACE_BOUND('',#320,.T.);
#375=FACE_BOUND('',#321,.T.);
#376=FACE_BOUND('',#322,.T.);
#377=FACE_BOUND('',#323,.T.);
#378=FACE_BOUND('',#324,.T.);
#379=FACE_BOUND('',#325,.T.);
#380=FACE_BOUND('',#326,.T.);
#381=FACE_BOUND('',#327,.T.);
#382=FACE_BOUND('',#328,.T.);
#383=FACE_BOUND('',#329,.T.);
#384=FACE_BOUND('',#330,.T.);
#385=FACE_BOUND('',#331,.T.);
#386=FACE_BOUND('',#332,.T.);
#387=FACE_BOUND('',#333,.T.);
#388=FACE_BOUND('',#334,.T.);
#389=FACE_BOUND('',#335,.T.);
#390=FACE_BOUND('',#336,.T.);
#391=FACE_BOUND('',#337,.T.);
#392=FACE_BOUND('',#338,.T.);
#393=FACE_BOUND('',#339,.T.);
#394=FACE_BOUND('',#340,.T.);
#395=FACE_BOUND('',#341,.T.);
#396=FACE_BOUND('',#342,.T.);
#397=FACE_BOUND('',#343,.T.);
#398=FACE_BOUND('',#344,.T.);
#399=FACE_BOUND('',#345,.T.);
#400=FACE_BOUND('',#346,.T.);
#401=FACE_BOUND('',#347,.T.);
#402=FACE_BOUND('',#348,.T.);
#403=FACE_BOUND('',#349,.T.);
#404=FACE_BOUND('',#350,.T.);
#405=FACE_BOUND('',#351,.T.);
#406=FACE_BOUND('',#352,.T.);
#407=FACE_BOUND('',#353,.T.);
#408=FACE_BOUND('',#354,.T.);
#409=FACE_BOUND('',#355,.T.);
#410=FACE_BOUND('',#356,.T.);
#411=FACE_BOUND('',#357,.T.);
#412=FACE_BOUND('',#358,.T.);
#413=FACE_BOUND('',#359,.T.);
#414=PLANE('',#625);
#415=PLANE('',#628);
#416=PLANE('',#629);
#417=PLANE('',#630);
#418=PLANE('',#631);
#419=PLANE('',#637);
#420=PLANE('',#645);
#421=PLANE('',#646);
#422=PLANE('',#647);
#423=PLANE('',#648);
#424=PLANE('',#649);
#425=PLANE('',#650);
#426=PLANE('',#651);
#427=PLANE('',#652);
#428=PLANE('',#654);
#429=PLANE('',#658);
#430=PLANE('',#660);
#431=PLANE('',#664);
#432=PLANE('',#672);
#433=PLANE('',#673);
#434=PLANE('',#677);
#435=OVER_RIDING_STYLED_ITEM('',(#492),#455,#490);
#436=OVER_RIDING_STYLED_ITEM('',(#493),#456,#490);
#437=OVER_RIDING_STYLED_ITEM('',(#494),#457,#490);
#438=OVER_RIDING_STYLED_ITEM('',(#495),#458,#490);
#439=OVER_RIDING_STYLED_ITEM('',(#496),#459,#490);
#440=OVER_RIDING_STYLED_ITEM('',(#497),#460,#490);
#441=OVER_RIDING_STYLED_ITEM('',(#498),#461,#490);
#442=OVER_RIDING_STYLED_ITEM('',(#499),#462,#490);
#443=OVER_RIDING_STYLED_ITEM('',(#500),#463,#490);
#444=OVER_RIDING_STYLED_ITEM('',(#501),#464,#490);
#445=OVER_RIDING_STYLED_ITEM('',(#502),#465,#490);
#446=OVER_RIDING_STYLED_ITEM('',(#503),#471,#490);
#447=OVER_RIDING_STYLED_ITEM('',(#504),#475,#490);
#448=OVER_RIDING_STYLED_ITEM('',(#505),#477,#490);
#449=OVER_RIDING_STYLED_ITEM('',(#506),#482,#490);
#450=OVER_RIDING_STYLED_ITEM('',(#507),#484,#490);
#451=OVER_RIDING_STYLED_ITEM('',(#508),#485,#490);
#452=OVER_RIDING_STYLED_ITEM('',(#509),#486,#490);
#453=OVER_RIDING_STYLED_ITEM('',(#510),#487,#490);
#454=OVER_RIDING_STYLED_ITEM('',(#511),#488,#490);
#455=ADVANCED_FACE('',(#360,#361),#414,.F.);
#456=ADVANCED_FACE('',(#362),#415,.F.);
#457=ADVANCED_FACE('',(#363),#416,.F.);
#458=ADVANCED_FACE('',(#364),#417,.F.);
#459=ADVANCED_FACE('',(#365),#418,.F.);
#460=ADVANCED_FACE('',(#366,#367),#19,.T.);
#461=ADVANCED_FACE('',(#368,#369),#12,.F.);
#462=ADVANCED_FACE('',(#370,#371),#419,.F.);
#463=ADVANCED_FACE('',(#372,#373),#13,.F.);
#464=ADVANCED_FACE('',(#374,#375),#14,.T.);
#465=ADVANCED_FACE('',(#376,#377),#420,.F.);
#466=ADVANCED_FACE('',(#378),#421,.T.);
#467=ADVANCED_FACE('',(#379),#422,.T.);
#468=ADVANCED_FACE('',(#380),#423,.T.);
#469=ADVANCED_FACE('',(#381),#424,.T.);
#470=ADVANCED_FACE('',(#382),#425,.T.);
#471=ADVANCED_FACE('',(#383,#384),#426,.T.);
#472=ADVANCED_FACE('',(#385),#427,.F.);
#473=ADVANCED_FACE('',(#386),#428,.T.);
#474=ADVANCED_FACE('',(#387,#388),#20,.T.);
#475=ADVANCED_FACE('',(#389,#390),#15,.T.);
#476=ADVANCED_FACE('',(#391,#392),#429,.F.);
#477=ADVANCED_FACE('',(#393,#394),#430,.F.);
#478=ADVANCED_FACE('',(#395,#396),#21,.T.);
#479=ADVANCED_FACE('',(#397),#431,.F.);
#480=ADVANCED_FACE('',(#398,#399),#16,.T.);
#481=ADVANCED_FACE('',(#400,#401),#22,.T.);
#482=ADVANCED_FACE('',(#402,#403),#17,.T.);
#483=ADVANCED_FACE('',(#404,#405),#23,.T.);
#484=ADVANCED_FACE('',(#406),#432,.F.);
#485=ADVANCED_FACE('',(#407),#433,.F.);
#486=ADVANCED_FACE('',(#408,#409),#24,.T.);
#487=ADVANCED_FACE('',(#410,#411),#18,.T.);
#488=ADVANCED_FACE('',(#412,#413),#434,.T.);
#489=CLOSED_SHELL('',(#455,#456,#457,#458,#459,#460,#461,#462,#463,#464,
#465,#466,#467,#468,#469,#470,#471,#472,#473,#474,#475,#476,#477,#478,#479,
#480,#481,#482,#483,#484,#485,#486,#487,#488));
#490=STYLED_ITEM('',(#491),#621);
#491=PRESENTATION_STYLE_ASSIGNMENT((#512));
#492=PRESENTATION_STYLE_ASSIGNMENT((#513));
#493=PRESENTATION_STYLE_ASSIGNMENT((#514));
#494=PRESENTATION_STYLE_ASSIGNMENT((#515));
#495=PRESENTATION_STYLE_ASSIGNMENT((#516));
#496=PRESENTATION_STYLE_ASSIGNMENT((#517));
#497=PRESENTATION_STYLE_ASSIGNMENT((#518));
#498=PRESENTATION_STYLE_ASSIGNMENT((#519));
#499=PRESENTATION_STYLE_ASSIGNMENT((#520));
#500=PRESENTATION_STYLE_ASSIGNMENT((#521));
#501=PRESENTATION_STYLE_ASSIGNMENT((#522));
#502=PRESENTATION_STYLE_ASSIGNMENT((#523));
#503=PRESENTATION_STYLE_ASSIGNMENT((#524));
#504=PRESENTATION_STYLE_ASSIGNMENT((#525));
#505=PRESENTATION_STYLE_ASSIGNMENT((#526));
#506=PRESENTATION_STYLE_ASSIGNMENT((#527));
#507=PRESENTATION_STYLE_ASSIGNMENT((#528));
#508=PRESENTATION_STYLE_ASSIGNMENT((#529));
#509=PRESENTATION_STYLE_ASSIGNMENT((#530));
#510=PRESENTATION_STYLE_ASSIGNMENT((#531));
#511=PRESENTATION_STYLE_ASSIGNMENT((#532));
#512=SURFACE_STYLE_USAGE(.BOTH.,#533);
#513=SURFACE_STYLE_USAGE(.BOTH.,#534);
#514=SURFACE_STYLE_USAGE(.BOTH.,#535);
#515=SURFACE_STYLE_USAGE(.BOTH.,#536);
#516=SURFACE_STYLE_USAGE(.BOTH.,#537);
#517=SURFACE_STYLE_USAGE(.BOTH.,#538);
#518=SURFACE_STYLE_USAGE(.BOTH.,#539);
#519=SURFACE_STYLE_USAGE(.BOTH.,#540);
#520=SURFACE_STYLE_USAGE(.BOTH.,#541);
#521=SURFACE_STYLE_USAGE(.BOTH.,#542);
#522=SURFACE_STYLE_USAGE(.BOTH.,#543);
#523=SURFACE_STYLE_USAGE(.BOTH.,#544);
#524=SURFACE_STYLE_USAGE(.BOTH.,#545);
#525=SURFACE_STYLE_USAGE(.BOTH.,#546);
#526=SURFACE_STYLE_USAGE(.BOTH.,#547);
#527=SURFACE_STYLE_USAGE(.BOTH.,#548);
#528=SURFACE_STYLE_USAGE(.BOTH.,#549);
#529=SURFACE_STYLE_USAGE(.BOTH.,#550);
#530=SURFACE_STYLE_USAGE(.BOTH.,#551);
#531=SURFACE_STYLE_USAGE(.BOTH.,#552);
#532=SURFACE_STYLE_USAGE(.BOTH.,#553);
#533=SURFACE_SIDE_STYLE('',(#554));
#534=SURFACE_SIDE_STYLE('',(#555));
#535=SURFACE_SIDE_STYLE('',(#556));
#536=SURFACE_SIDE_STYLE('',(#557));
#537=SURFACE_SIDE_STYLE('',(#558));
#538=SURFACE_SIDE_STYLE('',(#559));
#539=SURFACE_SIDE_STYLE('',(#560));
#540=SURFACE_SIDE_STYLE('',(#561));
#541=SURFACE_SIDE_STYLE('',(#562));
#542=SURFACE_SIDE_STYLE('',(#563));
#543=SURFACE_SIDE_STYLE('',(#564));
#544=SURFACE_SIDE_STYLE('',(#565));
#545=SURFACE_SIDE_STYLE('',(#566));
#546=SURFACE_SIDE_STYLE('',(#567));
#547=SURFACE_SIDE_STYLE('',(#568));
#548=SURFACE_SIDE_STYLE('',(#569));
#549=SURFACE_SIDE_STYLE('',(#570));
#550=SURFACE_SIDE_STYLE('',(#571));
#551=SURFACE_SIDE_STYLE('',(#572));
#552=SURFACE_SIDE_STYLE('',(#573));
#553=SURFACE_SIDE_STYLE('',(#574));
#554=SURFACE_STYLE_FILL_AREA(#575);
#555=SURFACE_STYLE_FILL_AREA(#576);
#556=SURFACE_STYLE_FILL_AREA(#577);
#557=SURFACE_STYLE_FILL_AREA(#578);
#558=SURFACE_STYLE_FILL_AREA(#579);
#559=SURFACE_STYLE_FILL_AREA(#580);
#560=SURFACE_STYLE_FILL_AREA(#581);
#561=SURFACE_STYLE_FILL_AREA(#582);
#562=SURFACE_STYLE_FILL_AREA(#583);
#563=SURFACE_STYLE_FILL_AREA(#584);
#564=SURFACE_STYLE_FILL_AREA(#585);
#565=SURFACE_STYLE_FILL_AREA(#586);
#566=SURFACE_STYLE_FILL_AREA(#587);
#567=SURFACE_STYLE_FILL_AREA(#588);
#568=SURFACE_STYLE_FILL_AREA(#589);
#569=SURFACE_STYLE_FILL_AREA(#590);
#570=SURFACE_STYLE_FILL_AREA(#591);
#571=SURFACE_STYLE_FILL_AREA(#592);
#572=SURFACE_STYLE_FILL_AREA(#593);
#573=SURFACE_STYLE_FILL_AREA(#594);
#574=SURFACE_STYLE_FILL_AREA(#595);
#575=FILL_AREA_STYLE('',(#596));
#576=FILL_AREA_STYLE('',(#597));
#577=FILL_AREA_STYLE('',(#598));
#578=FILL_AREA_STYLE('',(#599));
#579=FILL_AREA_STYLE('',(#600));
#580=FILL_AREA_STYLE('',(#601));
#581=FILL_AREA_STYLE('',(#602));
#582=FILL_AREA_STYLE('',(#603));
#583=FILL_AREA_STYLE('',(#604));
#584=FILL_AREA_STYLE('',(#605));
#585=FILL_AREA_STYLE('',(#606));
#586=FILL_AREA_STYLE('',(#607));
#587=FILL_AREA_STYLE('',(#608));
#588=FILL_AREA_STYLE('',(#609));
#589=FILL_AREA_STYLE('',(#610));
#590=FILL_AREA_STYLE('',(#611));
#591=FILL_AREA_STYLE('',(#612));
#592=FILL_AREA_STYLE('',(#613));
#593=FILL_AREA_STYLE('',(#614));
#594=FILL_AREA_STYLE('',(#615));
#595=FILL_AREA_STYLE('',(#616));
#596=FILL_AREA_STYLE_COLOUR('',#617);
#597=FILL_AREA_STYLE_COLOUR('',#618);
#598=FILL_AREA_STYLE_COLOUR('',#618);
#599=FILL_AREA_STYLE_COLOUR('',#618);
#600=FILL_AREA_STYLE_COLOUR('',#618);
#601=FILL_AREA_STYLE_COLOUR('',#618);
#602=FILL_AREA_STYLE_COLOUR('',#618);
#603=FILL_AREA_STYLE_COLOUR('',#619);
#604=FILL_AREA_STYLE_COLOUR('',#618);
#605=FILL_AREA_STYLE_COLOUR('',#619);
#606=FILL_AREA_STYLE_COLOUR('',#619);
#607=FILL_AREA_STYLE_COLOUR('',#619);
#608=FILL_AREA_STYLE_COLOUR('',#619);
#609=FILL_AREA_STYLE_COLOUR('',#620);
#610=FILL_AREA_STYLE_COLOUR('',#619);
#611=FILL_AREA_STYLE_COLOUR('',#620);
#612=FILL_AREA_STYLE_COLOUR('',#618);
#613=FILL_AREA_STYLE_COLOUR('',#618);
#614=FILL_AREA_STYLE_COLOUR('',#618);
#615=FILL_AREA_STYLE_COLOUR('',#619);
#616=FILL_AREA_STYLE_COLOUR('',#619);
#617=COLOUR_RGB('',0.666666666666667,0.666666666666667,0.666666666666667);
#618=COLOUR_RGB('',0.643137254901961,0.67843137254902,0.698039215686275);
#619=COLOUR_RGB('',0.0666666666666667,0.0666666666666667,0.0666666666666667);
#620=COLOUR_RGB('',0.63921568627451,0.666666666666667,0.686274509803922);
#621=MANIFOLD_SOLID_BREP('HBS25028138 Bolt Assembly',#489);
#622=SHAPE_DEFINITION_REPRESENTATION(#1015,#623);
#623=SHAPE_REPRESENTATION('HBS25028138 Bolt Assembly',(#624),#1010);
#624=AXIS2_PLACEMENT_3D('',#804,#678,#679);
#625=AXIS2_PLACEMENT_3D('',#805,#680,#681);
#626=AXIS2_PLACEMENT_3D('',#806,#682,#683);
#627=AXIS2_PLACEMENT_3D('',#808,#684,#685);
#628=AXIS2_PLACEMENT_3D('',#810,#686,#687);
#629=AXIS2_PLACEMENT_3D('',#827,#690,#691);
#630=AXIS2_PLACEMENT_3D('',#841,#693,#694);
#631=AXIS2_PLACEMENT_3D('',#855,#696,#697);
#632=AXIS2_PLACEMENT_3D('',#869,#699,#700);
#633=AXIS2_PLACEMENT_3D('',#870,#701,#702);
#634=AXIS2_PLACEMENT_3D('',#883,#703,#704);
#635=AXIS2_PLACEMENT_3D('',#884,#705,#706);
#636=AXIS2_PLACEMENT_3D('',#886,#707,#708);
#637=AXIS2_PLACEMENT_3D('',#888,#709,#710);
#638=AXIS2_PLACEMENT_3D('',#889,#711,#712);
#639=AXIS2_PLACEMENT_3D('',#891,#713,#714);
#640=AXIS2_PLACEMENT_3D('',#892,#715,#716);
#641=AXIS2_PLACEMENT_3D('',#894,#717,#718);
#642=AXIS2_PLACEMENT_3D('',#896,#719,#720);
#643=AXIS2_PLACEMENT_3D('',#897,#721,#722);
#644=AXIS2_PLACEMENT_3D('',#899,#723,#724);
#645=AXIS2_PLACEMENT_3D('',#901,#725,#726);
#646=AXIS2_PLACEMENT_3D('',#902,#727,#728);
#647=AXIS2_PLACEMENT_3D('',#915,#732,#733);
#648=AXIS2_PLACEMENT_3D('',#925,#736,#737);
#649=AXIS2_PLACEMENT_3D('',#935,#740,#741);
#650=AXIS2_PLACEMENT_3D('',#945,#744,#745);
#651=AXIS2_PLACEMENT_3D('',#955,#748,#749);
#652=AXIS2_PLACEMENT_3D('',#957,#751,#752);
#653=AXIS2_PLACEMENT_3D('',#958,#753,#754);
#654=AXIS2_PLACEMENT_3D('',#960,#755,#756);
#655=AXIS2_PLACEMENT_3D('',#966,#757,#758);
#656=AXIS2_PLACEMENT_3D('',#967,#759,#760);
#657=AXIS2_PLACEMENT_3D('',#968,#761,#762);
#658=AXIS2_PLACEMENT_3D('',#970,#763,#764);
#659=AXIS2_PLACEMENT_3D('',#971,#765,#766);
#660=AXIS2_PLACEMENT_3D('',#973,#767,#768);
#661=AXIS2_PLACEMENT_3D('',#974,#769,#770);
#662=AXIS2_PLACEMENT_3D('',#976,#771,#772);
#663=AXIS2_PLACEMENT_3D('',#977,#773,#774);
#664=AXIS2_PLACEMENT_3D('',#979,#775,#776);
#665=AXIS2_PLACEMENT_3D('',#980,#777,#778);
#666=AXIS2_PLACEMENT_3D('',#981,#779,#780);
#667=AXIS2_PLACEMENT_3D('',#983,#781,#782);
#668=AXIS2_PLACEMENT_3D('',#984,#783,#784);
#669=AXIS2_PLACEMENT_3D('',#986,#785,#786);
#670=AXIS2_PLACEMENT_3D('',#988,#787,#788);
#671=AXIS2_PLACEMENT_3D('',#989,#789,#790);
#672=AXIS2_PLACEMENT_3D('',#990,#791,#792);
#673=AXIS2_PLACEMENT_3D('',#998,#794,#795);
#674=AXIS2_PLACEMENT_3D('',#1004,#796,#797);
#675=AXIS2_PLACEMENT_3D('',#1005,#798,#799);
#676=AXIS2_PLACEMENT_3D('',#1006,#800,#801);
#677=AXIS2_PLACEMENT_3D('',#1008,#802,#803);
#678=DIRECTION('',(0.,0.,1.));
#679=DIRECTION('',(1.,0.,0.));
#680=DIRECTION('',(0.,0.,-1.));
#681=DIRECTION('',(0.909454585439109,-0.415803267211525,0.));
#682=DIRECTION('',(2.4980018054066E-16,2.22044604925032E-16,1.));
#683=DIRECTION('',(-0.909454585439109,0.415803267211525,1.348550474417E-16));
#684=DIRECTION('',(-2.4980018054066E-16,-2.22044604925032E-16,-1.));
#685=DIRECTION('',(-1.,0.,2.4980018054066E-16));
#686=DIRECTION('',(0.909454585439109,-0.415803267211525,-3.69850201926997E-16));
#687=DIRECTION('',(-0.415803267211525,-0.909454585439109,4.858987845905E-16));
#688=DIRECTION('',(2.4980018054066E-16,2.22044604925032E-16,1.));
#689=DIRECTION('',(2.4980018054066E-16,2.22044604925032E-16,1.));
#690=DIRECTION('',(0.814823485101304,0.579709140972751,-6.05725792086854E-16));
#691=DIRECTION('',(0.579709140972751,-0.814823485101304,-7.73502781683348E-17));
#692=DIRECTION('',(2.4980018054066E-16,2.22044604925032E-16,1.));
#693=DIRECTION('',(-0.0946311003378035,0.995512408184276,-2.35875590159857E-16));
#694=DIRECTION('',(0.995512408184276,0.0946311003378035,-5.63249062758834E-16));
#695=DIRECTION('',(2.4980018054066E-16,2.22044604925032E-16,1.));
#696=DIRECTION('',(-0.909454585439109,0.415803267211525,3.69850201926998E-16));
#697=DIRECTION('',(-4.63517601343285E-16,-1.24332851911168E-16,-1.));
#698=DIRECTION('',(2.4980018054066E-16,2.22044604925032E-16,1.));
#699=DIRECTION('',(0.,0.,1.));
#700=DIRECTION('',(-0.909454585439109,0.415803267211525,0.));
#701=DIRECTION('',(2.4980018054066E-16,2.22044604925032E-16,1.));
#702=DIRECTION('',(-0.909454585439109,0.415803267211525,1.348550474417E-16));
#703=DIRECTION('',(0.,0.,-1.));
#704=DIRECTION('',(-0.923728021347068,-0.383049008063238,0.));
#705=DIRECTION('',(-2.4980018054066E-16,-2.22044604925032E-16,-1.));
#706=DIRECTION('',(-1.,0.,2.4980018054066E-16));
#707=DIRECTION('',(-1.66533453693774E-16,1.66533453693774E-16,1.));
#708=DIRECTION('',(0.923728021347068,0.383049008063238,9.00411434218978E-17));
#709=DIRECTION('',(0.,0.,1.));
#710=DIRECTION('',(-0.923728021347068,-0.383049008063238,0.));
#711=DIRECTION('',(-2.4980018054066E-16,-2.22044604925032E-16,-1.));
#712=DIRECTION('',(-1.,0.,2.4980018054066E-16));
#713=DIRECTION('',(0.,0.,-1.));
#714=DIRECTION('',(-0.923728021347068,-0.383049008063238,0.));
#715=DIRECTION('',(0.,-2.7755575615629E-17,1.));
#716=DIRECTION('',(0.,-1.,-2.7755575615629E-17));
#717=DIRECTION('',(0.,5.55111512312578E-17,-1.));
#718=DIRECTION('',(-1.,1.10933564796705E-31,6.15804989205242E-48));
#719=DIRECTION('',(0.,0.,-1.));
#720=DIRECTION('',(-0.923728021347068,-0.383049008063238,0.));
#721=DIRECTION('',(0.,5.55111512312578E-17,-1.));
#722=DIRECTION('',(-1.,1.10933564796705E-31,6.15804989205242E-48));
#723=DIRECTION('',(0.,5.55111512312578E-17,-1.));
#724=DIRECTION('',(-1.,1.10933564796705E-31,6.15804989205242E-48));
#725=DIRECTION('',(0.,5.55111512312578E-17,-1.));
#726=DIRECTION('',(1.,-1.10933564796705E-31,-6.15804989205242E-48));
#727=DIRECTION('',(-0.912800026985718,0.408406795652169,1.33693433859837E-16));
#728=DIRECTION('',(-1.11688265359436E-16,7.77273604741654E-17,-1.));
#729=DIRECTION('',(0.,2.7755575615629E-17,-1.));
#730=DIRECTION('',(0.,2.7755575615629E-17,-1.));
#731=DIRECTION('',(0.408406795652169,0.912800026985718,-2.26885175814389E-16));
#732=DIRECTION('',(-0.810090673605838,-0.586304614118668,2.63335042927277E-16));
#733=DIRECTION('',(0.586304614118668,-0.810090673605838,-2.33932213459872E-18));
#734=DIRECTION('',(0.,2.7755575615629E-17,-1.));
#735=DIRECTION('',(-0.586304614118668,0.810090673605838,2.33932213459872E-18));
#736=DIRECTION('',(0.10270935337988,-0.994711409770838,1.29641609067441E-16));
#737=DIRECTION('',(0.994711409770838,0.10270935337988,-2.29224497948987E-16));
#738=DIRECTION('',(0.,2.7755575615629E-17,-1.));
#739=DIRECTION('',(-0.994711409770837,-0.102709353379881,2.29224497948988E-16));
#740=DIRECTION('',(0.912800026985718,-0.408406795652169,-1.33693433859837E-16));
#741=DIRECTION('',(1.11688265359436E-16,-7.77273604741654E-17,1.));
#742=DIRECTION('',(0.,2.7755575615629E-17,-1.));
#743=DIRECTION('',(-0.408406795652169,-0.912800026985718,2.26885175814389E-16));
#744=DIRECTION('',(0.810090673605837,0.586304614118668,-2.63335042927277E-16));
#745=DIRECTION('',(-0.586304614118668,0.810090673605837,2.33932213459896E-18));
#746=DIRECTION('',(0.,2.7755575615629E-17,-1.));
#747=DIRECTION('',(0.586304614118668,-0.810090673605838,-2.33932213459874E-18));
#748=DIRECTION('',(0.,5.55111512312578E-17,-1.));
#749=DIRECTION('',(1.,-1.10933564796705E-31,-6.15804989205242E-48));
#750=DIRECTION('',(0.994711409770837,0.102709353379881,-2.29224497948987E-16));
#751=DIRECTION('',(0.,-2.7755575615629E-17,1.));
#752=DIRECTION('',(-0.408406795652169,-0.912800026985718,-2.53352901709502E-17));
#753=DIRECTION('',(1.44916959830076E-33,2.7755575615629E-17,-1.));
#754=DIRECTION('',(0.408406795652169,0.912800026985718,2.53352901709502E-17));
#755=DIRECTION('',(-0.10270935337988,0.994711409770838,-1.29641609067441E-16));
#756=DIRECTION('',(-0.994711409770838,-0.10270935337988,2.29224497948987E-16));
#757=DIRECTION('',(-1.44916959830076E-33,-2.7755575615629E-17,1.));
#758=DIRECTION('',(-0.408406795652169,-0.912800026985718,-2.53352901709502E-17));
#759=DIRECTION('',(-2.44547369713253E-33,-2.7755575615629E-17,1.));
#760=DIRECTION('',(0.408406795652169,0.912800026985718,2.53352901709502E-17));
#761=DIRECTION('',(2.44547369713253E-33,2.7755575615629E-17,-1.));
#762=DIRECTION('',(0.408406795652169,0.912800026985718,2.53352901709502E-17));
#763=DIRECTION('',(0.,5.55111512312578E-17,-1.));
#764=DIRECTION('',(1.,-1.10933564796705E-31,-6.15804989205242E-48));
#765=DIRECTION('',(-2.44547369713253E-33,-2.7755575615629E-17,1.));
#766=DIRECTION('',(-0.408406795652169,-0.912800026985718,-2.53352901709502E-17));
#767=DIRECTION('',(0.,0.,1.));
#768=DIRECTION('',(-0.923728021347068,-0.383049008063238,0.));
#769=DIRECTION('',(-1.66533453693774E-16,1.66533453693774E-16,1.));
#770=DIRECTION('',(0.923728021347068,0.383049008063238,9.00411434218978E-17));
#771=DIRECTION('',(2.44547369713253E-33,2.7755575615629E-17,-1.));
#772=DIRECTION('',(0.408406795652169,0.912800026985718,2.53352901709502E-17));
#773=DIRECTION('',(4.33389714756474E-33,2.7755575615629E-17,-1.));
#774=DIRECTION('',(0.408406795652169,0.912800026985718,2.53352901709502E-17));
#775=DIRECTION('',(0.,2.7755575615629E-17,-1.));
#776=DIRECTION('',(0.408406795652169,0.912800026985718,2.53352901709502E-17));
#777=DIRECTION('',(-2.44547369713253E-33,-2.7755575615629E-17,1.));
#778=DIRECTION('',(0.408406795652169,0.912800026985718,2.53352901709502E-17));
#779=DIRECTION('',(2.44547369713253E-33,2.7755575615629E-17,-1.));
#780=DIRECTION('',(0.408406795652169,0.912800026985718,2.53352901709502E-17));
#781=DIRECTION('',(-2.44547369713253E-33,-2.7755575615629E-17,1.));
#782=DIRECTION('',(-0.408406795652169,-0.912800026985718,-2.53352901709502E-17));
#783=DIRECTION('',(2.44547369713253E-33,2.7755575615629E-17,-1.));
#784=DIRECTION('',(0.408406795652169,0.912800026985718,2.53352901709502E-17));
#785=DIRECTION('',(3.71957190644221E-33,2.7755575615629E-17,-1.));
#786=DIRECTION('',(0.408406795652169,0.912800026985718,2.53352901709502E-17));
#787=DIRECTION('',(-2.44547369713253E-33,-2.7755575615629E-17,1.));
#788=DIRECTION('',(0.408406795652169,0.912800026985718,2.53352901709502E-17));
#789=DIRECTION('',(3.71957190644221E-33,2.7755575615629E-17,-1.));
#790=DIRECTION('',(0.408406795652169,0.912800026985718,2.53352901709502E-17));
#791=DIRECTION('',(-0.814823485101304,-0.579709140972752,6.05725792086854E-16));
#792=DIRECTION('',(-0.579709140972752,0.814823485101304,7.7350278168335E-17));
#793=DIRECTION('',(2.4980018054066E-16,2.22044604925032E-16,1.));
#794=DIRECTION('',(0.0946311003378036,-0.995512408184276,2.35875590159857E-16));
#795=DIRECTION('',(-0.995512408184276,-0.0946311003378036,5.63249062758834E-16));
#796=DIRECTION('',(0.,0.,-1.));
#797=DIRECTION('',(0.909454585439109,-0.415803267211525,0.));
#798=DIRECTION('',(0.,0.,-1.));
#799=DIRECTION('',(-0.923728021347068,-0.383049008063238,0.));
#800=DIRECTION('',(-1.66533453693774E-16,1.66533453693774E-16,1.));
#801=DIRECTION('',(0.923728021347068,0.383049008063238,9.00411434218978E-17));
#802=DIRECTION('',(0.,0.,1.));
#803=DIRECTION('',(-0.923728021347068,-0.383049008063238,0.));
#804=CARTESIAN_POINT('',(0.,0.,0.));
#805=CARTESIAN_POINT('',(-0.00828688720320794,-0.0248207557738241,0.02541905));
#806=CARTESIAN_POINT('',(-0.0146812,-0.0254285843160802,0.02541905));
#807=CARTESIAN_POINT('',(-0.0190623636946704,-0.0234255132363375,0.02541905));
#808=CARTESIAN_POINT('',(-0.0146812,-0.0254285843160802,0.02541905));
#809=CARTESIAN_POINT('',(-0.0178562,-0.0254285843160802,0.02541905));
#810=CARTESIAN_POINT('',(-0.0210755127967921,-0.0260364128583363,0.0198628));
#811=CARTESIAN_POINT('',(-0.0210755127967921,-0.0260364128583363,0.0198628));
#812=CARTESIAN_POINT('',(-0.0210755127746266,-0.0260364128098554,0.0207898999846114));
#813=CARTESIAN_POINT('',(-0.0210755127658783,-0.026036412901788,0.024491950015394));
#814=CARTESIAN_POINT('',(-0.0184047513387127,-0.0201948614055226,0.0244919499854623));
#815=CARTESIAN_POINT('',(-0.0188408362699298,-0.0211486765186071,0.0247947058411606));
#816=CARTESIAN_POINT('',(-0.0197352985880531,-0.0231050650522395,0.025182664268308));
#817=CARTESIAN_POINT('',(-0.0206388840969433,-0.0250814084018422,0.0247950833689466));
#818=CARTESIAN_POINT('',(-0.0210755127475209,-0.0260364127505693,0.0244919500342069));
#819=CARTESIAN_POINT('',(-0.0184047513793083,-0.02019486131394,0.0244919500153939));
#820=CARTESIAN_POINT('',(-0.0184047513571351,-0.0201948612654424,0.0198628));
#821=CARTESIAN_POINT('',(-0.0184047513262026,-0.0201948613088532,0.0207898999692249));
#822=CARTESIAN_POINT('',(-0.0184047514014445,-0.0201948613623567,0.0207898999692379));
#823=CARTESIAN_POINT('',(-0.0188408363353653,-0.021148676481355,0.0204871441137926));
#824=CARTESIAN_POINT('',(-0.019735298559793,-0.0231050650806154,0.0200991857531077));
#825=CARTESIAN_POINT('',(-0.0206388841013165,-0.0250814084114073,0.0204867666332484));
#826=CARTESIAN_POINT('',(-0.0210755127524612,-0.0260364127613746,0.0207898999692229));
#827=CARTESIAN_POINT('',(-0.017351961439657,-0.0312701359089742,0.0198628));
#828=CARTESIAN_POINT('',(-0.017351961439657,-0.0312701359089741,0.0198628));
#829=CARTESIAN_POINT('',(-0.0173519614705709,-0.0312701358655224,0.0207898999846059));
#830=CARTESIAN_POINT('',(-0.0173519613865697,-0.0312701359039277,0.024491950015394));
#831=CARTESIAN_POINT('',(-0.0173519615014326,-0.0312701358221441,0.0244919500307621));
#832=CARTESIAN_POINT('',(-0.0179599471580347,-0.030415567631667,0.0247947058862056));
#833=CARTESIAN_POINT('',(-0.0192069982724464,-0.0286627463229683,0.0251826642468898));
#834=CARTESIAN_POINT('',(-0.0204667690327437,-0.0268920466241302,0.0247950833667582));
#835=CARTESIAN_POINT('',(-0.0210755127349645,-0.0260364129452396,0.024491950030788));
#836=CARTESIAN_POINT('',(-0.0210755127350081,-0.0260364129451784,0.0207898999692338));
#837=CARTESIAN_POINT('',(-0.0204675270784073,-0.0268909811356536,0.020487144113792));
#838=CARTESIAN_POINT('',(-0.0192204759639985,-0.0286438024443482,0.0200991857531111));
#839=CARTESIAN_POINT('',(-0.0179607052037042,-0.0304145021431821,0.0204867666332424));
#840=CARTESIAN_POINT('',(-0.0173519615014849,-0.0312701358220707,0.0207898999692119));
#841=CARTESIAN_POINT('',(-0.0109576486428649,-0.030662307366718,0.0198628));
#842=CARTESIAN_POINT('',(-0.0109576486428649,-0.030662307366718,0.0198628));
#843=CARTESIAN_POINT('',(-0.010957648695952,-0.0306623073717644,0.020789899984606));
#844=CARTESIAN_POINT('',(-0.0109576486206994,-0.0306623073182372,0.0244919500153886));
#845=CARTESIAN_POINT('',(-0.0109576487489642,-0.0306623073768035,0.0244919500307663));
#846=CARTESIAN_POINT('',(-0.0120017193394823,-0.0307615543053188,0.0247947058862081));
#847=CARTESIAN_POINT('',(-0.0141432326783109,-0.0309651215958672,0.025182664246889));
#848=CARTESIAN_POINT('',(-0.0163065889801218,-0.0311707652278099,0.0247950833667576));
#849=CARTESIAN_POINT('',(-0.0173519613334824,-0.0312701358988814,0.0244919500307881));
#850=CARTESIAN_POINT('',(-0.017351961333572,-0.03127013589889,0.0207898999692379));
#851=CARTESIAN_POINT('',(-0.0163078907430518,-0.0311708889703745,0.0204871441137944));
#852=CARTESIAN_POINT('',(-0.0141663774042182,-0.0309673216798256,0.0200991857531101));
#853=CARTESIAN_POINT('',(-0.0120030211024023,-0.0307616780478824,0.0204867666332418));
#854=CARTESIAN_POINT('',(-0.0109576487490391,-0.0306623073768107,0.020789899969212));
#855=CARTESIAN_POINT('',(-0.00828688720320794,-0.0248207557738241,0.0198628));
#856=CARTESIAN_POINT('',(-0.00828688720320794,-0.0248207557738241,0.0198628));
#857=CARTESIAN_POINT('',(-0.00828688725626898,-0.0248207557789066,0.020789899969225));
#858=CARTESIAN_POINT('',(-0.00828688722536693,-0.0248207558222907,0.0244919500153841));
#859=CARTESIAN_POINT('',(-0.00828688724752593,-0.0248207558707574,0.0244919500307681));
#860=CARTESIAN_POINT('',(-0.00872297218144548,-0.0257745709897529,0.0247947058862111));
#861=CARTESIAN_POINT('',(-0.00961743440587034,-0.027730959589007,0.025182664246891));
#862=CARTESIAN_POINT('',(-0.0105210199473907,-0.0297073029197922,0.0247950833667506));
#863=CARTESIAN_POINT('',(-0.0109576485985339,-0.0306623072697563,0.0244919500307772));
#864=CARTESIAN_POINT('',(-0.00828688732120403,-0.0248207558515337,0.0207899000145377));
#865=CARTESIAN_POINT('',(-0.0087229722524211,-0.0257745709646182,0.0204871441588393));
#866=CARTESIAN_POINT('',(-0.0096174343659167,-0.0277309595918065,0.020099185731692));
#867=CARTESIAN_POINT('',(-0.0105210199430161,-0.0297073029102239,0.0204867666310534));
#868=CARTESIAN_POINT('',(-0.0109576485935937,-0.0306623072589509,0.0207898999657931));
#869=CARTESIAN_POINT('',(-0.0146812,-0.0254285843160802,0.0198628));
#870=CARTESIAN_POINT('',(-0.0146812,-0.0254285843160802,0.0198628));
#871=CARTESIAN_POINT('',(-0.0190623636946704,-0.0234255132363375,0.0198628));
#872=CARTESIAN_POINT('',(-0.0120104386664279,-0.0195870327332704,0.0207898999692379));
#873=CARTESIAN_POINT('',(-0.0130545092569482,-0.0196862796617859,0.0204871441137944));
#874=CARTESIAN_POINT('',(-0.0151960225957817,-0.0198898469523348,0.0200991857531101));
#875=CARTESIAN_POINT('',(-0.0173593788975976,-0.020095490584278,0.0204867666332418));
#876=CARTESIAN_POINT('',(-0.0184047512509607,-0.0201948612553497,0.020789899969212));
#877=CARTESIAN_POINT('',(-0.0120104385824716,-0.0195870327716801,0.0207898999692249));
#878=CARTESIAN_POINT('',(-0.00828688726498368,-0.0248207556869937,0.0207898999692378));
#879=CARTESIAN_POINT('',(-0.00889487292158568,-0.0239661874965167,0.0204871441137944));
#880=CARTESIAN_POINT('',(-0.0101419240359973,-0.0222133661878183,0.0200991857531101));
#881=CARTESIAN_POINT('',(-0.0114016947962945,-0.0204426664889803,0.0204867666332418));
#882=CARTESIAN_POINT('',(-0.0120104384985152,-0.0195870328100898,0.0207898999692119));
#883=CARTESIAN_POINT('',(-0.0146812,-0.0254285843160802,0.01905));
#884=CARTESIAN_POINT('',(-0.0146812,-0.0254285843160802,0.0198628));
#885=CARTESIAN_POINT('',(-0.0180467,-0.0254285843160802,0.0198628));
#886=CARTESIAN_POINT('',(-0.0146812,-0.0254285843160802,0.01905));
#887=CARTESIAN_POINT('',(-0.0115723933441564,-0.0241394328794434,0.01905));
#888=CARTESIAN_POINT('',(-0.0146812,-0.0254285843160802,0.0198628));
#889=CARTESIAN_POINT('',(-0.0146812,-0.0254285843160802,0.0198628));
#890=CARTESIAN_POINT('',(-0.0178562,-0.0254285843160802,0.0198628));
#891=CARTESIAN_POINT('',(-0.0146812,-0.0254285843160802,0.01905));
#892=CARTESIAN_POINT('',(-0.0146812,-0.0254285843160802,-0.0071628));
#893=CARTESIAN_POINT('',(-0.0146812,-0.0287940843160802,-0.0071628));
#894=CARTESIAN_POINT('',(-0.0146812,-0.0254285843160802,-0.00635));
#895=CARTESIAN_POINT('',(-0.0180467,-0.0254285843160802,-0.00635));
#896=CARTESIAN_POINT('',(-0.0146812,-0.0254285843160802,0.01905));
#897=CARTESIAN_POINT('',(-0.0146812,-0.0254285843160802,-0.0071628));
#898=CARTESIAN_POINT('',(-0.0210312,-0.0254285843160802,-0.0071628));
#899=CARTESIAN_POINT('',(-0.0146812,-0.0254285843160802,-0.00635));
#900=CARTESIAN_POINT('',(-0.0210312,-0.0254285843160802,-0.00635));
#901=CARTESIAN_POINT('',(-0.0146812,-0.0254285843160802,-0.00635));
#902=CARTESIAN_POINT('',(-0.0179054422826608,-0.0209736840138622,-0.0071628));
#903=CARTESIAN_POINT('',(-0.0179054422826608,-0.0209736840138622,-0.0071628));
#904=CARTESIAN_POINT('',(-0.0179054422826608,-0.0209736840138622,-0.0071628));
#905=CARTESIAN_POINT('',(-0.0179054422826608,-0.0209736840138622,-0.0103378));
#906=CARTESIAN_POINT('',(-0.0179054422826608,-0.0209736840138622,-0.0103378));
#907=CARTESIAN_POINT('',(-0.0182721612021483,-0.0217933105312657,-0.0105970087951731));
#908=CARTESIAN_POINT('',(-0.0190243454578019,-0.0234744623048607,-0.0109291649489616));
#909=CARTESIAN_POINT('',(-0.0197842018243796,-0.0251727614499809,-0.0105973319804892));
#910=CARTESIAN_POINT('',(-0.0201513779743782,-0.0259934098897113,-0.0103378));
#911=CARTESIAN_POINT('',(-0.0201513779743782,-0.0259934098897113,-0.0103378));
#912=CARTESIAN_POINT('',(-0.0201513779743782,-0.0259934098897113,-0.0071628));
#913=CARTESIAN_POINT('',(-0.0201513779743782,-0.0259934098897113,-0.0071628));
#914=CARTESIAN_POINT('',(-0.0179054422826608,-0.0209736840138622,-0.0071628));
#915=CARTESIAN_POINT('',(-0.0201513779743782,-0.0259934098897113,-0.0071628));
#916=CARTESIAN_POINT('',(-0.0201513779743782,-0.0259934098897113,-0.0103378));
#917=CARTESIAN_POINT('',(-0.0196249200484351,-0.0267208110487376,-0.0105970087951731));
#918=CARTESIAN_POINT('',(-0.0185450920327114,-0.0282127976092579,-0.0109291649489616));
#919=CARTESIAN_POINT('',(-0.0174542500131007,-0.0297200020985016,-0.0105973319804892));
#920=CARTESIAN_POINT('',(-0.0169271356917174,-0.0304483101919294,-0.0103378));
#921=CARTESIAN_POINT('',(-0.0169271356917174,-0.0304483101919294,-0.0103378));
#922=CARTESIAN_POINT('',(-0.0169271356917174,-0.0304483101919294,-0.0071628));
#923=CARTESIAN_POINT('',(-0.0169271356917174,-0.0304483101919294,-0.0071628));
#924=CARTESIAN_POINT('',(-0.0201513779743782,-0.0259934098897113,-0.0071628));
#925=CARTESIAN_POINT('',(-0.0114569577173392,-0.0298834846182982,-0.0071628));
#926=CARTESIAN_POINT('',(-0.0169271356917174,-0.0304483101919294,-0.0103378));
#927=CARTESIAN_POINT('',(-0.0160339588462868,-0.0303560848335521,-0.0105970087951731));
#928=CARTESIAN_POINT('',(-0.0142019465749095,-0.0301669196204773,-0.0109291649489617));
#929=CARTESIAN_POINT('',(-0.0123512481887211,-0.0299758249646008,-0.0105973319804892));
#930=CARTESIAN_POINT('',(-0.0114569577173392,-0.0298834846182982,-0.0103378));
#931=CARTESIAN_POINT('',(-0.0114569577173392,-0.0298834846182982,-0.0103378));
#932=CARTESIAN_POINT('',(-0.0114569577173392,-0.0298834846182982,-0.0071628));
#933=CARTESIAN_POINT('',(-0.0114569577173392,-0.0298834846182982,-0.0071628));
#934=CARTESIAN_POINT('',(-0.0114569577173392,-0.0298834846182982,-0.0071628));
#935=CARTESIAN_POINT('',(-0.00921102202562181,-0.0248637587424491,-0.0071628));
#936=CARTESIAN_POINT('',(-0.00921102202562181,-0.0248637587424491,-0.0103378));
#937=CARTESIAN_POINT('',(-0.00957774094510927,-0.0256833852598526,-0.0105970087951731));
#938=CARTESIAN_POINT('',(-0.0103299252007629,-0.0273645370334476,-0.0109291649489616));
#939=CARTESIAN_POINT('',(-0.0110897815673406,-0.0290628361785678,-0.0105973319804892));
#940=CARTESIAN_POINT('',(-0.0114569577173392,-0.0298834846182982,-0.0103378));
#941=CARTESIAN_POINT('',(-0.00921102202562181,-0.0248637587424491,-0.0103378));
#942=CARTESIAN_POINT('',(-0.00921102202562181,-0.0248637587424491,-0.0071628));
#943=CARTESIAN_POINT('',(-0.00921102202562181,-0.0248637587424491,-0.0071628));
#944=CARTESIAN_POINT('',(-0.00921102202562181,-0.0248637587424491,-0.0071628));
#945=CARTESIAN_POINT('',(-0.0124352643082826,-0.0204088584402311,-0.0071628));
#946=CARTESIAN_POINT('',(-0.00921102202562184,-0.0248637587424491,-0.0103378));
#947=CARTESIAN_POINT('',(-0.00973747995156495,-0.0241363575834229,-0.0105970087951731));
#948=CARTESIAN_POINT('',(-0.0108173079672886,-0.0226443710229026,-0.0109291649489617));
#949=CARTESIAN_POINT('',(-0.0119081499868993,-0.0211371665336589,-0.0105973319804892));
#950=CARTESIAN_POINT('',(-0.0124352643082826,-0.0204088584402311,-0.0103378));
#951=CARTESIAN_POINT('',(-0.0124352643082826,-0.0204088584402311,-0.0103378));
#952=CARTESIAN_POINT('',(-0.0124352643082826,-0.0204088584402311,-0.0071628));
#953=CARTESIAN_POINT('',(-0.0124352643082826,-0.0204088584402311,-0.0071628));
#954=CARTESIAN_POINT('',(-0.0124352643082826,-0.0204088584402311,-0.0071628));
#955=CARTESIAN_POINT('',(-0.0146812,-0.0254285843160802,-0.0071628));
#956=CARTESIAN_POINT('',(-0.0124352643082826,-0.0204088584402311,-0.0071628));
#957=CARTESIAN_POINT('',(-0.0124352643082826,-0.0204088584402311,-0.01113155));
#958=CARTESIAN_POINT('',(-0.0146812,-0.0254285843160802,-0.01113155));
#959=CARTESIAN_POINT('',(-0.0129967482312119,-0.0216637899091933,-0.01113155));
#960=CARTESIAN_POINT('',(-0.0124352643082826,-0.0204088584402311,-0.0071628));
#961=CARTESIAN_POINT('',(-0.0124352643082826,-0.0204088584402311,-0.0103378));
#962=CARTESIAN_POINT('',(-0.0133284411537132,-0.0205010837986083,-0.0105970087951731));
#963=CARTESIAN_POINT('',(-0.0151604534250905,-0.0206902490116831,-0.0109291649489617));
#964=CARTESIAN_POINT('',(-0.0170111518112789,-0.0208813436675596,-0.0105973319804892));
#965=CARTESIAN_POINT('',(-0.0179054422826608,-0.0209736840138623,-0.0103378));
#966=CARTESIAN_POINT('',(-0.0146812,-0.0254285843160802,-0.01113155));
#967=CARTESIAN_POINT('',(-0.0146812,-0.0254285843160802,0.0277622));
#968=CARTESIAN_POINT('',(-0.0146812,-0.0254285843160802,0.0275082));
#969=CARTESIAN_POINT('',(-0.0133845084238044,-0.0225304442304005,0.0275082));
#970=CARTESIAN_POINT('',(-0.0146812,-0.0254285843160802,-0.0071628));
#971=CARTESIAN_POINT('',(-0.0146812,-0.0254285843160802,-0.0071628));
#972=CARTESIAN_POINT('',(-0.0159778915761956,-0.0283267244017599,-0.0071628));
#973=CARTESIAN_POINT('',(-0.0146812,-0.0254285843160802,0.01905));
#974=CARTESIAN_POINT('',(-0.0146812,-0.0254285843160802,0.01905));
#975=CARTESIAN_POINT('',(-0.00881552706444612,-0.0229962231148786,0.01905));
#976=CARTESIAN_POINT('',(-0.0146812,-0.0254285843160802,0.0275082));
#977=CARTESIAN_POINT('',(-0.0146812,-0.0254285843160802,0.0277622));
#978=CARTESIAN_POINT('',(-0.0134882437499,-0.0227622954372549,0.0277622));
#979=CARTESIAN_POINT('',(-0.0146812,-0.0254285843160802,0.0277622));
#980=CARTESIAN_POINT('',(-0.0146812,-0.0254285843160802,0.0277622));
#981=CARTESIAN_POINT('',(-0.0146812,-0.0254285843160802,0.0023368));
#982=CARTESIAN_POINT('',(-0.0133845084238044,-0.0225304442304005,0.0023368));
#983=CARTESIAN_POINT('',(-0.0146812,-0.0254285843160802,0.0023622));
#984=CARTESIAN_POINT('',(-0.0146812,-0.0254285843160802,0.0023622));
#985=CARTESIAN_POINT('',(-0.0133845084238044,-0.0225304442304005,0.0023622));
#986=CARTESIAN_POINT('',(-0.0146812,-0.0254285843160802,0.0023495));
#987=CARTESIAN_POINT('',(-0.0133934921665712,-0.0225505231339039,0.0023495));
#988=CARTESIAN_POINT('',(-0.0146812,-0.0254285843160802,0.0277622));
#989=CARTESIAN_POINT('',(-0.0146812,-0.0254285843160802,0.0023495));
#990=CARTESIAN_POINT('',(-0.012010438560343,-0.0195870327231863,0.0198628));
#991=CARTESIAN_POINT('',(-0.012010438560343,-0.0195870327231863,0.0198628));
#992=CARTESIAN_POINT('',(-0.0120104386134303,-0.0195870327282327,0.024491950015394));
#993=CARTESIAN_POINT('',(-0.0120104384985674,-0.0195870328100164,0.0244919500307621));
#994=CARTESIAN_POINT('',(-0.01140245284196,-0.020441601000501,0.0247947058862082));
#995=CARTESIAN_POINT('',(-0.0101554017275364,-0.0221944223092163,0.0251826642468934));
#996=CARTESIAN_POINT('',(-0.00889563096722943,-0.0239651220080681,0.0247950833667487));
#997=CARTESIAN_POINT('',(-0.00828688726500401,-0.0248207556869652,0.0244919500307723));
#998=CARTESIAN_POINT('',(-0.0184047513571351,-0.0201948612654424,0.0198628));
#999=CARTESIAN_POINT('',(-0.0184047512510499,-0.0201948612553582,0.0244919500307622));
#1000=CARTESIAN_POINT('',(-0.0173606806605298,-0.0200956143268428,0.0247947058862056));
#1001=CARTESIAN_POINT('',(-0.0152191673216964,-0.0198920470362939,0.0251826642468899));
#1002=CARTESIAN_POINT('',(-0.0130558110198806,-0.0196864034043507,0.0247950833667583));
#1003=CARTESIAN_POINT('',(-0.0120104386665176,-0.019587032733279,0.0244919500307881));
#1004=CARTESIAN_POINT('',(-0.0146812,-0.0254285843160802,0.02449195));
#1005=CARTESIAN_POINT('',(-0.0146812,-0.0254285843160802,0.01905));
#1006=CARTESIAN_POINT('',(-0.0146812,-0.0254285843160802,0.0198628));
#1007=CARTESIAN_POINT('',(-0.00881552706444612,-0.0229962231148786,0.0198628));
#1008=CARTESIAN_POINT('',(-0.0146812,-0.0254285843160802,0.0198628));
#1009=MECHANICAL_DESIGN_GEOMETRIC_PRESENTATION_REPRESENTATION('',(#490,
#435,#436,#437,#438,#439,#440,#441,#442,#443,#444,#445,#446,#447,#448,#449,
#450,#451,#452,#453,#454),#1010);
#1010=(
GEOMETRIC_REPRESENTATION_CONTEXT(3)
GLOBAL_UNCERTAINTY_ASSIGNED_CONTEXT((#1011))
GLOBAL_UNIT_ASSIGNED_CONTEXT((#1014,#1013,#1012))
REPRESENTATION_CONTEXT('HBS25028138 Bolt Assembly',
'TOP_LEVEL_ASSEMBLY_PART')
);
#1011=UNCERTAINTY_MEASURE_WITH_UNIT(LENGTH_MEASURE(2.E-5),#1014,
'DISTANCE_ACCURACY_VALUE','Maximum Tolerance applied to model');
#1012=(
NAMED_UNIT(*)
SI_UNIT($,.STERADIAN.)
SOLID_ANGLE_UNIT()
);
#1013=(
NAMED_UNIT(*)
PLANE_ANGLE_UNIT()
SI_UNIT($,.RADIAN.)
);
#1014=(
LENGTH_UNIT()
NAMED_UNIT(*)
SI_UNIT($,.METRE.)
);
#1015=PRODUCT_DEFINITION_SHAPE('','',#1016);
#1016=PRODUCT_DEFINITION('','',#1018,#1017);
#1017=PRODUCT_DEFINITION_CONTEXT('',#1024,'design');
#1018=PRODUCT_DEFINITION_FORMATION_WITH_SPECIFIED_SOURCE('','',#1020,
 .NOT_KNOWN.);
#1019=PRODUCT_RELATED_PRODUCT_CATEGORY('','',(#1020));
#1020=PRODUCT('HBS25028138 Bolt Assembly','HBS25028138 Bolt Assembly',
'HBS25028138 Bolt Assembly',(#1022));
#1021=PRODUCT_CATEGORY('','');
#1022=PRODUCT_CONTEXT('',#1024,'mechanical');
#1023=APPLICATION_PROTOCOL_DEFINITION('international standard',
'ap242_managed_model_based_3d_engineering',2020,#1024);
#1024=APPLICATION_CONTEXT('managed model based 3d engineering');
ENDSEC;
END-ISO-10303-21;
