ISO-10303-21;
HEADER;
/* Generated by software containing ST-Developer
 * from STEP Tools, Inc. (www.steptools.com) 
 */
/* OPTION: using custom renumber hook */

FILE_DESCRIPTION(
/* description */ ('STEP AP242 Edition 2',
'CAx-IF Rec.Pracs.---Representation and Presentation of Product Manufa
cturing Information (PMI)---4.0---2014-10-13',
'CAx-IF Rec.Pracs.---3D Tessellated Geometry---0.4---2014-09-14','2;1',
'CAx-IF Rec.Pracs.---User Defined Attributes---1.5---2016-08-15'),
/* implementation_level */ '2;1');

FILE_NAME(
/* name */ 'NP-Crucible Assembly - SS-200-R-6BT',
/* time_stamp */ '2026-07-15T12:54:19Z',
/* author */ (''),
/* organization */ (''),
/* preprocessor_version */ 'ST-DEVELOPER v20',
/* originating_system */ 'ONSHAPE BY PTC INC, 1.217',
/* authorisation */ '  ');

FILE_SCHEMA (('AP242_MANAGED_MODEL_BASED_3D_ENGINEERING_MIM_LF { 1 0 10303 442 3 1 4 }'));
ENDSEC;

DATA;
#10=SHAPE_REPRESENTATION_RELATIONSHIP('','',#718,#11);
#11=ADVANCED_BREP_SHAPE_REPRESENTATION('',(#716),#1305);
#12=LINE('',#1075,#24);
#13=LINE('',#1085,#25);
#14=LINE('',#1087,#26);
#15=LINE('',#1105,#27);
#16=LINE('',#1115,#28);
#17=LINE('',#1125,#29);
#18=LINE('',#1245,#30);
#19=LINE('',#1254,#31);
#20=LINE('',#1263,#32);
#21=LINE('',#1272,#33);
#22=LINE('',#1281,#34);
#23=LINE('',#1290,#35);
#24=VECTOR('',#856,1.);
#25=VECTOR('',#857,1.);
#26=VECTOR('',#860,1.);
#27=VECTOR('',#863,1.);
#28=VECTOR('',#866,1.);
#29=VECTOR('',#869,1.);
#30=VECTOR('',#970,1.);
#31=VECTOR('',#971,1.);
#32=VECTOR('',#974,1.);
#33=VECTOR('',#977,1.);
#34=VECTOR('',#980,1.);
#35=VECTOR('',#983,1.);
#36=(
BOUNDED_CURVE()
B_SPLINE_CURVE(2,(#1024,#1025,#1026),.UNSPECIFIED.,.F.,.F.)
B_SPLINE_CURVE_WITH_KNOTS((3,3),(0.127492889551251,0.254985779102501),
 .UNSPECIFIED.)
CURVE()
GEOMETRIC_REPRESENTATION_ITEM()
RATIONAL_B_SPLINE_CURVE((1.,1.03795484930204,1.))
REPRESENTATION_ITEM('')
);
#37=(
BOUNDED_CURVE()
B_SPLINE_CURVE(2,(#1028,#1029,#1030),.UNSPECIFIED.,.F.,.F.)
B_SPLINE_CURVE_WITH_KNOTS((3,3),(0.,0.127492889551251),.UNSPECIFIED.)
CURVE()
GEOMETRIC_REPRESENTATION_ITEM()
RATIONAL_B_SPLINE_CURVE((1.,1.03795484930203,1.))
REPRESENTATION_ITEM('')
);
#38=(
BOUNDED_CURVE()
B_SPLINE_CURVE(2,(#1032,#1033,#1034),.UNSPECIFIED.,.F.,.F.)
B_SPLINE_CURVE_WITH_KNOTS((3,3),(0.,0.127492889551251),.UNSPECIFIED.)
CURVE()
GEOMETRIC_REPRESENTATION_ITEM()
RATIONAL_B_SPLINE_CURVE((1.,1.03795484930203,1.))
REPRESENTATION_ITEM('')
);
#39=(
BOUNDED_CURVE()
B_SPLINE_CURVE(2,(#1036,#1037,#1038),.UNSPECIFIED.,.F.,.F.)
B_SPLINE_CURVE_WITH_KNOTS((3,3),(0.127492889551251,0.254985779102501),
 .UNSPECIFIED.)
CURVE()
GEOMETRIC_REPRESENTATION_ITEM()
RATIONAL_B_SPLINE_CURVE((1.,1.03795484930203,1.))
REPRESENTATION_ITEM('')
);
#40=(
BOUNDED_CURVE()
B_SPLINE_CURVE(2,(#1040,#1041,#1042),.UNSPECIFIED.,.F.,.F.)
B_SPLINE_CURVE_WITH_KNOTS((3,3),(0.,0.127492889551251),.UNSPECIFIED.)
CURVE()
GEOMETRIC_REPRESENTATION_ITEM()
RATIONAL_B_SPLINE_CURVE((1.,1.03795484930203,1.))
REPRESENTATION_ITEM('')
);
#41=(
BOUNDED_CURVE()
B_SPLINE_CURVE(2,(#1044,#1045,#1046),.UNSPECIFIED.,.F.,.F.)
B_SPLINE_CURVE_WITH_KNOTS((3,3),(0.12749288955125,0.254985779102501),
 .UNSPECIFIED.)
CURVE()
GEOMETRIC_REPRESENTATION_ITEM()
RATIONAL_B_SPLINE_CURVE((1.,1.03795484930203,1.))
REPRESENTATION_ITEM('')
);
#42=(
BOUNDED_CURVE()
B_SPLINE_CURVE(2,(#1048,#1049,#1050),.UNSPECIFIED.,.F.,.F.)
B_SPLINE_CURVE_WITH_KNOTS((3,3),(0.,0.12749288955125),.UNSPECIFIED.)
CURVE()
GEOMETRIC_REPRESENTATION_ITEM()
RATIONAL_B_SPLINE_CURVE((1.,1.03795484930206,1.))
REPRESENTATION_ITEM('')
);
#43=(
BOUNDED_CURVE()
B_SPLINE_CURVE(2,(#1052,#1053,#1054),.UNSPECIFIED.,.F.,.F.)
B_SPLINE_CURVE_WITH_KNOTS((3,3),(0.12749288955125,0.254985779102501),
 .UNSPECIFIED.)
CURVE()
GEOMETRIC_REPRESENTATION_ITEM()
RATIONAL_B_SPLINE_CURVE((1.,1.03795484930202,1.))
REPRESENTATION_ITEM('')
);
#44=(
BOUNDED_CURVE()
B_SPLINE_CURVE(2,(#1056,#1057,#1058),.UNSPECIFIED.,.F.,.F.)
B_SPLINE_CURVE_WITH_KNOTS((3,3),(0.,0.12749288955125),.UNSPECIFIED.)
CURVE()
GEOMETRIC_REPRESENTATION_ITEM()
RATIONAL_B_SPLINE_CURVE((1.,1.03795484930203,1.))
REPRESENTATION_ITEM('')
);
#45=(
BOUNDED_CURVE()
B_SPLINE_CURVE(2,(#1060,#1061,#1062),.UNSPECIFIED.,.F.,.F.)
B_SPLINE_CURVE_WITH_KNOTS((3,3),(0.127492889551251,0.254985779102501),
 .UNSPECIFIED.)
CURVE()
GEOMETRIC_REPRESENTATION_ITEM()
RATIONAL_B_SPLINE_CURVE((1.,1.03795484930203,1.))
REPRESENTATION_ITEM('')
);
#46=(
BOUNDED_CURVE()
B_SPLINE_CURVE(2,(#1064,#1065,#1066),.UNSPECIFIED.,.F.,.F.)
B_SPLINE_CURVE_WITH_KNOTS((3,3),(0.,0.127492889551251),.UNSPECIFIED.)
CURVE()
GEOMETRIC_REPRESENTATION_ITEM()
RATIONAL_B_SPLINE_CURVE((1.,1.03795484930203,1.))
REPRESENTATION_ITEM('')
);
#47=(
BOUNDED_CURVE()
B_SPLINE_CURVE(2,(#1068,#1069,#1070),.UNSPECIFIED.,.F.,.F.)
B_SPLINE_CURVE_WITH_KNOTS((3,3),(0.127492889551251,0.254985779102501),
 .UNSPECIFIED.)
CURVE()
GEOMETRIC_REPRESENTATION_ITEM()
RATIONAL_B_SPLINE_CURVE((1.,1.03795484930203,1.))
REPRESENTATION_ITEM('')
);
#48=(
BOUNDED_CURVE()
B_SPLINE_CURVE(2,(#1077,#1078,#1079),.UNSPECIFIED.,.F.,.F.)
B_SPLINE_CURVE_WITH_KNOTS((3,3),(0.,0.12749288955125),.UNSPECIFIED.)
CURVE()
GEOMETRIC_REPRESENTATION_ITEM()
RATIONAL_B_SPLINE_CURVE((1.,1.03795484930204,1.))
REPRESENTATION_ITEM('')
);
#49=(
BOUNDED_CURVE()
B_SPLINE_CURVE(2,(#1081,#1082,#1083),.UNSPECIFIED.,.F.,.F.)
B_SPLINE_CURVE_WITH_KNOTS((3,3),(0.12749288955125,0.254985779102501),
 .UNSPECIFIED.)
CURVE()
GEOMETRIC_REPRESENTATION_ITEM()
RATIONAL_B_SPLINE_CURVE((1.,1.03795484930203,1.))
REPRESENTATION_ITEM('')
);
#50=(
BOUNDED_CURVE()
B_SPLINE_CURVE(2,(#1089,#1090,#1091),.UNSPECIFIED.,.F.,.F.)
B_SPLINE_CURVE_WITH_KNOTS((3,3),(0.,0.127492889551251),.UNSPECIFIED.)
CURVE()
GEOMETRIC_REPRESENTATION_ITEM()
RATIONAL_B_SPLINE_CURVE((1.,1.03795484930203,1.))
REPRESENTATION_ITEM('')
);
#51=(
BOUNDED_CURVE()
B_SPLINE_CURVE(2,(#1093,#1094,#1095),.UNSPECIFIED.,.F.,.F.)
B_SPLINE_CURVE_WITH_KNOTS((3,3),(0.127492889551251,0.254985779102501),
 .UNSPECIFIED.)
CURVE()
GEOMETRIC_REPRESENTATION_ITEM()
RATIONAL_B_SPLINE_CURVE((1.,1.03795484930203,1.))
REPRESENTATION_ITEM('')
);
#52=(
BOUNDED_CURVE()
B_SPLINE_CURVE(2,(#1097,#1098,#1099),.UNSPECIFIED.,.F.,.F.)
B_SPLINE_CURVE_WITH_KNOTS((3,3),(0.,0.12749288955125),.UNSPECIFIED.)
CURVE()
GEOMETRIC_REPRESENTATION_ITEM()
RATIONAL_B_SPLINE_CURVE((1.,1.03795484930206,1.))
REPRESENTATION_ITEM('')
);
#53=(
BOUNDED_CURVE()
B_SPLINE_CURVE(2,(#1101,#1102,#1103),.UNSPECIFIED.,.F.,.F.)
B_SPLINE_CURVE_WITH_KNOTS((3,3),(0.12749288955125,0.254985779102501),
 .UNSPECIFIED.)
CURVE()
GEOMETRIC_REPRESENTATION_ITEM()
RATIONAL_B_SPLINE_CURVE((1.,1.03795484930206,1.))
REPRESENTATION_ITEM('')
);
#54=(
BOUNDED_CURVE()
B_SPLINE_CURVE(2,(#1107,#1108,#1109),.UNSPECIFIED.,.F.,.F.)
B_SPLINE_CURVE_WITH_KNOTS((3,3),(0.,0.12749288955125),.UNSPECIFIED.)
CURVE()
GEOMETRIC_REPRESENTATION_ITEM()
RATIONAL_B_SPLINE_CURVE((1.,1.03795484930203,1.))
REPRESENTATION_ITEM('')
);
#55=(
BOUNDED_CURVE()
B_SPLINE_CURVE(2,(#1111,#1112,#1113),.UNSPECIFIED.,.F.,.F.)
B_SPLINE_CURVE_WITH_KNOTS((3,3),(0.12749288955125,0.254985779102501),
 .UNSPECIFIED.)
CURVE()
GEOMETRIC_REPRESENTATION_ITEM()
RATIONAL_B_SPLINE_CURVE((1.,1.03795484930206,1.))
REPRESENTATION_ITEM('')
);
#56=(
BOUNDED_CURVE()
B_SPLINE_CURVE(2,(#1117,#1118,#1119),.UNSPECIFIED.,.F.,.F.)
B_SPLINE_CURVE_WITH_KNOTS((3,3),(0.,0.127492889551251),.UNSPECIFIED.)
CURVE()
GEOMETRIC_REPRESENTATION_ITEM()
RATIONAL_B_SPLINE_CURVE((1.,1.03795484930203,1.))
REPRESENTATION_ITEM('')
);
#57=(
BOUNDED_CURVE()
B_SPLINE_CURVE(2,(#1121,#1122,#1123),.UNSPECIFIED.,.F.,.F.)
B_SPLINE_CURVE_WITH_KNOTS((3,3),(0.127492889551251,0.254985779102501),
 .UNSPECIFIED.)
CURVE()
GEOMETRIC_REPRESENTATION_ITEM()
RATIONAL_B_SPLINE_CURVE((1.,1.03795484930203,1.))
REPRESENTATION_ITEM('')
);
#58=(
BOUNDED_CURVE()
B_SPLINE_CURVE(2,(#1127,#1128,#1129),.UNSPECIFIED.,.F.,.F.)
B_SPLINE_CURVE_WITH_KNOTS((3,3),(0.,0.127492889551251),.UNSPECIFIED.)
CURVE()
GEOMETRIC_REPRESENTATION_ITEM()
RATIONAL_B_SPLINE_CURVE((1.,1.03795484930203,1.))
REPRESENTATION_ITEM('')
);
#59=(
BOUNDED_CURVE()
B_SPLINE_CURVE(2,(#1131,#1132,#1133),.UNSPECIFIED.,.F.,.F.)
B_SPLINE_CURVE_WITH_KNOTS((3,3),(0.127492889551251,0.254985779102501),
 .UNSPECIFIED.)
CURVE()
GEOMETRIC_REPRESENTATION_ITEM()
RATIONAL_B_SPLINE_CURVE((1.,1.03795484930204,1.))
REPRESENTATION_ITEM('')
);
#60=(
BOUNDED_CURVE()
B_SPLINE_CURVE(2,(#1184,#1185,#1186),.UNSPECIFIED.,.F.,.F.)
B_SPLINE_CURVE_WITH_KNOTS((3,3),(0.128856138130554,0.257712276261107),
 .UNSPECIFIED.)
CURVE()
GEOMETRIC_REPRESENTATION_ITEM()
RATIONAL_B_SPLINE_CURVE((1.,1.03795484930205,1.))
REPRESENTATION_ITEM('')
);
#61=(
BOUNDED_CURVE()
B_SPLINE_CURVE(2,(#1188,#1189,#1190),.UNSPECIFIED.,.F.,.F.)
B_SPLINE_CURVE_WITH_KNOTS((3,3),(0.,0.128856138130553),.UNSPECIFIED.)
CURVE()
GEOMETRIC_REPRESENTATION_ITEM()
RATIONAL_B_SPLINE_CURVE((1.,1.03795484930205,1.))
REPRESENTATION_ITEM('')
);
#62=(
BOUNDED_CURVE()
B_SPLINE_CURVE(2,(#1192,#1193,#1194),.UNSPECIFIED.,.F.,.F.)
B_SPLINE_CURVE_WITH_KNOTS((3,3),(0.,0.128856138130554),.UNSPECIFIED.)
CURVE()
GEOMETRIC_REPRESENTATION_ITEM()
RATIONAL_B_SPLINE_CURVE((1.,1.03795484930205,1.))
REPRESENTATION_ITEM('')
);
#63=(
BOUNDED_CURVE()
B_SPLINE_CURVE(2,(#1196,#1197,#1198),.UNSPECIFIED.,.F.,.F.)
B_SPLINE_CURVE_WITH_KNOTS((3,3),(0.128856138130554,0.257712276261107),
 .UNSPECIFIED.)
CURVE()
GEOMETRIC_REPRESENTATION_ITEM()
RATIONAL_B_SPLINE_CURVE((1.,1.03795484930203,1.))
REPRESENTATION_ITEM('')
);
#64=(
BOUNDED_CURVE()
B_SPLINE_CURVE(2,(#1200,#1201,#1202),.UNSPECIFIED.,.F.,.F.)
B_SPLINE_CURVE_WITH_KNOTS((3,3),(0.,0.128856138130554),.UNSPECIFIED.)
CURVE()
GEOMETRIC_REPRESENTATION_ITEM()
RATIONAL_B_SPLINE_CURVE((1.,1.03795484930204,1.))
REPRESENTATION_ITEM('')
);
#65=(
BOUNDED_CURVE()
B_SPLINE_CURVE(2,(#1204,#1205,#1206),.UNSPECIFIED.,.F.,.F.)
B_SPLINE_CURVE_WITH_KNOTS((3,3),(0.128856138130554,0.257712276261107),
 .UNSPECIFIED.)
CURVE()
GEOMETRIC_REPRESENTATION_ITEM()
RATIONAL_B_SPLINE_CURVE((1.,1.03795484930206,1.))
REPRESENTATION_ITEM('')
);
#66=(
BOUNDED_CURVE()
B_SPLINE_CURVE(2,(#1208,#1209,#1210),.UNSPECIFIED.,.F.,.F.)
B_SPLINE_CURVE_WITH_KNOTS((3,3),(0.,0.128856138130554),.UNSPECIFIED.)
CURVE()
GEOMETRIC_REPRESENTATION_ITEM()
RATIONAL_B_SPLINE_CURVE((1.,1.03795484930204,1.))
REPRESENTATION_ITEM('')
);
#67=(
BOUNDED_CURVE()
B_SPLINE_CURVE(2,(#1212,#1213,#1214),.UNSPECIFIED.,.F.,.F.)
B_SPLINE_CURVE_WITH_KNOTS((3,3),(0.128856138130553,0.257712276261107),
 .UNSPECIFIED.)
CURVE()
GEOMETRIC_REPRESENTATION_ITEM()
RATIONAL_B_SPLINE_CURVE((1.,1.03795484930205,1.))
REPRESENTATION_ITEM('')
);
#68=(
BOUNDED_CURVE()
B_SPLINE_CURVE(2,(#1216,#1217,#1218),.UNSPECIFIED.,.F.,.F.)
B_SPLINE_CURVE_WITH_KNOTS((3,3),(0.128856138130553,0.257712276261107),
 .UNSPECIFIED.)
CURVE()
GEOMETRIC_REPRESENTATION_ITEM()
RATIONAL_B_SPLINE_CURVE((1.,1.03795484930204,1.))
REPRESENTATION_ITEM('')
);
#69=(
BOUNDED_CURVE()
B_SPLINE_CURVE(2,(#1220,#1221,#1222),.UNSPECIFIED.,.F.,.F.)
B_SPLINE_CURVE_WITH_KNOTS((3,3),(0.,0.128856138130553),.UNSPECIFIED.)
CURVE()
GEOMETRIC_REPRESENTATION_ITEM()
RATIONAL_B_SPLINE_CURVE((1.,1.03795484930204,1.))
REPRESENTATION_ITEM('')
);
#70=(
BOUNDED_CURVE()
B_SPLINE_CURVE(2,(#1224,#1225,#1226),.UNSPECIFIED.,.F.,.F.)
B_SPLINE_CURVE_WITH_KNOTS((3,3),(0.,0.128856138130553),.UNSPECIFIED.)
CURVE()
GEOMETRIC_REPRESENTATION_ITEM()
RATIONAL_B_SPLINE_CURVE((1.,1.03795484930204,1.))
REPRESENTATION_ITEM('')
);
#71=(
BOUNDED_CURVE()
B_SPLINE_CURVE(2,(#1228,#1229,#1230),.UNSPECIFIED.,.F.,.F.)
B_SPLINE_CURVE_WITH_KNOTS((3,3),(0.128856138130553,0.257712276261107),
 .UNSPECIFIED.)
CURVE()
GEOMETRIC_REPRESENTATION_ITEM()
RATIONAL_B_SPLINE_CURVE((1.,1.03795484930205,1.))
REPRESENTATION_ITEM('')
);
#72=(
BOUNDED_CURVE()
B_SPLINE_CURVE(2,(#1247,#1248,#1249),.UNSPECIFIED.,.F.,.F.)
B_SPLINE_CURVE_WITH_KNOTS((3,3),(0.,0.128856138130554),.UNSPECIFIED.)
CURVE()
GEOMETRIC_REPRESENTATION_ITEM()
RATIONAL_B_SPLINE_CURVE((1.,1.03795484930205,1.))
REPRESENTATION_ITEM('')
);
#73=(
BOUNDED_CURVE()
B_SPLINE_CURVE(2,(#1250,#1251,#1252),.UNSPECIFIED.,.F.,.F.)
B_SPLINE_CURVE_WITH_KNOTS((3,3),(0.128856138130554,0.257712276261108),
 .UNSPECIFIED.)
CURVE()
GEOMETRIC_REPRESENTATION_ITEM()
RATIONAL_B_SPLINE_CURVE((1.,1.03795484930205,1.))
REPRESENTATION_ITEM('')
);
#74=(
BOUNDED_CURVE()
B_SPLINE_CURVE(2,(#1256,#1257,#1258),.UNSPECIFIED.,.F.,.F.)
B_SPLINE_CURVE_WITH_KNOTS((3,3),(0.,0.128856138130554),.UNSPECIFIED.)
CURVE()
GEOMETRIC_REPRESENTATION_ITEM()
RATIONAL_B_SPLINE_CURVE((1.,1.03795484930208,1.))
REPRESENTATION_ITEM('')
);
#75=(
BOUNDED_CURVE()
B_SPLINE_CURVE(2,(#1259,#1260,#1261),.UNSPECIFIED.,.F.,.F.)
B_SPLINE_CURVE_WITH_KNOTS((3,3),(0.128856138130554,0.257712276261107),
 .UNSPECIFIED.)
CURVE()
GEOMETRIC_REPRESENTATION_ITEM()
RATIONAL_B_SPLINE_CURVE((1.,1.03795484930205,1.))
REPRESENTATION_ITEM('')
);
#76=(
BOUNDED_CURVE()
B_SPLINE_CURVE(2,(#1265,#1266,#1267),.UNSPECIFIED.,.F.,.F.)
B_SPLINE_CURVE_WITH_KNOTS((3,3),(0.,0.128856138130554),.UNSPECIFIED.)
CURVE()
GEOMETRIC_REPRESENTATION_ITEM()
RATIONAL_B_SPLINE_CURVE((1.,1.03795484930199,1.))
REPRESENTATION_ITEM('')
);
#77=(
BOUNDED_CURVE()
B_SPLINE_CURVE(2,(#1268,#1269,#1270),.UNSPECIFIED.,.F.,.F.)
B_SPLINE_CURVE_WITH_KNOTS((3,3),(0.128856138130554,0.257712276261107),
 .UNSPECIFIED.)
CURVE()
GEOMETRIC_REPRESENTATION_ITEM()
RATIONAL_B_SPLINE_CURVE((1.,1.03795484930199,1.))
REPRESENTATION_ITEM('')
);
#78=(
BOUNDED_CURVE()
B_SPLINE_CURVE(2,(#1274,#1275,#1276),.UNSPECIFIED.,.F.,.F.)
B_SPLINE_CURVE_WITH_KNOTS((3,3),(0.,0.128856138130553),.UNSPECIFIED.)
CURVE()
GEOMETRIC_REPRESENTATION_ITEM()
RATIONAL_B_SPLINE_CURVE((1.,1.03795484930201,1.))
REPRESENTATION_ITEM('')
);
#79=(
BOUNDED_CURVE()
B_SPLINE_CURVE(2,(#1277,#1278,#1279),.UNSPECIFIED.,.F.,.F.)
B_SPLINE_CURVE_WITH_KNOTS((3,3),(0.128856138130553,0.257712276261107),
 .UNSPECIFIED.)
CURVE()
GEOMETRIC_REPRESENTATION_ITEM()
RATIONAL_B_SPLINE_CURVE((1.,1.037954849302,1.))
REPRESENTATION_ITEM('')
);
#80=(
BOUNDED_CURVE()
B_SPLINE_CURVE(2,(#1283,#1284,#1285),.UNSPECIFIED.,.F.,.F.)
B_SPLINE_CURVE_WITH_KNOTS((3,3),(0.,0.128856138130553),.UNSPECIFIED.)
CURVE()
GEOMETRIC_REPRESENTATION_ITEM()
RATIONAL_B_SPLINE_CURVE((1.,1.03795484930203,1.))
REPRESENTATION_ITEM('')
);
#81=(
BOUNDED_CURVE()
B_SPLINE_CURVE(2,(#1286,#1287,#1288),.UNSPECIFIED.,.F.,.F.)
B_SPLINE_CURVE_WITH_KNOTS((3,3),(0.128856138130553,0.257712276261107),
 .UNSPECIFIED.)
CURVE()
GEOMETRIC_REPRESENTATION_ITEM()
RATIONAL_B_SPLINE_CURVE((1.,1.03795484930206,1.))
REPRESENTATION_ITEM('')
);
#82=(
BOUNDED_CURVE()
B_SPLINE_CURVE(2,(#1292,#1293,#1294),.UNSPECIFIED.,.F.,.F.)
B_SPLINE_CURVE_WITH_KNOTS((3,3),(0.,0.128856138130554),.UNSPECIFIED.)
CURVE()
GEOMETRIC_REPRESENTATION_ITEM()
RATIONAL_B_SPLINE_CURVE((1.,1.03795484930204,1.))
REPRESENTATION_ITEM('')
);
#83=(
BOUNDED_CURVE()
B_SPLINE_CURVE(2,(#1295,#1296,#1297),.UNSPECIFIED.,.F.,.F.)
B_SPLINE_CURVE_WITH_KNOTS((3,3),(0.128856138130554,0.257712276261107),
 .UNSPECIFIED.)
CURVE()
GEOMETRIC_REPRESENTATION_ITEM()
RATIONAL_B_SPLINE_CURVE((1.,1.03795484930204,1.))
REPRESENTATION_ITEM('')
);
#84=CONICAL_SURFACE('',#734,0.00598602743318486,1.13446401379631);
#85=CONICAL_SURFACE('',#735,0.00598602743318486,1.13446401379631);
#86=CONICAL_SURFACE('',#736,0.00598602743318486,1.13446401379631);
#87=CONICAL_SURFACE('',#737,0.00598602743318486,1.13446401379631);
#88=CONICAL_SURFACE('',#738,0.00598602743318486,1.13446401379631);
#89=CONICAL_SURFACE('',#739,0.00598602743318486,1.13446401379631);
#90=CONICAL_SURFACE('',#750,0.00598602743318486,1.13446401379631);
#91=CONICAL_SURFACE('',#752,0.00598602743318486,1.13446401379631);
#92=CONICAL_SURFACE('',#754,0.00598602743318486,1.13446401379631);
#93=CONICAL_SURFACE('',#756,0.00598602743318486,1.13446401379631);
#94=CONICAL_SURFACE('',#758,0.00598602743318486,1.13446401379631);
#95=CONICAL_SURFACE('',#760,0.00598602743318486,1.13446401379631);
#96=CONICAL_SURFACE('',#772,0.003549015,0.785398163397448);
#97=CONICAL_SURFACE('',#783,0.00602023330423163,1.0471975511966);
#98=CONICAL_SURFACE('',#784,0.00602023330423163,1.0471975511966);
#99=CONICAL_SURFACE('',#785,0.00602023330423163,1.0471975511966);
#100=CONICAL_SURFACE('',#786,0.00602023330423163,1.0471975511966);
#101=CONICAL_SURFACE('',#787,0.00602023330423163,1.0471975511966);
#102=CONICAL_SURFACE('',#788,0.00602023330423163,1.0471975511966);
#103=CONICAL_SURFACE('',#802,0.00602023330423163,1.0471975511966);
#104=CONICAL_SURFACE('',#803,0.00602023330423163,1.0471975511966);
#105=CONICAL_SURFACE('',#804,0.00602023330423163,1.0471975511966);
#106=CONICAL_SURFACE('',#805,0.00602023330423163,1.0471975511966);
#107=CONICAL_SURFACE('',#806,0.00602023330423163,1.0471975511966);
#108=CONICAL_SURFACE('',#807,0.00602023330423163,1.0471975511966);
#109=PLANE('',#723);
#110=PLANE('',#725);
#111=PLANE('',#740);
#112=PLANE('',#742);
#113=PLANE('',#743);
#114=PLANE('',#744);
#115=PLANE('',#745);
#116=PLANE('',#746);
#117=PLANE('',#747);
#118=PLANE('',#762);
#119=PLANE('',#764);
#120=PLANE('',#770);
#121=PLANE('',#789);
#122=PLANE('',#796);
#123=PLANE('',#797);
#124=PLANE('',#798);
#125=PLANE('',#799);
#126=PLANE('',#800);
#127=PLANE('',#801);
#128=ORIENTED_EDGE('',*,*,#322,.T.);
#129=ORIENTED_EDGE('',*,*,#323,.F.);
#130=ORIENTED_EDGE('',*,*,#322,.F.);
#131=ORIENTED_EDGE('',*,*,#324,.T.);
#132=ORIENTED_EDGE('',*,*,#323,.T.);
#133=ORIENTED_EDGE('',*,*,#325,.T.);
#134=ORIENTED_EDGE('',*,*,#326,.T.);
#135=ORIENTED_EDGE('',*,*,#327,.T.);
#136=ORIENTED_EDGE('',*,*,#328,.T.);
#137=ORIENTED_EDGE('',*,*,#329,.T.);
#138=ORIENTED_EDGE('',*,*,#330,.T.);
#139=ORIENTED_EDGE('',*,*,#331,.F.);
#140=ORIENTED_EDGE('',*,*,#324,.F.);
#141=ORIENTED_EDGE('',*,*,#332,.F.);
#142=ORIENTED_EDGE('',*,*,#325,.F.);
#143=ORIENTED_EDGE('',*,*,#333,.F.);
#144=ORIENTED_EDGE('',*,*,#326,.F.);
#145=ORIENTED_EDGE('',*,*,#334,.F.);
#146=ORIENTED_EDGE('',*,*,#335,.F.);
#147=ORIENTED_EDGE('',*,*,#336,.F.);
#148=ORIENTED_EDGE('',*,*,#337,.F.);
#149=ORIENTED_EDGE('',*,*,#327,.F.);
#150=ORIENTED_EDGE('',*,*,#338,.F.);
#151=ORIENTED_EDGE('',*,*,#339,.F.);
#152=ORIENTED_EDGE('',*,*,#328,.F.);
#153=ORIENTED_EDGE('',*,*,#329,.F.);
#154=ORIENTED_EDGE('',*,*,#340,.F.);
#155=ORIENTED_EDGE('',*,*,#341,.F.);
#156=ORIENTED_EDGE('',*,*,#342,.F.);
#157=ORIENTED_EDGE('',*,*,#343,.F.);
#158=ORIENTED_EDGE('',*,*,#330,.F.);
#159=ORIENTED_EDGE('',*,*,#331,.T.);
#160=ORIENTED_EDGE('',*,*,#344,.T.);
#161=ORIENTED_EDGE('',*,*,#334,.T.);
#162=ORIENTED_EDGE('',*,*,#332,.T.);
#163=ORIENTED_EDGE('',*,*,#345,.F.);
#164=ORIENTED_EDGE('',*,*,#346,.T.);
#165=ORIENTED_EDGE('',*,*,#347,.T.);
#166=ORIENTED_EDGE('',*,*,#348,.T.);
#167=ORIENTED_EDGE('',*,*,#333,.T.);
#168=ORIENTED_EDGE('',*,*,#343,.T.);
#169=ORIENTED_EDGE('',*,*,#349,.F.);
#170=ORIENTED_EDGE('',*,*,#350,.T.);
#171=ORIENTED_EDGE('',*,*,#351,.T.);
#172=ORIENTED_EDGE('',*,*,#345,.T.);
#173=ORIENTED_EDGE('',*,*,#336,.T.);
#174=ORIENTED_EDGE('',*,*,#335,.T.);
#175=ORIENTED_EDGE('',*,*,#348,.F.);
#176=ORIENTED_EDGE('',*,*,#352,.T.);
#177=ORIENTED_EDGE('',*,*,#353,.T.);
#178=ORIENTED_EDGE('',*,*,#354,.T.);
#179=ORIENTED_EDGE('',*,*,#337,.T.);
#180=ORIENTED_EDGE('',*,*,#354,.F.);
#181=ORIENTED_EDGE('',*,*,#355,.T.);
#182=ORIENTED_EDGE('',*,*,#356,.T.);
#183=ORIENTED_EDGE('',*,*,#357,.T.);
#184=ORIENTED_EDGE('',*,*,#338,.T.);
#185=ORIENTED_EDGE('',*,*,#339,.T.);
#186=ORIENTED_EDGE('',*,*,#357,.F.);
#187=ORIENTED_EDGE('',*,*,#358,.T.);
#188=ORIENTED_EDGE('',*,*,#359,.T.);
#189=ORIENTED_EDGE('',*,*,#360,.T.);
#190=ORIENTED_EDGE('',*,*,#340,.T.);
#191=ORIENTED_EDGE('',*,*,#341,.T.);
#192=ORIENTED_EDGE('',*,*,#360,.F.);
#193=ORIENTED_EDGE('',*,*,#361,.T.);
#194=ORIENTED_EDGE('',*,*,#362,.T.);
#195=ORIENTED_EDGE('',*,*,#349,.T.);
#196=ORIENTED_EDGE('',*,*,#342,.T.);
#197=ORIENTED_EDGE('',*,*,#344,.F.);
#198=ORIENTED_EDGE('',*,*,#363,.T.);
#199=ORIENTED_EDGE('',*,*,#346,.F.);
#200=ORIENTED_EDGE('',*,*,#351,.F.);
#201=ORIENTED_EDGE('',*,*,#364,.F.);
#202=ORIENTED_EDGE('',*,*,#350,.F.);
#203=ORIENTED_EDGE('',*,*,#362,.F.);
#204=ORIENTED_EDGE('',*,*,#365,.F.);
#205=ORIENTED_EDGE('',*,*,#352,.F.);
#206=ORIENTED_EDGE('',*,*,#347,.F.);
#207=ORIENTED_EDGE('',*,*,#366,.F.);
#208=ORIENTED_EDGE('',*,*,#353,.F.);
#209=ORIENTED_EDGE('',*,*,#367,.F.);
#210=ORIENTED_EDGE('',*,*,#355,.F.);
#211=ORIENTED_EDGE('',*,*,#356,.F.);
#212=ORIENTED_EDGE('',*,*,#368,.F.);
#213=ORIENTED_EDGE('',*,*,#358,.F.);
#214=ORIENTED_EDGE('',*,*,#361,.F.);
#215=ORIENTED_EDGE('',*,*,#359,.F.);
#216=ORIENTED_EDGE('',*,*,#369,.F.);
#217=ORIENTED_EDGE('',*,*,#370,.F.);
#218=ORIENTED_EDGE('',*,*,#363,.F.);
#219=ORIENTED_EDGE('',*,*,#369,.T.);
#220=ORIENTED_EDGE('',*,*,#368,.T.);
#221=ORIENTED_EDGE('',*,*,#367,.T.);
#222=ORIENTED_EDGE('',*,*,#366,.T.);
#223=ORIENTED_EDGE('',*,*,#364,.T.);
#224=ORIENTED_EDGE('',*,*,#365,.T.);
#225=ORIENTED_EDGE('',*,*,#371,.T.);
#226=ORIENTED_EDGE('',*,*,#370,.T.);
#227=ORIENTED_EDGE('',*,*,#372,.F.);
#228=ORIENTED_EDGE('',*,*,#373,.T.);
#229=ORIENTED_EDGE('',*,*,#371,.F.);
#230=ORIENTED_EDGE('',*,*,#374,.F.);
#231=ORIENTED_EDGE('',*,*,#372,.T.);
#232=ORIENTED_EDGE('',*,*,#375,.T.);
#233=ORIENTED_EDGE('',*,*,#373,.F.);
#234=ORIENTED_EDGE('',*,*,#374,.T.);
#235=ORIENTED_EDGE('',*,*,#376,.T.);
#236=ORIENTED_EDGE('',*,*,#377,.T.);
#237=ORIENTED_EDGE('',*,*,#378,.T.);
#238=ORIENTED_EDGE('',*,*,#379,.T.);
#239=ORIENTED_EDGE('',*,*,#380,.T.);
#240=ORIENTED_EDGE('',*,*,#381,.T.);
#241=ORIENTED_EDGE('',*,*,#382,.T.);
#242=ORIENTED_EDGE('',*,*,#375,.F.);
#243=ORIENTED_EDGE('',*,*,#383,.F.);
#244=ORIENTED_EDGE('',*,*,#377,.F.);
#245=ORIENTED_EDGE('',*,*,#384,.F.);
#246=ORIENTED_EDGE('',*,*,#385,.F.);
#247=ORIENTED_EDGE('',*,*,#386,.F.);
#248=ORIENTED_EDGE('',*,*,#378,.F.);
#249=ORIENTED_EDGE('',*,*,#379,.F.);
#250=ORIENTED_EDGE('',*,*,#387,.F.);
#251=ORIENTED_EDGE('',*,*,#388,.F.);
#252=ORIENTED_EDGE('',*,*,#389,.F.);
#253=ORIENTED_EDGE('',*,*,#390,.F.);
#254=ORIENTED_EDGE('',*,*,#380,.F.);
#255=ORIENTED_EDGE('',*,*,#391,.F.);
#256=ORIENTED_EDGE('',*,*,#381,.F.);
#257=ORIENTED_EDGE('',*,*,#392,.F.);
#258=ORIENTED_EDGE('',*,*,#393,.F.);
#259=ORIENTED_EDGE('',*,*,#394,.F.);
#260=ORIENTED_EDGE('',*,*,#376,.F.);
#261=ORIENTED_EDGE('',*,*,#382,.F.);
#262=ORIENTED_EDGE('',*,*,#395,.T.);
#263=ORIENTED_EDGE('',*,*,#396,.T.);
#264=ORIENTED_EDGE('',*,*,#397,.T.);
#265=ORIENTED_EDGE('',*,*,#398,.T.);
#266=ORIENTED_EDGE('',*,*,#399,.T.);
#267=ORIENTED_EDGE('',*,*,#400,.T.);
#268=ORIENTED_EDGE('',*,*,#384,.T.);
#269=ORIENTED_EDGE('',*,*,#394,.T.);
#270=ORIENTED_EDGE('',*,*,#401,.F.);
#271=ORIENTED_EDGE('',*,*,#402,.T.);
#272=ORIENTED_EDGE('',*,*,#403,.T.);
#273=ORIENTED_EDGE('',*,*,#404,.T.);
#274=ORIENTED_EDGE('',*,*,#383,.T.);
#275=ORIENTED_EDGE('',*,*,#404,.F.);
#276=ORIENTED_EDGE('',*,*,#405,.T.);
#277=ORIENTED_EDGE('',*,*,#406,.T.);
#278=ORIENTED_EDGE('',*,*,#407,.T.);
#279=ORIENTED_EDGE('',*,*,#385,.T.);
#280=ORIENTED_EDGE('',*,*,#387,.T.);
#281=ORIENTED_EDGE('',*,*,#386,.T.);
#282=ORIENTED_EDGE('',*,*,#407,.F.);
#283=ORIENTED_EDGE('',*,*,#408,.T.);
#284=ORIENTED_EDGE('',*,*,#409,.T.);
#285=ORIENTED_EDGE('',*,*,#410,.T.);
#286=ORIENTED_EDGE('',*,*,#388,.T.);
#287=ORIENTED_EDGE('',*,*,#410,.F.);
#288=ORIENTED_EDGE('',*,*,#411,.T.);
#289=ORIENTED_EDGE('',*,*,#412,.T.);
#290=ORIENTED_EDGE('',*,*,#413,.T.);
#291=ORIENTED_EDGE('',*,*,#389,.T.);
#292=ORIENTED_EDGE('',*,*,#390,.T.);
#293=ORIENTED_EDGE('',*,*,#413,.F.);
#294=ORIENTED_EDGE('',*,*,#414,.T.);
#295=ORIENTED_EDGE('',*,*,#415,.T.);
#296=ORIENTED_EDGE('',*,*,#416,.T.);
#297=ORIENTED_EDGE('',*,*,#392,.T.);
#298=ORIENTED_EDGE('',*,*,#393,.T.);
#299=ORIENTED_EDGE('',*,*,#391,.T.);
#300=ORIENTED_EDGE('',*,*,#416,.F.);
#301=ORIENTED_EDGE('',*,*,#417,.T.);
#302=ORIENTED_EDGE('',*,*,#418,.T.);
#303=ORIENTED_EDGE('',*,*,#401,.T.);
#304=ORIENTED_EDGE('',*,*,#396,.F.);
#305=ORIENTED_EDGE('',*,*,#411,.F.);
#306=ORIENTED_EDGE('',*,*,#409,.F.);
#307=ORIENTED_EDGE('',*,*,#406,.F.);
#308=ORIENTED_EDGE('',*,*,#397,.F.);
#309=ORIENTED_EDGE('',*,*,#408,.F.);
#310=ORIENTED_EDGE('',*,*,#403,.F.);
#311=ORIENTED_EDGE('',*,*,#398,.F.);
#312=ORIENTED_EDGE('',*,*,#405,.F.);
#313=ORIENTED_EDGE('',*,*,#399,.F.);
#314=ORIENTED_EDGE('',*,*,#402,.F.);
#315=ORIENTED_EDGE('',*,*,#418,.F.);
#316=ORIENTED_EDGE('',*,*,#417,.F.);
#317=ORIENTED_EDGE('',*,*,#415,.F.);
#318=ORIENTED_EDGE('',*,*,#400,.F.);
#319=ORIENTED_EDGE('',*,*,#414,.F.);
#320=ORIENTED_EDGE('',*,*,#412,.F.);
#321=ORIENTED_EDGE('',*,*,#395,.F.);
#322=EDGE_CURVE('',#419,#419,#480,.T.);
#323=EDGE_CURVE('',#420,#420,#481,.T.);
#324=EDGE_CURVE('',#421,#421,#482,.T.);
#325=EDGE_CURVE('',#422,#423,#483,.T.);
#326=EDGE_CURVE('',#423,#424,#484,.T.);
#327=EDGE_CURVE('',#424,#425,#485,.T.);
#328=EDGE_CURVE('',#425,#426,#486,.T.);
#329=EDGE_CURVE('',#426,#427,#487,.T.);
#330=EDGE_CURVE('',#427,#422,#488,.T.);
#331=EDGE_CURVE('',#428,#428,#489,.T.);
#332=EDGE_CURVE('',#423,#429,#36,.T.);
#333=EDGE_CURVE('',#429,#422,#37,.T.);
#334=EDGE_CURVE('',#430,#423,#38,.T.);
#335=EDGE_CURVE('',#424,#430,#39,.T.);
#336=EDGE_CURVE('',#431,#424,#40,.T.);
#337=EDGE_CURVE('',#425,#431,#41,.T.);
#338=EDGE_CURVE('',#432,#425,#42,.T.);
#339=EDGE_CURVE('',#426,#432,#43,.T.);
#340=EDGE_CURVE('',#433,#426,#44,.T.);
#341=EDGE_CURVE('',#427,#433,#45,.T.);
#342=EDGE_CURVE('',#434,#427,#46,.T.);
#343=EDGE_CURVE('',#422,#434,#47,.T.);
#344=EDGE_CURVE('',#435,#435,#490,.T.);
#345=EDGE_CURVE('',#436,#429,#12,.T.);
#346=EDGE_CURVE('',#436,#437,#48,.T.);
#347=EDGE_CURVE('',#437,#438,#49,.T.);
#348=EDGE_CURVE('',#438,#430,#13,.T.);
#349=EDGE_CURVE('',#439,#434,#14,.T.);
#350=EDGE_CURVE('',#439,#440,#50,.T.);
#351=EDGE_CURVE('',#440,#436,#51,.T.);
#352=EDGE_CURVE('',#438,#441,#52,.T.);
#353=EDGE_CURVE('',#441,#442,#53,.T.);
#354=EDGE_CURVE('',#442,#431,#15,.T.);
#355=EDGE_CURVE('',#442,#443,#54,.T.);
#356=EDGE_CURVE('',#443,#444,#55,.T.);
#357=EDGE_CURVE('',#444,#432,#16,.T.);
#358=EDGE_CURVE('',#444,#445,#56,.T.);
#359=EDGE_CURVE('',#445,#446,#57,.T.);
#360=EDGE_CURVE('',#446,#433,#17,.T.);
#361=EDGE_CURVE('',#446,#447,#58,.T.);
#362=EDGE_CURVE('',#447,#439,#59,.T.);
#363=EDGE_CURVE('',#448,#448,#491,.T.);
#364=EDGE_CURVE('',#437,#440,#492,.T.);
#365=EDGE_CURVE('',#440,#447,#493,.T.);
#366=EDGE_CURVE('',#441,#437,#494,.T.);
#367=EDGE_CURVE('',#443,#441,#495,.T.);
#368=EDGE_CURVE('',#445,#443,#496,.T.);
#369=EDGE_CURVE('',#447,#445,#497,.T.);
#370=EDGE_CURVE('',#449,#449,#498,.T.);
#371=EDGE_CURVE('',#450,#450,#499,.T.);
#372=EDGE_CURVE('',#451,#451,#500,.T.);
#373=EDGE_CURVE('',#452,#452,#501,.T.);
#374=EDGE_CURVE('',#453,#453,#502,.T.);
#375=EDGE_CURVE('',#454,#454,#503,.T.);
#376=EDGE_CURVE('',#455,#456,#504,.T.);
#377=EDGE_CURVE('',#456,#457,#505,.T.);
#378=EDGE_CURVE('',#457,#458,#506,.T.);
#379=EDGE_CURVE('',#458,#459,#507,.T.);
#380=EDGE_CURVE('',#459,#460,#508,.T.);
#381=EDGE_CURVE('',#460,#455,#509,.T.);
#382=EDGE_CURVE('',#461,#461,#510,.T.);
#383=EDGE_CURVE('',#457,#462,#60,.T.);
#384=EDGE_CURVE('',#462,#456,#61,.T.);
#385=EDGE_CURVE('',#463,#457,#62,.T.);
#386=EDGE_CURVE('',#458,#463,#63,.T.);
#387=EDGE_CURVE('',#464,#458,#64,.T.);
#388=EDGE_CURVE('',#459,#464,#65,.T.);
#389=EDGE_CURVE('',#465,#459,#66,.T.);
#390=EDGE_CURVE('',#460,#465,#67,.T.);
#391=EDGE_CURVE('',#455,#466,#68,.T.);
#392=EDGE_CURVE('',#466,#460,#69,.T.);
#393=EDGE_CURVE('',#467,#455,#70,.T.);
#394=EDGE_CURVE('',#456,#467,#71,.T.);
#395=EDGE_CURVE('',#468,#469,#511,.T.);
#396=EDGE_CURVE('',#469,#470,#512,.T.);
#397=EDGE_CURVE('',#470,#471,#513,.T.);
#398=EDGE_CURVE('',#471,#472,#514,.T.);
#399=EDGE_CURVE('',#472,#473,#515,.T.);
#400=EDGE_CURVE('',#473,#468,#516,.T.);
#401=EDGE_CURVE('',#474,#467,#18,.T.);
#402=EDGE_CURVE('',#474,#472,#72,.T.);
#403=EDGE_CURVE('',#472,#475,#73,.T.);
#404=EDGE_CURVE('',#475,#462,#19,.T.);
#405=EDGE_CURVE('',#475,#471,#74,.T.);
#406=EDGE_CURVE('',#471,#476,#75,.T.);
#407=EDGE_CURVE('',#476,#463,#20,.T.);
#408=EDGE_CURVE('',#476,#470,#76,.T.);
#409=EDGE_CURVE('',#470,#477,#77,.T.);
#410=EDGE_CURVE('',#477,#464,#21,.T.);
#411=EDGE_CURVE('',#477,#469,#78,.T.);
#412=EDGE_CURVE('',#469,#478,#79,.T.);
#413=EDGE_CURVE('',#478,#465,#22,.T.);
#414=EDGE_CURVE('',#478,#468,#80,.T.);
#415=EDGE_CURVE('',#468,#479,#81,.T.);
#416=EDGE_CURVE('',#479,#466,#23,.T.);
#417=EDGE_CURVE('',#479,#473,#82,.T.);
#418=EDGE_CURVE('',#473,#474,#83,.T.);
#419=VERTEX_POINT('',#1001);
#420=VERTEX_POINT('',#1003);
#421=VERTEX_POINT('',#1006);
#422=VERTEX_POINT('',#1009);
#423=VERTEX_POINT('',#1010);
#424=VERTEX_POINT('',#1012);
#425=VERTEX_POINT('',#1014);
#426=VERTEX_POINT('',#1016);
#427=VERTEX_POINT('',#1018);
#428=VERTEX_POINT('',#1022);
#429=VERTEX_POINT('',#1027);
#430=VERTEX_POINT('',#1035);
#431=VERTEX_POINT('',#1043);
#432=VERTEX_POINT('',#1051);
#433=VERTEX_POINT('',#1059);
#434=VERTEX_POINT('',#1067);
#435=VERTEX_POINT('',#1073);
#436=VERTEX_POINT('',#1076);
#437=VERTEX_POINT('',#1080);
#438=VERTEX_POINT('',#1084);
#439=VERTEX_POINT('',#1088);
#440=VERTEX_POINT('',#1092);
#441=VERTEX_POINT('',#1100);
#442=VERTEX_POINT('',#1104);
#443=VERTEX_POINT('',#1110);
#444=VERTEX_POINT('',#1114);
#445=VERTEX_POINT('',#1120);
#446=VERTEX_POINT('',#1124);
#447=VERTEX_POINT('',#1130);
#448=VERTEX_POINT('',#1136);
#449=VERTEX_POINT('',#1151);
#450=VERTEX_POINT('',#1154);
#451=VERTEX_POINT('',#1157);
#452=VERTEX_POINT('',#1160);
#453=VERTEX_POINT('',#1163);
#454=VERTEX_POINT('',#1166);
#455=VERTEX_POINT('',#1169);
#456=VERTEX_POINT('',#1170);
#457=VERTEX_POINT('',#1172);
#458=VERTEX_POINT('',#1174);
#459=VERTEX_POINT('',#1176);
#460=VERTEX_POINT('',#1178);
#461=VERTEX_POINT('',#1182);
#462=VERTEX_POINT('',#1187);
#463=VERTEX_POINT('',#1195);
#464=VERTEX_POINT('',#1203);
#465=VERTEX_POINT('',#1211);
#466=VERTEX_POINT('',#1219);
#467=VERTEX_POINT('',#1227);
#468=VERTEX_POINT('',#1233);
#469=VERTEX_POINT('',#1234);
#470=VERTEX_POINT('',#1236);
#471=VERTEX_POINT('',#1238);
#472=VERTEX_POINT('',#1240);
#473=VERTEX_POINT('',#1242);
#474=VERTEX_POINT('',#1246);
#475=VERTEX_POINT('',#1253);
#476=VERTEX_POINT('',#1262);
#477=VERTEX_POINT('',#1271);
#478=VERTEX_POINT('',#1280);
#479=VERTEX_POINT('',#1289);
#480=CIRCLE('',#721,0.0047625);
#481=CIRCLE('',#722,0.0047625);
#482=CIRCLE('',#724,0.003429);
#483=CIRCLE('',#726,0.00555625);
#484=CIRCLE('',#727,0.00555625);
#485=CIRCLE('',#728,0.00555625);
#486=CIRCLE('',#729,0.00555625);
#487=CIRCLE('',#730,0.00555625);
#488=CIRCLE('',#731,0.00555625);
#489=CIRCLE('',#733,0.003429);
#490=CIRCLE('',#741,0.001143);
#491=CIRCLE('',#749,0.001143);
#492=CIRCLE('',#751,0.00555625);
#493=CIRCLE('',#753,0.00555625);
#494=CIRCLE('',#755,0.00555625);
#495=CIRCLE('',#757,0.00555625);
#496=CIRCLE('',#759,0.00555625);
#497=CIRCLE('',#761,0.00555625);
#498=CIRCLE('',#763,0.0015875);
#499=CIRCLE('',#765,0.00312928);
#500=CIRCLE('',#767,0.0015875);
#501=CIRCLE('',#769,0.00312928);
#502=CIRCLE('',#771,0.005588);
#503=CIRCLE('',#773,0.00396875);
#504=CIRCLE('',#775,0.005588);
#505=CIRCLE('',#776,0.005588);
#506=CIRCLE('',#777,0.005588);
#507=CIRCLE('',#778,0.005588);
#508=CIRCLE('',#779,0.005588);
#509=CIRCLE('',#780,0.005588);
#510=CIRCLE('',#782,0.00396875);
#511=CIRCLE('',#790,0.005588);
#512=CIRCLE('',#791,0.005588);
#513=CIRCLE('',#792,0.005588);
#514=CIRCLE('',#793,0.005588);
#515=CIRCLE('',#794,0.005588);
#516=CIRCLE('',#795,0.005588);
#517=EDGE_LOOP('',(#128));
#518=EDGE_LOOP('',(#129));
#519=EDGE_LOOP('',(#130));
#520=EDGE_LOOP('',(#131));
#521=EDGE_LOOP('',(#132));
#522=EDGE_LOOP('',(#133,#134,#135,#136,#137,#138));
#523=EDGE_LOOP('',(#139));
#524=EDGE_LOOP('',(#140));
#525=EDGE_LOOP('',(#141,#142,#143));
#526=EDGE_LOOP('',(#144,#145,#146));
#527=EDGE_LOOP('',(#147,#148,#149));
#528=EDGE_LOOP('',(#150,#151,#152));
#529=EDGE_LOOP('',(#153,#154,#155));
#530=EDGE_LOOP('',(#156,#157,#158));
#531=EDGE_LOOP('',(#159));
#532=EDGE_LOOP('',(#160));
#533=EDGE_LOOP('',(#161,#162,#163,#164,#165,#166));
#534=EDGE_LOOP('',(#167,#168,#169,#170,#171,#172));
#535=EDGE_LOOP('',(#173,#174,#175,#176,#177,#178));
#536=EDGE_LOOP('',(#179,#180,#181,#182,#183,#184));
#537=EDGE_LOOP('',(#185,#186,#187,#188,#189,#190));
#538=EDGE_LOOP('',(#191,#192,#193,#194,#195,#196));
#539=EDGE_LOOP('',(#197));
#540=EDGE_LOOP('',(#198));
#541=EDGE_LOOP('',(#199,#200,#201));
#542=EDGE_LOOP('',(#202,#203,#204));
#543=EDGE_LOOP('',(#205,#206,#207));
#544=EDGE_LOOP('',(#208,#209,#210));
#545=EDGE_LOOP('',(#211,#212,#213));
#546=EDGE_LOOP('',(#214,#215,#216));
#547=EDGE_LOOP('',(#217));
#548=EDGE_LOOP('',(#218));
#549=EDGE_LOOP('',(#219,#220,#221,#222,#223,#224));
#550=EDGE_LOOP('',(#225));
#551=EDGE_LOOP('',(#226));
#552=EDGE_LOOP('',(#227));
#553=EDGE_LOOP('',(#228));
#554=EDGE_LOOP('',(#229));
#555=EDGE_LOOP('',(#230));
#556=EDGE_LOOP('',(#231));
#557=EDGE_LOOP('',(#232));
#558=EDGE_LOOP('',(#233));
#559=EDGE_LOOP('',(#234));
#560=EDGE_LOOP('',(#235,#236,#237,#238,#239,#240));
#561=EDGE_LOOP('',(#241));
#562=EDGE_LOOP('',(#242));
#563=EDGE_LOOP('',(#243,#244,#245));
#564=EDGE_LOOP('',(#246,#247,#248));
#565=EDGE_LOOP('',(#249,#250,#251));
#566=EDGE_LOOP('',(#252,#253,#254));
#567=EDGE_LOOP('',(#255,#256,#257));
#568=EDGE_LOOP('',(#258,#259,#260));
#569=EDGE_LOOP('',(#261));
#570=EDGE_LOOP('',(#262,#263,#264,#265,#266,#267));
#571=EDGE_LOOP('',(#268,#269,#270,#271,#272,#273));
#572=EDGE_LOOP('',(#274,#275,#276,#277,#278,#279));
#573=EDGE_LOOP('',(#280,#281,#282,#283,#284,#285));
#574=EDGE_LOOP('',(#286,#287,#288,#289,#290,#291));
#575=EDGE_LOOP('',(#292,#293,#294,#295,#296,#297));
#576=EDGE_LOOP('',(#298,#299,#300,#301,#302,#303));
#577=EDGE_LOOP('',(#304,#305,#306));
#578=EDGE_LOOP('',(#307,#308,#309));
#579=EDGE_LOOP('',(#310,#311,#312));
#580=EDGE_LOOP('',(#313,#314,#315));
#581=EDGE_LOOP('',(#316,#317,#318));
#582=EDGE_LOOP('',(#319,#320,#321));
#583=FACE_BOUND('',#517,.T.);
#584=FACE_BOUND('',#518,.T.);
#585=FACE_BOUND('',#519,.T.);
#586=FACE_BOUND('',#520,.T.);
#587=FACE_BOUND('',#521,.T.);
#588=FACE_BOUND('',#522,.T.);
#589=FACE_BOUND('',#523,.T.);
#590=FACE_BOUND('',#524,.T.);
#591=FACE_BOUND('',#525,.T.);
#592=FACE_BOUND('',#526,.T.);
#593=FACE_BOUND('',#527,.T.);
#594=FACE_BOUND('',#528,.T.);
#595=FACE_BOUND('',#529,.T.);
#596=FACE_BOUND('',#530,.T.);
#597=FACE_BOUND('',#531,.T.);
#598=FACE_BOUND('',#532,.T.);
#599=FACE_BOUND('',#533,.T.);
#600=FACE_BOUND('',#534,.T.);
#601=FACE_BOUND('',#535,.T.);
#602=FACE_BOUND('',#536,.T.);
#603=FACE_BOUND('',#537,.T.);
#604=FACE_BOUND('',#538,.T.);
#605=FACE_BOUND('',#539,.T.);
#606=FACE_BOUND('',#540,.T.);
#607=FACE_BOUND('',#541,.T.);
#608=FACE_BOUND('',#542,.T.);
#609=FACE_BOUND('',#543,.T.);
#610=FACE_BOUND('',#544,.T.);
#611=FACE_BOUND('',#545,.T.);
#612=FACE_BOUND('',#546,.T.);
#613=FACE_BOUND('',#547,.T.);
#614=FACE_BOUND('',#548,.T.);
#615=FACE_BOUND('',#549,.T.);
#616=FACE_BOUND('',#550,.T.);
#617=FACE_BOUND('',#551,.T.);
#618=FACE_BOUND('',#552,.T.);
#619=FACE_BOUND('',#553,.T.);
#620=FACE_BOUND('',#554,.T.);
#621=FACE_BOUND('',#555,.T.);
#622=FACE_BOUND('',#556,.T.);
#623=FACE_BOUND('',#557,.T.);
#624=FACE_BOUND('',#558,.T.);
#625=FACE_BOUND('',#559,.T.);
#626=FACE_BOUND('',#560,.T.);
#627=FACE_BOUND('',#561,.T.);
#628=FACE_BOUND('',#562,.T.);
#629=FACE_BOUND('',#563,.T.);
#630=FACE_BOUND('',#564,.T.);
#631=FACE_BOUND('',#565,.T.);
#632=FACE_BOUND('',#566,.T.);
#633=FACE_BOUND('',#567,.T.);
#634=FACE_BOUND('',#568,.T.);
#635=FACE_BOUND('',#569,.T.);
#636=FACE_BOUND('',#570,.T.);
#637=FACE_BOUND('',#571,.T.);
#638=FACE_BOUND('',#572,.T.);
#639=FACE_BOUND('',#573,.T.);
#640=FACE_BOUND('',#574,.T.);
#641=FACE_BOUND('',#575,.T.);
#642=FACE_BOUND('',#576,.T.);
#643=FACE_BOUND('',#577,.T.);
#644=FACE_BOUND('',#578,.T.);
#645=FACE_BOUND('',#579,.T.);
#646=FACE_BOUND('',#580,.T.);
#647=FACE_BOUND('',#581,.T.);
#648=FACE_BOUND('',#582,.T.);
#649=CYLINDRICAL_SURFACE('',#720,0.0047625);
#650=CYLINDRICAL_SURFACE('',#732,0.003429);
#651=CYLINDRICAL_SURFACE('',#748,0.001143);
#652=CYLINDRICAL_SURFACE('',#766,0.0015875);
#653=CYLINDRICAL_SURFACE('',#768,0.00312928);
#654=CYLINDRICAL_SURFACE('',#774,0.005588);
#655=CYLINDRICAL_SURFACE('',#781,0.00396875);
#656=ADVANCED_FACE('',(#583,#584),#649,.T.);
#657=ADVANCED_FACE('',(#585,#586),#109,.T.);
#658=ADVANCED_FACE('',(#587,#588),#110,.T.);
#659=ADVANCED_FACE('',(#589,#590),#650,.F.);
#660=ADVANCED_FACE('',(#591),#84,.T.);
#661=ADVANCED_FACE('',(#592),#85,.T.);
#662=ADVANCED_FACE('',(#593),#86,.T.);
#663=ADVANCED_FACE('',(#594),#87,.T.);
#664=ADVANCED_FACE('',(#595),#88,.T.);
#665=ADVANCED_FACE('',(#596),#89,.T.);
#666=ADVANCED_FACE('',(#597,#598),#111,.T.);
#667=ADVANCED_FACE('',(#599),#112,.T.);
#668=ADVANCED_FACE('',(#600),#113,.T.);
#669=ADVANCED_FACE('',(#601),#114,.T.);
#670=ADVANCED_FACE('',(#602),#115,.T.);
#671=ADVANCED_FACE('',(#603),#116,.T.);
#672=ADVANCED_FACE('',(#604),#117,.T.);
#673=ADVANCED_FACE('',(#605,#606),#651,.F.);
#674=ADVANCED_FACE('',(#607),#90,.T.);
#675=ADVANCED_FACE('',(#608),#91,.T.);
#676=ADVANCED_FACE('',(#609),#92,.T.);
#677=ADVANCED_FACE('',(#610),#93,.T.);
#678=ADVANCED_FACE('',(#611),#94,.T.);
#679=ADVANCED_FACE('',(#612),#95,.T.);
#680=ADVANCED_FACE('',(#613,#614),#118,.F.);
#681=ADVANCED_FACE('',(#615,#616),#119,.F.);
#682=ADVANCED_FACE('',(#617,#618),#652,.F.);
#683=ADVANCED_FACE('',(#619,#620),#653,.T.);
#684=ADVANCED_FACE('',(#621,#622),#120,.T.);
#685=ADVANCED_FACE('',(#623,#624),#96,.T.);
#686=ADVANCED_FACE('',(#625,#626),#654,.T.);
#687=ADVANCED_FACE('',(#627,#628),#655,.T.);
#688=ADVANCED_FACE('',(#629),#97,.T.);
#689=ADVANCED_FACE('',(#630),#98,.T.);
#690=ADVANCED_FACE('',(#631),#99,.T.);
#691=ADVANCED_FACE('',(#632),#100,.T.);
#692=ADVANCED_FACE('',(#633),#101,.T.);
#693=ADVANCED_FACE('',(#634),#102,.T.);
#694=ADVANCED_FACE('',(#635,#636),#121,.T.);
#695=ADVANCED_FACE('',(#637),#122,.T.);
#696=ADVANCED_FACE('',(#638),#123,.T.);
#697=ADVANCED_FACE('',(#639),#124,.T.);
#698=ADVANCED_FACE('',(#640),#125,.T.);
#699=ADVANCED_FACE('',(#641),#126,.T.);
#700=ADVANCED_FACE('',(#642),#127,.T.);
#701=ADVANCED_FACE('',(#643),#103,.T.);
#702=ADVANCED_FACE('',(#644),#104,.T.);
#703=ADVANCED_FACE('',(#645),#105,.T.);
#704=ADVANCED_FACE('',(#646),#106,.T.);
#705=ADVANCED_FACE('',(#647),#107,.T.);
#706=ADVANCED_FACE('',(#648),#108,.T.);
#707=CLOSED_SHELL('',(#656,#657,#658,#659,#660,#661,#662,#663,#664,#665,
#666,#667,#668,#669,#670,#671,#672,#673,#674,#675,#676,#677,#678,#679,#680,
#681,#682,#683,#684,#685,#686,#687,#688,#689,#690,#691,#692,#693,#694,#695,
#696,#697,#698,#699,#700,#701,#702,#703,#704,#705,#706));
#708=STYLED_ITEM('',(#709),#716);
#709=PRESENTATION_STYLE_ASSIGNMENT((#710));
#710=SURFACE_STYLE_USAGE(.BOTH.,#711);
#711=SURFACE_SIDE_STYLE('',(#712));
#712=SURFACE_STYLE_FILL_AREA(#713);
#713=FILL_AREA_STYLE('',(#714));
#714=FILL_AREA_STYLE_COLOUR('',#715);
#715=COLOUR_RGB('',0.509803921568627,0.509803921568627,0.588235294117647);
#716=MANIFOLD_SOLID_BREP('SS-200-R-6BT',#707);
#717=SHAPE_DEFINITION_REPRESENTATION(#1310,#718);
#718=SHAPE_REPRESENTATION('SS-200-R-6BT',(#719),#1305);
#719=AXIS2_PLACEMENT_3D('',#998,#808,#809);
#720=AXIS2_PLACEMENT_3D('',#999,#810,#811);
#721=AXIS2_PLACEMENT_3D('',#1000,#812,#813);
#722=AXIS2_PLACEMENT_3D('',#1002,#814,#815);
#723=AXIS2_PLACEMENT_3D('',#1004,#816,#817);
#724=AXIS2_PLACEMENT_3D('',#1005,#818,#819);
#725=AXIS2_PLACEMENT_3D('',#1007,#820,#821);
#726=AXIS2_PLACEMENT_3D('',#1008,#822,#823);
#727=AXIS2_PLACEMENT_3D('',#1011,#824,#825);
#728=AXIS2_PLACEMENT_3D('',#1013,#826,#827);
#729=AXIS2_PLACEMENT_3D('',#1015,#828,#829);
#730=AXIS2_PLACEMENT_3D('',#1017,#830,#831);
#731=AXIS2_PLACEMENT_3D('',#1019,#832,#833);
#732=AXIS2_PLACEMENT_3D('',#1020,#834,#835);
#733=AXIS2_PLACEMENT_3D('',#1021,#836,#837);
#734=AXIS2_PLACEMENT_3D('',#1023,#838,#839);
#735=AXIS2_PLACEMENT_3D('',#1031,#840,#841);
#736=AXIS2_PLACEMENT_3D('',#1039,#842,#843);
#737=AXIS2_PLACEMENT_3D('',#1047,#844,#845);
#738=AXIS2_PLACEMENT_3D('',#1055,#846,#847);
#739=AXIS2_PLACEMENT_3D('',#1063,#848,#849);
#740=AXIS2_PLACEMENT_3D('',#1071,#850,#851);
#741=AXIS2_PLACEMENT_3D('',#1072,#852,#853);
#742=AXIS2_PLACEMENT_3D('',#1074,#854,#855);
#743=AXIS2_PLACEMENT_3D('',#1086,#858,#859);
#744=AXIS2_PLACEMENT_3D('',#1096,#861,#862);
#745=AXIS2_PLACEMENT_3D('',#1106,#864,#865);
#746=AXIS2_PLACEMENT_3D('',#1116,#867,#868);
#747=AXIS2_PLACEMENT_3D('',#1126,#870,#871);
#748=AXIS2_PLACEMENT_3D('',#1134,#872,#873);
#749=AXIS2_PLACEMENT_3D('',#1135,#874,#875);
#750=AXIS2_PLACEMENT_3D('',#1137,#876,#877);
#751=AXIS2_PLACEMENT_3D('',#1138,#878,#879);
#752=AXIS2_PLACEMENT_3D('',#1139,#880,#881);
#753=AXIS2_PLACEMENT_3D('',#1140,#882,#883);
#754=AXIS2_PLACEMENT_3D('',#1141,#884,#885);
#755=AXIS2_PLACEMENT_3D('',#1142,#886,#887);
#756=AXIS2_PLACEMENT_3D('',#1143,#888,#889);
#757=AXIS2_PLACEMENT_3D('',#1144,#890,#891);
#758=AXIS2_PLACEMENT_3D('',#1145,#892,#893);
#759=AXIS2_PLACEMENT_3D('',#1146,#894,#895);
#760=AXIS2_PLACEMENT_3D('',#1147,#896,#897);
#761=AXIS2_PLACEMENT_3D('',#1148,#898,#899);
#762=AXIS2_PLACEMENT_3D('',#1149,#900,#901);
#763=AXIS2_PLACEMENT_3D('',#1150,#902,#903);
#764=AXIS2_PLACEMENT_3D('',#1152,#904,#905);
#765=AXIS2_PLACEMENT_3D('',#1153,#906,#907);
#766=AXIS2_PLACEMENT_3D('',#1155,#908,#909);
#767=AXIS2_PLACEMENT_3D('',#1156,#910,#911);
#768=AXIS2_PLACEMENT_3D('',#1158,#912,#913);
#769=AXIS2_PLACEMENT_3D('',#1159,#914,#915);
#770=AXIS2_PLACEMENT_3D('',#1161,#916,#917);
#771=AXIS2_PLACEMENT_3D('',#1162,#918,#919);
#772=AXIS2_PLACEMENT_3D('',#1164,#920,#921);
#773=AXIS2_PLACEMENT_3D('',#1165,#922,#923);
#774=AXIS2_PLACEMENT_3D('',#1167,#924,#925);
#775=AXIS2_PLACEMENT_3D('',#1168,#926,#927);
#776=AXIS2_PLACEMENT_3D('',#1171,#928,#929);
#777=AXIS2_PLACEMENT_3D('',#1173,#930,#931);
#778=AXIS2_PLACEMENT_3D('',#1175,#932,#933);
#779=AXIS2_PLACEMENT_3D('',#1177,#934,#935);
#780=AXIS2_PLACEMENT_3D('',#1179,#936,#937);
#781=AXIS2_PLACEMENT_3D('',#1180,#938,#939);
#782=AXIS2_PLACEMENT_3D('',#1181,#940,#941);
#783=AXIS2_PLACEMENT_3D('',#1183,#942,#943);
#784=AXIS2_PLACEMENT_3D('',#1191,#944,#945);
#785=AXIS2_PLACEMENT_3D('',#1199,#946,#947);
#786=AXIS2_PLACEMENT_3D('',#1207,#948,#949);
#787=AXIS2_PLACEMENT_3D('',#1215,#950,#951);
#788=AXIS2_PLACEMENT_3D('',#1223,#952,#953);
#789=AXIS2_PLACEMENT_3D('',#1231,#954,#955);
#790=AXIS2_PLACEMENT_3D('',#1232,#956,#957);
#791=AXIS2_PLACEMENT_3D('',#1235,#958,#959);
#792=AXIS2_PLACEMENT_3D('',#1237,#960,#961);
#793=AXIS2_PLACEMENT_3D('',#1239,#962,#963);
#794=AXIS2_PLACEMENT_3D('',#1241,#964,#965);
#795=AXIS2_PLACEMENT_3D('',#1243,#966,#967);
#796=AXIS2_PLACEMENT_3D('',#1244,#968,#969);
#797=AXIS2_PLACEMENT_3D('',#1255,#972,#973);
#798=AXIS2_PLACEMENT_3D('',#1264,#975,#976);
#799=AXIS2_PLACEMENT_3D('',#1273,#978,#979);
#800=AXIS2_PLACEMENT_3D('',#1282,#981,#982);
#801=AXIS2_PLACEMENT_3D('',#1291,#984,#985);
#802=AXIS2_PLACEMENT_3D('',#1298,#986,#987);
#803=AXIS2_PLACEMENT_3D('',#1299,#988,#989);
#804=AXIS2_PLACEMENT_3D('',#1300,#990,#991);
#805=AXIS2_PLACEMENT_3D('',#1301,#992,#993);
#806=AXIS2_PLACEMENT_3D('',#1302,#994,#995);
#807=AXIS2_PLACEMENT_3D('',#1303,#996,#997);
#808=DIRECTION('',(0.,0.,1.));
#809=DIRECTION('',(1.,0.,0.));
#810=DIRECTION('',(-1.,0.,0.));
#811=DIRECTION('',(0.,-2.46519032881566E-32,1.));
#812=DIRECTION('',(-1.,1.11022302462516E-16,2.22044604925031E-16));
#813=DIRECTION('',(2.22044604925031E-16,-2.46519032881566E-32,1.));
#814=DIRECTION('',(-1.,1.11022302462516E-16,2.22044604925031E-16));
#815=DIRECTION('',(2.22044604925031E-16,-2.46519032881566E-32,1.));
#816=DIRECTION('',(1.,0.,0.));
#817=DIRECTION('',(0.,1.,-2.46519032881566E-32));
#818=DIRECTION('',(-1.,1.11022302462516E-16,-2.22044604925031E-16));
#819=DIRECTION('',(-2.22044604925031E-16,0.,1.));
#820=DIRECTION('',(1.,0.,0.));
#821=DIRECTION('',(0.,1.,-7.54721935012284E-49));
#822=DIRECTION('',(1.,6.79793085057932E-33,1.11022302462516E-16));
#823=DIRECTION('',(1.11022302462516E-16,0.,-1.));
#824=DIRECTION('',(1.,6.79793085057932E-33,1.11022302462516E-16));
#825=DIRECTION('',(1.11022302462516E-16,0.,-1.));
#826=DIRECTION('',(1.,6.79793085057932E-33,1.11022302462516E-16));
#827=DIRECTION('',(1.11022302462516E-16,0.,-1.));
#828=DIRECTION('',(1.,6.79793085057932E-33,1.11022302462516E-16));
#829=DIRECTION('',(1.11022302462516E-16,0.,-1.));
#830=DIRECTION('',(1.,6.79793085057932E-33,1.11022302462516E-16));
#831=DIRECTION('',(1.11022302462516E-16,0.,-1.));
#832=DIRECTION('',(1.,6.79793085057932E-33,1.11022302462516E-16));
#833=DIRECTION('',(1.11022302462516E-16,0.,-1.));
#834=DIRECTION('',(-1.,0.,0.));
#835=DIRECTION('',(0.,0.,1.));
#836=DIRECTION('',(1.,-1.11022302462516E-16,2.22044604925031E-16));
#837=DIRECTION('',(-2.22044604925031E-16,0.,1.));
#838=DIRECTION('',(-1.,0.,0.));
#839=DIRECTION('',(0.,0.,-1.));
#840=DIRECTION('',(-1.,0.,0.));
#841=DIRECTION('',(0.,0.,-1.));
#842=DIRECTION('',(-1.,0.,0.));
#843=DIRECTION('',(0.,0.,-1.));
#844=DIRECTION('',(-1.,0.,0.));
#845=DIRECTION('',(0.,0.,-1.));
#846=DIRECTION('',(-1.,0.,0.));
#847=DIRECTION('',(0.,0.,-1.));
#848=DIRECTION('',(-1.,0.,0.));
#849=DIRECTION('',(0.,0.,-1.));
#850=DIRECTION('',(1.,0.,0.));
#851=DIRECTION('',(0.,1.,-7.54721935012284E-49));
#852=DIRECTION('',(-1.,-6.79793085057932E-33,-1.11022302462516E-16));
#853=DIRECTION('',(1.11022302462516E-16,0.,-1.));
#854=DIRECTION('',(9.61481343191783E-17,-0.5,-0.866025403784439));
#855=DIRECTION('',(1.,4.80740671595891E-17,8.32667268468867E-17));
#856=DIRECTION('',(1.,6.79793085057932E-33,1.11022302462516E-16));
#857=DIRECTION('',(1.,6.79793085057932E-33,1.11022302462516E-16));
#858=DIRECTION('',(0.,-1.,0.));
#859=DIRECTION('',(1.,0.,6.85607345580551E-48));
#860=DIRECTION('',(1.,6.79793085057932E-33,1.11022302462516E-16));
#861=DIRECTION('',(9.61481343191782E-17,0.5,-0.866025403784439));
#862=DIRECTION('',(1.,-4.80740671595891E-17,8.32667268468868E-17));
#863=DIRECTION('',(1.,6.79793085057932E-33,1.11022302462516E-16));
#864=DIRECTION('',(0.,1.,-6.12303176911189E-17));
#865=DIRECTION('',(1.,0.,0.));
#866=DIRECTION('',(1.,6.79793085057932E-33,1.11022302462516E-16));
#867=DIRECTION('',(-9.61481343191782E-17,0.5,0.866025403784439));
#868=DIRECTION('',(1.,4.80740671595891E-17,8.32667268468868E-17));
#869=DIRECTION('',(1.,6.79793085057932E-33,1.11022302462516E-16));
#870=DIRECTION('',(-9.61481343191782E-17,-0.5,0.866025403784439));
#871=DIRECTION('',(1.,-4.80740671595891E-17,8.32667268468867E-17));
#872=DIRECTION('',(1.,0.,0.));
#873=DIRECTION('',(0.,0.,-1.));
#874=DIRECTION('',(-1.,0.,-2.22044604925031E-16));
#875=DIRECTION('',(-2.22044604925031E-16,0.,1.));
#876=DIRECTION('',(1.,0.,0.));
#877=DIRECTION('',(0.,0.,-1.));
#878=DIRECTION('',(-1.,-6.79793085057932E-33,-1.11022302462516E-16));
#879=DIRECTION('',(1.11022302462516E-16,0.,-1.));
#880=DIRECTION('',(1.,0.,0.));
#881=DIRECTION('',(0.,0.,-1.));
#882=DIRECTION('',(-1.,-6.79793085057932E-33,-1.11022302462516E-16));
#883=DIRECTION('',(1.11022302462516E-16,0.,-1.));
#884=DIRECTION('',(1.,0.,0.));
#885=DIRECTION('',(0.,0.,-1.));
#886=DIRECTION('',(-1.,-6.79793085057932E-33,-1.11022302462516E-16));
#887=DIRECTION('',(1.11022302462516E-16,0.,-1.));
#888=DIRECTION('',(1.,0.,0.));
#889=DIRECTION('',(0.,0.,-1.));
#890=DIRECTION('',(-1.,-6.79793085057932E-33,-1.11022302462516E-16));
#891=DIRECTION('',(1.11022302462516E-16,0.,-1.));
#892=DIRECTION('',(1.,0.,0.));
#893=DIRECTION('',(0.,0.,-1.));
#894=DIRECTION('',(-1.,-6.79793085057932E-33,-1.11022302462516E-16));
#895=DIRECTION('',(1.11022302462516E-16,0.,-1.));
#896=DIRECTION('',(1.,0.,0.));
#897=DIRECTION('',(0.,0.,-1.));
#898=DIRECTION('',(-1.,-6.79793085057932E-33,-1.11022302462516E-16));
#899=DIRECTION('',(1.11022302462516E-16,0.,-1.));
#900=DIRECTION('',(1.,0.,6.12303176911189E-17));
#901=DIRECTION('',(0.,1.,0.));
#902=DIRECTION('',(1.,0.,6.12303176911189E-17));
#903=DIRECTION('',(6.12303176911189E-17,0.,-1.));
#904=DIRECTION('',(1.,0.,0.));
#905=DIRECTION('',(0.,1.,-7.54721935012284E-49));
#906=DIRECTION('',(1.,6.79793085057932E-33,2.22044604925031E-16));
#907=DIRECTION('',(-2.22044604925031E-16,0.,1.));
#908=DIRECTION('',(1.,0.,6.12303176911189E-17));
#909=DIRECTION('',(6.12303176911189E-17,0.,-1.));
#910=DIRECTION('',(1.,0.,6.12303176911189E-17));
#911=DIRECTION('',(6.12303176911189E-17,0.,-1.));
#912=DIRECTION('',(1.,0.,0.));
#913=DIRECTION('',(0.,0.,1.));
#914=DIRECTION('',(1.,0.,2.22044604925031E-16));
#915=DIRECTION('',(-2.22044604925031E-16,0.,1.));
#916=DIRECTION('',(-1.,0.,0.));
#917=DIRECTION('',(0.,1.,0.));
#918=DIRECTION('',(1.,0.,2.22044604925031E-16));
#919=DIRECTION('',(-2.22044604925031E-16,0.,1.));
#920=DIRECTION('',(-1.,0.,0.));
#921=DIRECTION('',(0.,0.,1.));
#922=DIRECTION('',(1.,0.,2.22044604925031E-16));
#923=DIRECTION('',(-2.22044604925031E-16,0.,1.));
#924=DIRECTION('',(1.,0.,0.));
#925=DIRECTION('',(0.,0.,1.));
#926=DIRECTION('',(-1.,1.0196896275869E-32,-2.22044604925031E-16));
#927=DIRECTION('',(-2.22044604925031E-16,0.,1.));
#928=DIRECTION('',(-1.,1.0196896275869E-32,-2.22044604925031E-16));
#929=DIRECTION('',(-2.22044604925031E-16,0.,1.));
#930=DIRECTION('',(-1.,1.0196896275869E-32,-2.22044604925031E-16));
#931=DIRECTION('',(-2.22044604925031E-16,0.,1.));
#932=DIRECTION('',(-1.,1.0196896275869E-32,-2.22044604925031E-16));
#933=DIRECTION('',(-2.22044604925031E-16,0.,1.));
#934=DIRECTION('',(-1.,1.0196896275869E-32,-2.22044604925031E-16));
#935=DIRECTION('',(-2.22044604925031E-16,0.,1.));
#936=DIRECTION('',(-1.,1.0196896275869E-32,-2.22044604925031E-16));
#937=DIRECTION('',(-2.22044604925031E-16,0.,1.));
#938=DIRECTION('',(1.,0.,0.));
#939=DIRECTION('',(0.,0.,1.));
#940=DIRECTION('',(1.,0.,2.22044604925031E-16));
#941=DIRECTION('',(-2.22044604925031E-16,0.,1.));
#942=DIRECTION('',(1.,0.,5.55111512312578E-17));
#943=DIRECTION('',(5.55111512312578E-17,0.,-1.));
#944=DIRECTION('',(1.,0.,5.55111512312578E-17));
#945=DIRECTION('',(5.55111512312578E-17,0.,-1.));
#946=DIRECTION('',(1.,0.,5.55111512312578E-17));
#947=DIRECTION('',(5.55111512312578E-17,0.,-1.));
#948=DIRECTION('',(1.,0.,5.55111512312578E-17));
#949=DIRECTION('',(5.55111512312578E-17,0.,-1.));
#950=DIRECTION('',(1.,0.,5.55111512312578E-17));
#951=DIRECTION('',(5.55111512312578E-17,0.,-1.));
#952=DIRECTION('',(1.,0.,5.55111512312578E-17));
#953=DIRECTION('',(5.55111512312578E-17,0.,-1.));
#954=DIRECTION('',(1.,0.,0.));
#955=DIRECTION('',(0.,1.,0.));
#956=DIRECTION('',(1.,0.,1.66533453693774E-16));
#957=DIRECTION('',(-1.66533453693774E-16,0.,1.));
#958=DIRECTION('',(1.,0.,1.66533453693774E-16));
#959=DIRECTION('',(-1.66533453693774E-16,0.,1.));
#960=DIRECTION('',(1.,0.,1.66533453693774E-16));
#961=DIRECTION('',(-1.66533453693774E-16,0.,1.));
#962=DIRECTION('',(1.,0.,1.66533453693774E-16));
#963=DIRECTION('',(-1.66533453693774E-16,0.,1.));
#964=DIRECTION('',(1.,0.,1.66533453693774E-16));
#965=DIRECTION('',(-1.66533453693774E-16,0.,1.));
#966=DIRECTION('',(1.,0.,1.66533453693774E-16));
#967=DIRECTION('',(-1.66533453693774E-16,0.,1.));
#968=DIRECTION('',(1.44222201478767E-16,-0.5,-0.866025403784439));
#969=DIRECTION('',(1.,7.21111007393837E-17,1.2490009027033E-16));
#970=DIRECTION('',(-1.,1.0196896275869E-32,-1.66533453693773E-16));
#971=DIRECTION('',(-1.,1.0196896275869E-32,-1.66533453693773E-16));
#972=DIRECTION('',(0.,-1.,0.));
#973=DIRECTION('',(1.,0.,1.01802375838447E-47));
#974=DIRECTION('',(-1.,1.0196896275869E-32,-1.66533453693773E-16));
#975=DIRECTION('',(-1.44222201478767E-16,-0.5,0.866025403784439));
#976=DIRECTION('',(1.,-7.21111007393837E-17,1.2490009027033E-16));
#977=DIRECTION('',(-1.,1.0196896275869E-32,-1.66533453693773E-16));
#978=DIRECTION('',(-1.44222201478767E-16,0.5,0.866025403784439));
#979=DIRECTION('',(1.,7.21111007393836E-17,1.2490009027033E-16));
#980=DIRECTION('',(-1.,1.0196896275869E-32,-1.66533453693773E-16));
#981=DIRECTION('',(0.,1.,6.12303176911189E-17));
#982=DIRECTION('',(1.,0.,0.));
#983=DIRECTION('',(-1.,1.0196896275869E-32,-1.66533453693773E-16));
#984=DIRECTION('',(1.44222201478767E-16,0.5,-0.866025403784439));
#985=DIRECTION('',(1.,-7.21111007393836E-17,1.2490009027033E-16));
#986=DIRECTION('',(-1.,0.,0.));
#987=DIRECTION('',(0.,0.,1.));
#988=DIRECTION('',(-1.,0.,0.));
#989=DIRECTION('',(0.,0.,1.));
#990=DIRECTION('',(-1.,0.,0.));
#991=DIRECTION('',(0.,0.,1.));
#992=DIRECTION('',(-1.,0.,0.));
#993=DIRECTION('',(0.,0.,1.));
#994=DIRECTION('',(-1.,0.,0.));
#995=DIRECTION('',(0.,0.,1.));
#996=DIRECTION('',(-1.,0.,0.));
#997=DIRECTION('',(0.,0.,1.));
#998=CARTESIAN_POINT('',(0.,0.,0.));
#999=CARTESIAN_POINT('',(0.028702,1.19036182820442E-18,-1.97397653778353E-18));
#1000=CARTESIAN_POINT('',(0.037592,2.03373559312658E-19,-3.94795307556706E-18));
#1001=CARTESIAN_POINT('',(0.037592,2.03373559312658E-19,0.0047625));
#1002=CARTESIAN_POINT('',(0.019812,2.17735009709619E-18,0.));
#1003=CARTESIAN_POINT('',(0.019812,2.17735009709619E-18,0.0047625));
#1004=CARTESIAN_POINT('',(0.037592,-8.85301489235435E-19,0.00238125));
#1005=CARTESIAN_POINT('',(0.037592,0.,6.26158343519178E-34));
#1006=CARTESIAN_POINT('',(0.037592,0.,0.003429));
#1007=CARTESIAN_POINT('',(0.019812,2.64371857738865E-19,-6.15986428531556E-19));
#1008=CARTESIAN_POINT('',(0.019812,1.95674482349743E-35,2.79945012483796E-19));
#1009=CARTESIAN_POINT('',(0.019812,-0.00555625,9.84936633120768E-19));
#1010=CARTESIAN_POINT('',(0.019812,-0.002778125,-0.00481185364977729));
#1011=CARTESIAN_POINT('',(0.019812,1.95674482349743E-35,2.79945012483796E-19));
#1012=CARTESIAN_POINT('',(0.019812,0.002778125,-0.00481185364977729));
#1013=CARTESIAN_POINT('',(0.019812,1.95674482349743E-35,2.79945012483796E-19));
#1014=CARTESIAN_POINT('',(0.019812,0.00555625,1.09839536148156E-19));
#1015=CARTESIAN_POINT('',(0.019812,1.95674482349743E-35,2.79945012483796E-19));
#1016=CARTESIAN_POINT('',(0.019812,0.002778125,0.00481185364977729));
#1017=CARTESIAN_POINT('',(0.019812,1.95674482349743E-35,2.79945012483796E-19));
#1018=CARTESIAN_POINT('',(0.019812,-0.002778125,0.00481185364977729));
#1019=CARTESIAN_POINT('',(0.019812,1.95674482349743E-35,2.79945012483796E-19));
#1020=CARTESIAN_POINT('',(0.028702,0.,-1.97397653778353E-18));
#1021=CARTESIAN_POINT('',(0.019812,0.,-3.94795307556706E-18));
#1022=CARTESIAN_POINT('',(0.019812,0.,0.003429));
#1023=CARTESIAN_POINT('',(0.0196115914916037,-2.22498140352353E-20,2.5769519844856E-19));
#1024=CARTESIAN_POINT('',(0.019812,-0.002778125,-0.00481185364977729));
#1025=CARTESIAN_POINT('',(0.019812,-0.00406745729955458,-0.00406745729955457));
#1026=CARTESIAN_POINT('',(0.0194111829832074,-0.00555625,-0.00320790243318486));
#1027=CARTESIAN_POINT('',(0.0194111829832074,-0.00555625,-0.00320790243318486));
#1028=CARTESIAN_POINT('',(0.0194111829832074,-0.00555625,-0.00320790243318486));
#1029=CARTESIAN_POINT('',(0.019812,-0.00555625000000001,-0.00148879270044543));
#1030=CARTESIAN_POINT('',(0.019812,-0.00555625,1.68992825375774E-18));
#1031=CARTESIAN_POINT('',(0.0196115914916037,-2.22498140352353E-20,2.5769519844856E-19));
#1032=CARTESIAN_POINT('',(0.0194111829832074,-5.30990654103134E-18,-0.00641580486636972));
#1033=CARTESIAN_POINT('',(0.019812,-0.00148879270044543,-0.00555625000000001));
#1034=CARTESIAN_POINT('',(0.019812,-0.002778125,-0.00481185364977729));
#1035=CARTESIAN_POINT('',(0.0194111829832074,-2.28436131433886E-18,-0.00641580486636972));
#1036=CARTESIAN_POINT('',(0.019812,0.002778125,-0.00481185364977729));
#1037=CARTESIAN_POINT('',(0.019812,0.00148879270044542,-0.00555625000000001));
#1038=CARTESIAN_POINT('',(0.0194111829832074,-7.76260090942078E-19,-0.00641580486636972));
#1039=CARTESIAN_POINT('',(0.0196115914916037,-2.22498140352353E-20,2.5769519844856E-19));
#1040=CARTESIAN_POINT('',(0.0194111829832074,0.00555625,-0.00320790243318486));
#1041=CARTESIAN_POINT('',(0.019812,0.00406745729955458,-0.00406745729955457));
#1042=CARTESIAN_POINT('',(0.019812,0.002778125,-0.00481185364977729));
#1043=CARTESIAN_POINT('',(0.0194111829832074,0.00555625,-0.00320790243318486));
#1044=CARTESIAN_POINT('',(0.019812,0.00555625,-6.0265940187484E-20));
#1045=CARTESIAN_POINT('',(0.019812,0.00555625000000001,-0.00148879270044542));
#1046=CARTESIAN_POINT('',(0.0194111829832074,0.00555625,-0.00320790243318485));
#1047=CARTESIAN_POINT('',(0.0196115914916037,-2.22498140352353E-20,2.5769519844856E-19));
#1048=CARTESIAN_POINT('',(0.0194111829832074,0.00555625,0.00320790243318485));
#1049=CARTESIAN_POINT('',(0.019812,0.00555625,0.00148879270044542));
#1050=CARTESIAN_POINT('',(0.019812,0.00555625,-6.0265940187484E-20));
#1051=CARTESIAN_POINT('',(0.0194111829832074,0.00555625,0.00320790243318486));
#1052=CARTESIAN_POINT('',(0.019812,0.002778125,0.00481185364977729));
#1053=CARTESIAN_POINT('',(0.019812,0.00406745729955457,0.00406745729955458));
#1054=CARTESIAN_POINT('',(0.0194111829832074,0.00555625,0.00320790243318486));
#1055=CARTESIAN_POINT('',(0.0196115914916037,-2.22498140352353E-20,2.5769519844856E-19));
#1056=CARTESIAN_POINT('',(0.0194111829832074,1.86836700494332E-18,0.00641580486636972));
#1057=CARTESIAN_POINT('',(0.019812,0.00148879270044542,0.00555625000000001));
#1058=CARTESIAN_POINT('',(0.019812,0.002778125,0.00481185364977729));
#1059=CARTESIAN_POINT('',(0.0194111829832074,3.39939284088926E-19,0.00641580486636972));
#1060=CARTESIAN_POINT('',(0.019812,-0.002778125,0.00481185364977729));
#1061=CARTESIAN_POINT('',(0.019812,-0.00148879270044542,0.00555625000000001));
#1062=CARTESIAN_POINT('',(0.0194111829832074,-7.76260090942078E-19,0.00641580486636972));
#1063=CARTESIAN_POINT('',(0.0196115914916037,-2.22498140352353E-20,2.5769519844856E-19));
#1064=CARTESIAN_POINT('',(0.0194111829832074,-0.00555625,0.00320790243318486));
#1065=CARTESIAN_POINT('',(0.019812,-0.00406745729955458,0.00406745729955457));
#1066=CARTESIAN_POINT('',(0.019812,-0.002778125,0.00481185364977729));
#1067=CARTESIAN_POINT('',(0.0194111829832074,-0.00555625,0.00320790243318486));
#1068=CARTESIAN_POINT('',(0.019812,-0.00555625,1.68992825375774E-18));
#1069=CARTESIAN_POINT('',(0.019812,-0.00555625000000001,0.00148879270044544));
#1070=CARTESIAN_POINT('',(0.0194111829832074,-0.00555625,0.00320790243318486));
#1071=CARTESIAN_POINT('',(0.019812,2.64371857738865E-19,-6.15986428531556E-19));
#1072=CARTESIAN_POINT('',(0.019812,0.,5.07593966858622E-19));
#1073=CARTESIAN_POINT('',(0.019812,0.,-0.001143));
#1074=CARTESIAN_POINT('',(0.01524,-2.50781663212297E-18,-0.00641580486636972));
#1075=CARTESIAN_POINT('',(0.01524,-0.00555625,-0.00320790243318486));
#1076=CARTESIAN_POINT('',(0.0156408170167926,-0.00555625,-0.00320790243318486));
#1077=CARTESIAN_POINT('',(0.0156408170167926,-0.00555625,-0.00320790243318486));
#1078=CARTESIAN_POINT('',(0.01524,-0.00406745729955456,-0.00406745729955458));
#1079=CARTESIAN_POINT('',(0.01524,-0.002778125,-0.00481185364977729));
#1080=CARTESIAN_POINT('',(0.01524,-0.002778125,-0.00481185364977729));
#1081=CARTESIAN_POINT('',(0.01524,-0.002778125,-0.00481185364977729));
#1082=CARTESIAN_POINT('',(0.01524,-0.00148879270044544,-0.00555624999999999));
#1083=CARTESIAN_POINT('',(0.0156408170167926,-1.02007045127008E-17,-0.00641580486636972));
#1084=CARTESIAN_POINT('',(0.0156408170167926,-2.52349246192023E-18,-0.00641580486636972));
#1085=CARTESIAN_POINT('',(0.01524,-2.50781663212297E-18,-0.00641580486636972));
#1086=CARTESIAN_POINT('',(0.01524,-0.00555625,-0.00320790243318486));
#1087=CARTESIAN_POINT('',(0.01524,-0.00555625,0.00320790243318486));
#1088=CARTESIAN_POINT('',(0.0156408170167926,-0.00555625,0.00320790243318486));
#1089=CARTESIAN_POINT('',(0.0156408170167926,-0.00555625,0.00320790243318486));
#1090=CARTESIAN_POINT('',(0.01524,-0.00555625000000001,0.00148879270044543));
#1091=CARTESIAN_POINT('',(0.01524,-0.00555625,1.40998324127395E-18));
#1092=CARTESIAN_POINT('',(0.01524,-0.00555625,7.04991620636975E-19));
#1093=CARTESIAN_POINT('',(0.01524,-0.00555625,1.40998324127395E-18));
#1094=CARTESIAN_POINT('',(0.01524,-0.00555625000000001,-0.00148879270044542));
#1095=CARTESIAN_POINT('',(0.0156408170167926,-0.00555625,-0.00320790243318486));
#1096=CARTESIAN_POINT('',(0.01524,0.00555625,-0.00320790243318486));
#1097=CARTESIAN_POINT('',(0.0156408170167926,3.40023483756694E-18,-0.00641580486636972));
#1098=CARTESIAN_POINT('',(0.01524,0.00148879270044542,-0.00555625));
#1099=CARTESIAN_POINT('',(0.01524,0.002778125,-0.00481185364977729));
#1100=CARTESIAN_POINT('',(0.01524,0.002778125,-0.00481185364977729));
#1101=CARTESIAN_POINT('',(0.01524,0.002778125,-0.00481185364977729));
#1102=CARTESIAN_POINT('',(0.01524,0.00406745729955457,-0.00406745729955458));
#1103=CARTESIAN_POINT('',(0.0156408170167926,0.00555625,-0.00320790243318486));
#1104=CARTESIAN_POINT('',(0.0156408170167926,0.00555625,-0.00320790243318486));
#1105=CARTESIAN_POINT('',(0.01524,0.00555625,-0.00320790243318486));
#1106=CARTESIAN_POINT('',(0.01524,0.00555625,-3.40210952671279E-19));
#1107=CARTESIAN_POINT('',(0.0156408170167926,0.00555625,-0.00320790243318486));
#1108=CARTESIAN_POINT('',(0.01524,0.00555625000000001,-0.00148879270044542));
#1109=CARTESIAN_POINT('',(0.01524,0.00555625,-3.40210952671279E-19));
#1110=CARTESIAN_POINT('',(0.01524,0.00555625,-1.7010547633564E-19));
#1111=CARTESIAN_POINT('',(0.01524,0.00555625,-3.40210952671279E-19));
#1112=CARTESIAN_POINT('',(0.01524,0.00555625,0.00148879270044542));
#1113=CARTESIAN_POINT('',(0.0156408170167926,0.00555625,0.00320790243318486));
#1114=CARTESIAN_POINT('',(0.0156408170167926,0.00555625,0.00320790243318486));
#1115=CARTESIAN_POINT('',(0.01524,0.00555625,0.00320790243318486));
#1116=CARTESIAN_POINT('',(0.01524,1.09783339084902E-18,0.00641580486636972));
#1117=CARTESIAN_POINT('',(0.0156408170167926,0.00555625,0.00320790243318486));
#1118=CARTESIAN_POINT('',(0.01524,0.00406745729955458,0.00406745729955457));
#1119=CARTESIAN_POINT('',(0.01524,0.002778125,0.00481185364977729));
#1120=CARTESIAN_POINT('',(0.01524,0.002778125,0.00481185364977729));
#1121=CARTESIAN_POINT('',(0.01524,0.002778125,0.00481185364977729));
#1122=CARTESIAN_POINT('',(0.01524,0.00148879270044542,0.00555625000000001));
#1123=CARTESIAN_POINT('',(0.0156408170167926,-1.51121548336309E-18,0.00641580486636972));
#1124=CARTESIAN_POINT('',(0.0156408170167926,1.87526329687697E-19,0.00641580486636972));
#1125=CARTESIAN_POINT('',(0.01524,1.09783339084902E-18,0.00641580486636972));
#1126=CARTESIAN_POINT('',(0.01524,-0.00555625,0.00320790243318486));
#1127=CARTESIAN_POINT('',(0.0156408170167926,3.77803870840771E-19,0.00641580486636972));
#1128=CARTESIAN_POINT('',(0.01524,-0.00148879270044542,0.00555625000000001));
#1129=CARTESIAN_POINT('',(0.01524,-0.002778125,0.00481185364977729));
#1130=CARTESIAN_POINT('',(0.01524,-0.002778125,0.00481185364977729));
#1131=CARTESIAN_POINT('',(0.01524,-0.002778125,0.00481185364977729));
#1132=CARTESIAN_POINT('',(0.01524,-0.00406745729955458,0.00406745729955457));
#1133=CARTESIAN_POINT('',(0.0156408170167926,-0.00555625,0.00320790243318485));
#1134=CARTESIAN_POINT('',(0.017526,0.,2.53796983429311E-19));
#1135=CARTESIAN_POINT('',(0.0127,0.,-5.63993296509579E-19));
#1136=CARTESIAN_POINT('',(0.0127,0.,0.001143));
#1137=CARTESIAN_POINT('',(0.0154404085083963,0.,2.22498140352353E-20));
#1138=CARTESIAN_POINT('',(0.01524,0.,-1.95674482349743E-35));
#1139=CARTESIAN_POINT('',(0.0154404085083963,0.,2.22498140352353E-20));
#1140=CARTESIAN_POINT('',(0.01524,0.,-1.95674482349743E-35));
#1141=CARTESIAN_POINT('',(0.0154404085083963,0.,2.22498140352353E-20));
#1142=CARTESIAN_POINT('',(0.01524,0.,-1.95674482349743E-35));
#1143=CARTESIAN_POINT('',(0.0154404085083963,0.,2.22498140352353E-20));
#1144=CARTESIAN_POINT('',(0.01524,0.,-1.95674482349743E-35));
#1145=CARTESIAN_POINT('',(0.0154404085083963,0.,2.22498140352353E-20));
#1146=CARTESIAN_POINT('',(0.01524,0.,-1.95674482349743E-35));
#1147=CARTESIAN_POINT('',(0.0154404085083963,0.,2.22498140352353E-20));
#1148=CARTESIAN_POINT('',(0.01524,0.,-1.95674482349743E-35));
#1149=CARTESIAN_POINT('',(0.0127,0.,7.7762503467721E-19));
#1150=CARTESIAN_POINT('',(0.0127,0.,7.7762503467721E-19));
#1151=CARTESIAN_POINT('',(0.0127,0.,-0.0015875));
#1152=CARTESIAN_POINT('',(0.01524,1.76247905159244E-19,-1.40998324127395E-18));
#1153=CARTESIAN_POINT('',(0.01524,0.,-1.56539585879795E-34));
#1154=CARTESIAN_POINT('',(0.01524,0.,0.00312928));
#1155=CARTESIAN_POINT('',(0.00635,0.,3.88812517338605E-19));
#1156=CARTESIAN_POINT('',(0.,0.,0.));
#1157=CARTESIAN_POINT('',(9.72031293346512E-20,0.,-0.0015875));
#1158=CARTESIAN_POINT('',(0.0144145,0.,-1.83297821365613E-19));
#1159=CARTESIAN_POINT('',(0.013589,0.,-3.66595642731227E-19));
#1160=CARTESIAN_POINT('',(0.013589,0.,0.00312928));
#1161=CARTESIAN_POINT('',(0.,9.33150041612651E-19,0.002794));
#1162=CARTESIAN_POINT('',(0.,0.,-3.38395977905748E-18));
#1163=CARTESIAN_POINT('',(-1.24078525232107E-18,0.,0.005588));
#1164=CARTESIAN_POINT('',(0.013169265,0.,-4.59795534979435E-19));
#1165=CARTESIAN_POINT('',(0.01274953,0.,-5.52995427227643E-19));
#1166=CARTESIAN_POINT('',(0.01274953,0.,0.00396875));
#1167=CARTESIAN_POINT('',(0.007493,0.,-1.72017955435422E-18));
#1168=CARTESIAN_POINT('',(0.003048,0.,-2.70716782324598E-18));
#1169=CARTESIAN_POINT('',(0.003048,0.002794,-0.00483934995634744));
#1170=CARTESIAN_POINT('',(0.003048,-0.002794,-0.00483934995634744));
#1171=CARTESIAN_POINT('',(0.003048,0.,-2.70716782324598E-18));
#1172=CARTESIAN_POINT('',(0.003048,-0.005588,-2.57182500578262E-18));
#1173=CARTESIAN_POINT('',(0.003048,0.,-2.70716782324598E-18));
#1174=CARTESIAN_POINT('',(0.003048,-0.002794,0.00483934995634744));
#1175=CARTESIAN_POINT('',(0.003048,0.,-2.70716782324598E-18));
#1176=CARTESIAN_POINT('',(0.003048,0.002794,0.00483934995634745));
#1177=CARTESIAN_POINT('',(0.003048,0.,-2.70716782324598E-18));
#1178=CARTESIAN_POINT('',(0.003048,0.005588,-2.53091991808673E-18));
#1179=CARTESIAN_POINT('',(0.003048,0.,-2.70716782324598E-18));
#1180=CARTESIAN_POINT('',(0.012343765,0.,-6.43093356345048E-19));
#1181=CARTESIAN_POINT('',(0.011938,0.,-7.33191285462453E-19));
#1182=CARTESIAN_POINT('',(0.011938,0.,0.00396875));
#1183=CARTESIAN_POINT('',(0.00329755001455085,0.,1.38528085974949E-20));
#1184=CARTESIAN_POINT('',(0.003048,-0.005588,-1.40998324127395E-18));
#1185=CARTESIAN_POINT('',(0.003048,-0.00558800000000001,-0.00149730008730511));
#1186=CARTESIAN_POINT('',(0.0035471000291017,-0.005588,-0.00322623330423163));
#1187=CARTESIAN_POINT('',(0.0035471000291017,-0.005588,-0.00322623330423163));
#1188=CARTESIAN_POINT('',(0.0035471000291017,-0.005588,-0.00322623330423163));
#1189=CARTESIAN_POINT('',(0.003048,-0.00409069991269488,-0.00409069991269489));
#1190=CARTESIAN_POINT('',(0.003048,-0.002794,-0.00483934995634744));
#1191=CARTESIAN_POINT('',(0.00329755001455085,0.,1.38528085974949E-20));
#1192=CARTESIAN_POINT('',(0.0035471000291017,-0.005588,0.00322623330423163));
#1193=CARTESIAN_POINT('',(0.003048,-0.00558800000000001,0.00149730008730511));
#1194=CARTESIAN_POINT('',(0.003048,-0.005588,-1.40998324127395E-18));
#1195=CARTESIAN_POINT('',(0.0035471000291017,-0.005588,0.00322623330423162));
#1196=CARTESIAN_POINT('',(0.003048,-0.002794,0.00483934995634744));
#1197=CARTESIAN_POINT('',(0.003048,-0.00409069991269489,0.00409069991269488));
#1198=CARTESIAN_POINT('',(0.0035471000291017,-0.005588,0.00322623330423162));
#1199=CARTESIAN_POINT('',(0.00329755001455085,0.,1.38528085974949E-20));
#1200=CARTESIAN_POINT('',(0.0035471000291017,-2.6446270958854E-18,0.00645246660846326));
#1201=CARTESIAN_POINT('',(0.003048,-0.00149730008730512,0.005588));
#1202=CARTESIAN_POINT('',(0.003048,-0.002794,0.00483934995634744));
#1203=CARTESIAN_POINT('',(0.0035471000291017,-6.69742039605126E-18,0.00645246660846326));
#1204=CARTESIAN_POINT('',(0.003048,0.002794,0.00483934995634744));
#1205=CARTESIAN_POINT('',(0.003048,0.0014973000873051,0.005588));
#1206=CARTESIAN_POINT('',(0.0035471000291017,-6.80046967513389E-18,0.00645246660846326));
#1207=CARTESIAN_POINT('',(0.00329755001455085,0.,1.38528085974949E-20));
#1208=CARTESIAN_POINT('',(0.0035471000291017,0.005588,0.00322623330423162));
#1209=CARTESIAN_POINT('',(0.003048,0.0040906999126949,0.00409069991269488));
#1210=CARTESIAN_POINT('',(0.003048,0.002794,0.00483934995634744));
#1211=CARTESIAN_POINT('',(0.0035471000291017,0.005588,0.00322623330423162));
#1212=CARTESIAN_POINT('',(0.003048,0.005588,-2.35467201292749E-18));
#1213=CARTESIAN_POINT('',(0.003048,0.00558800000000001,0.00149730008730511));
#1214=CARTESIAN_POINT('',(0.0035471000291017,0.005588,0.00322623330423163));
#1215=CARTESIAN_POINT('',(0.00329755001455085,0.,1.38528085974949E-20));
#1216=CARTESIAN_POINT('',(0.003048,0.002794,-0.00483934995634744));
#1217=CARTESIAN_POINT('',(0.003048,0.00409069991269488,-0.00409069991269489));
#1218=CARTESIAN_POINT('',(0.0035471000291017,0.005588,-0.00322623330423163));
#1219=CARTESIAN_POINT('',(0.0035471000291017,0.005588,-0.00322623330423162));
#1220=CARTESIAN_POINT('',(0.0035471000291017,0.005588,-0.00322623330423163));
#1221=CARTESIAN_POINT('',(0.003048,0.005588,-0.00149730008730511));
#1222=CARTESIAN_POINT('',(0.003048,0.005588,-2.35467201292749E-18));
#1223=CARTESIAN_POINT('',(0.00329755001455085,0.,1.38528085974949E-20));
#1224=CARTESIAN_POINT('',(0.0035471000291017,2.26682322504463E-18,-0.00645246660846326));
#1225=CARTESIAN_POINT('',(0.003048,0.00149730008730512,-0.005588));
#1226=CARTESIAN_POINT('',(0.003048,0.002794,-0.00483934995634744));
#1227=CARTESIAN_POINT('',(0.0035471000291017,3.0560053341544E-20,-0.00645246660846326));
#1228=CARTESIAN_POINT('',(0.003048,-0.002794,-0.00483934995634744));
#1229=CARTESIAN_POINT('',(0.003048,-0.00149730008730512,-0.005588));
#1230=CARTESIAN_POINT('',(0.0035471000291017,-2.6446270958854E-18,-0.00645246660846326));
#1231=CARTESIAN_POINT('',(0.011938,2.02182509016074E-19,0.004778375));
#1232=CARTESIAN_POINT('',(0.011938,0.,-1.61431447938538E-34));
#1233=CARTESIAN_POINT('',(0.011938,0.005588,-8.94806747810836E-19));
#1234=CARTESIAN_POINT('',(0.011938,0.002794,0.00483934995634744));
#1235=CARTESIAN_POINT('',(0.011938,0.,-1.61431447938538E-34));
#1236=CARTESIAN_POINT('',(0.011938,-0.002794,0.00483934995634744));
#1237=CARTESIAN_POINT('',(0.011938,0.,-1.61431447938538E-34));
#1238=CARTESIAN_POINT('',(0.011938,-0.005588,-7.04991620636975E-19));
#1239=CARTESIAN_POINT('',(0.011938,0.,-1.61431447938538E-34));
#1240=CARTESIAN_POINT('',(0.011938,-0.002794,-0.00483934995634744));
#1241=CARTESIAN_POINT('',(0.011938,0.,-1.61431447938538E-34));
#1242=CARTESIAN_POINT('',(0.011938,0.002794,-0.00483934995634744));
#1243=CARTESIAN_POINT('',(0.011938,0.,-1.61431447938538E-34));
#1244=CARTESIAN_POINT('',(0.011938,-0.005588,-0.00322623330423163));
#1245=CARTESIAN_POINT('',(0.011938,1.80506982160149E-18,-0.00645246660846326));
#1246=CARTESIAN_POINT('',(0.0114388999708983,3.18170416425258E-18,-0.00645246660846326));
#1247=CARTESIAN_POINT('',(0.0114388999708983,1.36009393502678E-17,-0.00645246660846326));
#1248=CARTESIAN_POINT('',(0.011938,-0.0014973000873051,-0.00558800000000001));
#1249=CARTESIAN_POINT('',(0.011938,-0.002794,-0.00483934995634744));
#1250=CARTESIAN_POINT('',(0.011938,-0.002794,-0.00483934995634744));
#1251=CARTESIAN_POINT('',(0.011938,-0.0040906999126949,-0.00409069991269487));
#1252=CARTESIAN_POINT('',(0.0114388999708983,-0.005588,-0.00322623330423162));
#1253=CARTESIAN_POINT('',(0.0114388999708983,-0.005588,-0.00322623330423162));
#1254=CARTESIAN_POINT('',(0.011938,-0.005588,-0.00322623330423163));
#1255=CARTESIAN_POINT('',(0.011938,-0.005588,0.00322623330423163));
#1256=CARTESIAN_POINT('',(0.0114388999708983,-0.005588,-0.00322623330423163));
#1257=CARTESIAN_POINT('',(0.011938,-0.005588,-0.00149730008730512));
#1258=CARTESIAN_POINT('',(0.011938,-0.005588,-1.40998324127395E-18));
#1259=CARTESIAN_POINT('',(0.011938,-0.005588,-1.40998324127395E-18));
#1260=CARTESIAN_POINT('',(0.011938,-0.00558800000000001,0.00149730008730511));
#1261=CARTESIAN_POINT('',(0.0114388999708983,-0.005588,0.00322623330423163));
#1262=CARTESIAN_POINT('',(0.0114388999708983,-0.005588,0.00322623330423163));
#1263=CARTESIAN_POINT('',(0.011938,-0.005588,0.00322623330423163));
#1264=CARTESIAN_POINT('',(0.011938,-2.51006144223846E-18,0.00645246660846326));
#1265=CARTESIAN_POINT('',(0.0114388999708983,-0.005588,0.00322623330423163));
#1266=CARTESIAN_POINT('',(0.011938,-0.00409069991269489,0.00409069991269489));
#1267=CARTESIAN_POINT('',(0.011938,-0.002794,0.00483934995634744));
#1268=CARTESIAN_POINT('',(0.011938,-0.002794,0.00483934995634744));
#1269=CARTESIAN_POINT('',(0.011938,-0.00149730008730512,0.005588));
#1270=CARTESIAN_POINT('',(0.0114388999708983,-2.6446270958854E-18,0.00645246660846326));
#1271=CARTESIAN_POINT('',(0.0114388999708983,-1.09112884436719E-18,0.00645246660846326));
#1272=CARTESIAN_POINT('',(0.011938,-2.51006144223846E-18,0.00645246660846326));
#1273=CARTESIAN_POINT('',(0.011938,0.005588,0.00322623330423163));
#1274=CARTESIAN_POINT('',(0.0114388999708983,0.,0.00645246660846326));
#1275=CARTESIAN_POINT('',(0.011938,0.00149730008730512,0.005588));
#1276=CARTESIAN_POINT('',(0.011938,0.002794,0.00483934995634744));
#1277=CARTESIAN_POINT('',(0.011938,0.002794,0.00483934995634744));
#1278=CARTESIAN_POINT('',(0.011938,0.00409069991269488,0.00409069991269489));
#1279=CARTESIAN_POINT('',(0.0114388999708983,0.005588,0.00322623330423163));
#1280=CARTESIAN_POINT('',(0.0114388999708983,0.005588,0.00322623330423163));
#1281=CARTESIAN_POINT('',(0.011938,0.005588,0.00322623330423163));
#1282=CARTESIAN_POINT('',(0.011938,0.005588,3.42155015257972E-19));
#1283=CARTESIAN_POINT('',(0.0114388999708983,0.005588,0.00322623330423163));
#1284=CARTESIAN_POINT('',(0.011938,0.005588,0.00149730008730511));
#1285=CARTESIAN_POINT('',(0.011938,0.005588,3.42155015257972E-19));
#1286=CARTESIAN_POINT('',(0.011938,0.005588,3.42155015257972E-19));
#1287=CARTESIAN_POINT('',(0.011938,0.005588,-0.00149730008730511));
#1288=CARTESIAN_POINT('',(0.0114388999708983,0.005588,-0.00322623330423163));
#1289=CARTESIAN_POINT('',(0.0114388999708983,0.005588,-0.00322623330423163));
#1290=CARTESIAN_POINT('',(0.011938,0.005588,-0.00322623330423163));
#1291=CARTESIAN_POINT('',(0.011938,1.80506982160149E-18,-0.00645246660846326));
#1292=CARTESIAN_POINT('',(0.0114388999708983,0.005588,-0.00322623330423163));
#1293=CARTESIAN_POINT('',(0.011938,0.00409069991269488,-0.00409069991269489));
#1294=CARTESIAN_POINT('',(0.011938,0.002794,-0.00483934995634744));
#1295=CARTESIAN_POINT('',(0.011938,0.002794,-0.00483934995634744));
#1296=CARTESIAN_POINT('',(0.011938,0.00149730008730512,-0.005588));
#1297=CARTESIAN_POINT('',(0.0114388999708983,-1.88901935420386E-18,-0.00645246660846326));
#1298=CARTESIAN_POINT('',(0.0116884499854491,0.,-4.15584257924848E-20));
#1299=CARTESIAN_POINT('',(0.0116884499854491,0.,-4.15584257924848E-20));
#1300=CARTESIAN_POINT('',(0.0116884499854491,0.,-4.15584257924848E-20));
#1301=CARTESIAN_POINT('',(0.0116884499854491,0.,-4.15584257924848E-20));
#1302=CARTESIAN_POINT('',(0.0116884499854491,0.,-4.15584257924848E-20));
#1303=CARTESIAN_POINT('',(0.0116884499854491,0.,-4.15584257924848E-20));
#1304=MECHANICAL_DESIGN_GEOMETRIC_PRESENTATION_REPRESENTATION('',(#708),
#1305);
#1305=(
GEOMETRIC_REPRESENTATION_CONTEXT(3)
GLOBAL_UNCERTAINTY_ASSIGNED_CONTEXT((#1306))
GLOBAL_UNIT_ASSIGNED_CONTEXT((#1309,#1308,#1307))
REPRESENTATION_CONTEXT('SS-200-R-6BT','TOP_LEVEL_ASSEMBLY_PART')
);
#1306=UNCERTAINTY_MEASURE_WITH_UNIT(LENGTH_MEASURE(1.E-6),#1309,
'DISTANCE_ACCURACY_VALUE','Maximum Tolerance applied to model');
#1307=(
NAMED_UNIT(*)
SI_UNIT($,.STERADIAN.)
SOLID_ANGLE_UNIT()
);
#1308=(
NAMED_UNIT(*)
PLANE_ANGLE_UNIT()
SI_UNIT($,.RADIAN.)
);
#1309=(
LENGTH_UNIT()
NAMED_UNIT(*)
SI_UNIT($,.METRE.)
);
#1310=PRODUCT_DEFINITION_SHAPE('','',#1311);
#1311=PRODUCT_DEFINITION('','',#1313,#1312);
#1312=PRODUCT_DEFINITION_CONTEXT('',#1319,'design');
#1313=PRODUCT_DEFINITION_FORMATION_WITH_SPECIFIED_SOURCE('','',#1315,
 .NOT_KNOWN.);
#1314=PRODUCT_RELATED_PRODUCT_CATEGORY('','',(#1315));
#1315=PRODUCT('SS-200-R-6BT','SS-200-R-6BT','SS-200-R-6BT',(#1317));
#1316=PRODUCT_CATEGORY('','');
#1317=PRODUCT_CONTEXT('',#1319,'mechanical');
#1318=APPLICATION_PROTOCOL_DEFINITION('international standard',
'ap242_managed_model_based_3d_engineering',2020,#1319);
#1319=APPLICATION_CONTEXT('managed model based 3d engineering');
ENDSEC;
END-ISO-10303-21;
