ISO-10303-21;
HEADER;
/* Generated by software containing ST-Developer
 * from STEP Tools, Inc. (www.steptools.com) 
 */
/* OPTION: using custom renumber hook */

FILE_DESCRIPTION(
/* description */ ('STEP AP242 Edition 2',
'CAx-IF Rec.Pracs.---Representation and Presentation of Product Manufa
cturing Information (PMI)---4.0---2014-10-13',
'CAx-IF Rec.Pracs.---3D Tessellated Geometry---0.4---2014-09-14','2;1',
'CAx-IF Rec.Pracs.---User Defined Attributes---1.5---2016-08-15'),
/* implementation_level */ '2;1');

FILE_NAME(
/* name */ 'NP-Crucible Assembly - F0275X037N C276 Flange',
/* time_stamp */ '2026-07-15T12:54:19Z',
/* author */ (''),
/* organization */ (''),
/* preprocessor_version */ 'ST-DEVELOPER v20',
/* originating_system */ 'ONSHAPE BY PTC INC, 1.217',
/* authorisation */ '  ');

FILE_SCHEMA (('AP242_MANAGED_MODEL_BASED_3D_ENGINEERING_MIM_LF { 1 0 10303 442 3 1 4 }'));
ENDSEC;

DATA;
#10=SHAPE_REPRESENTATION_RELATIONSHIP('','',#514,#11);
#11=ADVANCED_BREP_SHAPE_REPRESENTATION('',(#512),#917);
#12=LINE('',#861,#16);
#13=LINE('',#869,#17);
#14=LINE('',#879,#18);
#15=LINE('',#900,#19);
#16=VECTOR('',#711,1.);
#17=VECTOR('',#712,1.);
#18=VECTOR('',#727,1.);
#19=VECTOR('',#742,1.);
#20=B_SPLINE_CURVE_WITH_KNOTS('',3,(#845,#846,#847,#848),.UNSPECIFIED.,
 .F.,.F.,(4,4),(2.77691248356771E-18,0.000983726579535543),
 .UNSPECIFIED.);
#21=B_SPLINE_CURVE_WITH_KNOTS('',3,(#851,#852,#853,#854),.UNSPECIFIED.,
 .F.,.F.,(4,4),(0.,0.00231834086426589),.UNSPECIFIED.);
#22=B_SPLINE_CURVE_WITH_KNOTS('',3,(#856,#857,#858,#859),.UNSPECIFIED.,
 .F.,.F.,(4,4),(0.,0.000983726626945025),.UNSPECIFIED.);
#23=B_SPLINE_CURVE_WITH_KNOTS('',3,(#863,#864,#865,#866,#867),
 .UNSPECIFIED.,.F.,.F.,(4,1,4),(0.,0.00198590864101808,0.00397181728203616),
 .UNSPECIFIED.);
#24=B_SPLINE_CURVE_WITH_KNOTS('',3,(#885,#886,#887,#888),.UNSPECIFIED.,
 .F.,.F.,(4,4),(2.63378572839031E-17,0.000983726654325165),
 .UNSPECIFIED.);
#25=B_SPLINE_CURVE_WITH_KNOTS('',3,(#892,#893,#894,#895,#896),
 .UNSPECIFIED.,.F.,.F.,(4,1,4),(3.99834005196946E-18,0.00198590864101808,
0.00397181728203615),.UNSPECIFIED.);
#26=B_SPLINE_CURVE_WITH_KNOTS('',3,(#906,#907,#908,#909),.UNSPECIFIED.,
 .F.,.F.,(4,4),(2.4532694666934E-18,0.000983726654325144),.UNSPECIFIED.);
#27=B_SPLINE_CURVE_WITH_KNOTS('',3,(#911,#912,#913,#914),.UNSPECIFIED.,
 .F.,.F.,(4,4),(3.78695538395053E-18,0.00231834083042092),.UNSPECIFIED.);
#28=CYLINDRICAL_SURFACE('',#531,0.0033655);
#29=CYLINDRICAL_SURFACE('',#538,0.0033655);
#30=CYLINDRICAL_SURFACE('',#545,0.0033655);
#31=CYLINDRICAL_SURFACE('',#552,0.0033655);
#32=CYLINDRICAL_SURFACE('',#559,0.0033655);
#33=CYLINDRICAL_SURFACE('',#566,0.0033655);
#34=CYLINDRICAL_SURFACE('',#573,0.00238125);
#35=CYLINDRICAL_SURFACE('',#577,0.0032385);
#36=CYLINDRICAL_SURFACE('',#579,0.034544);
#37=CYLINDRICAL_SURFACE('',#585,0.02413);
#38=CYLINDRICAL_SURFACE('',#591,0.00238125);
#39=CYLINDRICAL_SURFACE('',#592,0.034544);
#40=TOROIDAL_SURFACE('',#523,0.034798,0.000508);
#41=TOROIDAL_SURFACE('',#529,0.0034925,0.000254);
#42=TOROIDAL_SURFACE('',#574,0.0034417,0.0002032);
#43=PLANE('',#519);
#44=PLANE('',#578);
#45=PLANE('',#580);
#46=PLANE('',#587);
#47=ORIENTED_EDGE('',*,*,#153,.T.);
#48=ORIENTED_EDGE('',*,*,#154,.F.);
#49=ORIENTED_EDGE('',*,*,#155,.T.);
#50=ORIENTED_EDGE('',*,*,#156,.T.);
#51=ORIENTED_EDGE('',*,*,#154,.T.);
#52=ORIENTED_EDGE('',*,*,#155,.F.);
#53=ORIENTED_EDGE('',*,*,#157,.T.);
#54=ORIENTED_EDGE('',*,*,#158,.T.);
#55=ORIENTED_EDGE('',*,*,#159,.F.);
#56=ORIENTED_EDGE('',*,*,#160,.T.);
#57=ORIENTED_EDGE('',*,*,#161,.T.);
#58=ORIENTED_EDGE('',*,*,#156,.F.);
#59=ORIENTED_EDGE('',*,*,#162,.F.);
#60=ORIENTED_EDGE('',*,*,#163,.T.);
#61=ORIENTED_EDGE('',*,*,#163,.F.);
#62=ORIENTED_EDGE('',*,*,#164,.T.);
#63=ORIENTED_EDGE('',*,*,#165,.F.);
#64=ORIENTED_EDGE('',*,*,#162,.T.);
#65=ORIENTED_EDGE('',*,*,#166,.F.);
#66=ORIENTED_EDGE('',*,*,#167,.T.);
#67=ORIENTED_EDGE('',*,*,#167,.F.);
#68=ORIENTED_EDGE('',*,*,#168,.T.);
#69=ORIENTED_EDGE('',*,*,#169,.F.);
#70=ORIENTED_EDGE('',*,*,#166,.T.);
#71=ORIENTED_EDGE('',*,*,#170,.F.);
#72=ORIENTED_EDGE('',*,*,#171,.T.);
#73=ORIENTED_EDGE('',*,*,#171,.F.);
#74=ORIENTED_EDGE('',*,*,#172,.T.);
#75=ORIENTED_EDGE('',*,*,#173,.F.);
#76=ORIENTED_EDGE('',*,*,#170,.T.);
#77=ORIENTED_EDGE('',*,*,#174,.F.);
#78=ORIENTED_EDGE('',*,*,#175,.T.);
#79=ORIENTED_EDGE('',*,*,#175,.F.);
#80=ORIENTED_EDGE('',*,*,#176,.T.);
#81=ORIENTED_EDGE('',*,*,#177,.F.);
#82=ORIENTED_EDGE('',*,*,#174,.T.);
#83=ORIENTED_EDGE('',*,*,#178,.F.);
#84=ORIENTED_EDGE('',*,*,#179,.T.);
#85=ORIENTED_EDGE('',*,*,#179,.F.);
#86=ORIENTED_EDGE('',*,*,#180,.T.);
#87=ORIENTED_EDGE('',*,*,#181,.F.);
#88=ORIENTED_EDGE('',*,*,#178,.T.);
#89=ORIENTED_EDGE('',*,*,#182,.F.);
#90=ORIENTED_EDGE('',*,*,#183,.T.);
#91=ORIENTED_EDGE('',*,*,#183,.F.);
#92=ORIENTED_EDGE('',*,*,#184,.T.);
#93=ORIENTED_EDGE('',*,*,#185,.F.);
#94=ORIENTED_EDGE('',*,*,#182,.T.);
#95=ORIENTED_EDGE('',*,*,#186,.T.);
#96=ORIENTED_EDGE('',*,*,#187,.T.);
#97=ORIENTED_EDGE('',*,*,#188,.T.);
#98=ORIENTED_EDGE('',*,*,#189,.T.);
#99=ORIENTED_EDGE('',*,*,#190,.F.);
#100=ORIENTED_EDGE('',*,*,#191,.F.);
#101=ORIENTED_EDGE('',*,*,#192,.F.);
#102=ORIENTED_EDGE('',*,*,#193,.T.);
#103=ORIENTED_EDGE('',*,*,#161,.F.);
#104=ORIENTED_EDGE('',*,*,#192,.T.);
#105=ORIENTED_EDGE('',*,*,#159,.T.);
#106=ORIENTED_EDGE('',*,*,#164,.F.);
#107=ORIENTED_EDGE('',*,*,#168,.F.);
#108=ORIENTED_EDGE('',*,*,#172,.F.);
#109=ORIENTED_EDGE('',*,*,#176,.F.);
#110=ORIENTED_EDGE('',*,*,#180,.F.);
#111=ORIENTED_EDGE('',*,*,#184,.F.);
#112=ORIENTED_EDGE('',*,*,#193,.F.);
#113=ORIENTED_EDGE('',*,*,#158,.F.);
#114=ORIENTED_EDGE('',*,*,#160,.F.);
#115=ORIENTED_EDGE('',*,*,#194,.F.);
#116=ORIENTED_EDGE('',*,*,#195,.F.);
#117=ORIENTED_EDGE('',*,*,#191,.T.);
#118=ORIENTED_EDGE('',*,*,#196,.F.);
#119=ORIENTED_EDGE('',*,*,#173,.T.);
#120=ORIENTED_EDGE('',*,*,#169,.T.);
#121=ORIENTED_EDGE('',*,*,#165,.T.);
#122=ORIENTED_EDGE('',*,*,#195,.T.);
#123=ORIENTED_EDGE('',*,*,#197,.T.);
#124=ORIENTED_EDGE('',*,*,#198,.F.);
#125=ORIENTED_EDGE('',*,*,#186,.F.);
#126=ORIENTED_EDGE('',*,*,#199,.F.);
#127=ORIENTED_EDGE('',*,*,#196,.T.);
#128=ORIENTED_EDGE('',*,*,#190,.T.);
#129=ORIENTED_EDGE('',*,*,#200,.T.);
#130=ORIENTED_EDGE('',*,*,#153,.F.);
#131=ORIENTED_EDGE('',*,*,#201,.T.);
#132=ORIENTED_EDGE('',*,*,#200,.F.);
#133=ORIENTED_EDGE('',*,*,#189,.F.);
#134=ORIENTED_EDGE('',*,*,#202,.F.);
#135=ORIENTED_EDGE('',*,*,#185,.T.);
#136=ORIENTED_EDGE('',*,*,#181,.T.);
#137=ORIENTED_EDGE('',*,*,#177,.T.);
#138=ORIENTED_EDGE('',*,*,#203,.F.);
#139=ORIENTED_EDGE('',*,*,#204,.T.);
#140=ORIENTED_EDGE('',*,*,#202,.T.);
#141=ORIENTED_EDGE('',*,*,#188,.F.);
#142=ORIENTED_EDGE('',*,*,#194,.T.);
#143=ORIENTED_EDGE('',*,*,#199,.T.);
#144=ORIENTED_EDGE('',*,*,#201,.F.);
#145=ORIENTED_EDGE('',*,*,#204,.F.);
#146=ORIENTED_EDGE('',*,*,#205,.F.);
#147=ORIENTED_EDGE('',*,*,#197,.F.);
#148=ORIENTED_EDGE('',*,*,#198,.T.);
#149=ORIENTED_EDGE('',*,*,#205,.T.);
#150=ORIENTED_EDGE('',*,*,#203,.T.);
#151=ORIENTED_EDGE('',*,*,#187,.F.);
#152=ORIENTED_EDGE('',*,*,#157,.F.);
#153=EDGE_CURVE('',#206,#206,#253,.T.);
#154=EDGE_CURVE('',#207,#207,#254,.T.);
#155=EDGE_CURVE('',#208,#208,#255,.T.);
#156=EDGE_CURVE('',#209,#209,#256,.T.);
#157=EDGE_CURVE('',#210,#210,#257,.T.);
#158=EDGE_CURVE('',#211,#211,#258,.T.);
#159=EDGE_CURVE('',#212,#212,#259,.T.);
#160=EDGE_CURVE('',#213,#213,#260,.T.);
#161=EDGE_CURVE('',#214,#214,#261,.T.);
#162=EDGE_CURVE('',#215,#215,#262,.T.);
#163=EDGE_CURVE('',#216,#216,#263,.T.);
#164=EDGE_CURVE('',#217,#217,#264,.T.);
#165=EDGE_CURVE('',#218,#218,#265,.T.);
#166=EDGE_CURVE('',#219,#219,#266,.T.);
#167=EDGE_CURVE('',#220,#220,#267,.T.);
#168=EDGE_CURVE('',#221,#221,#268,.T.);
#169=EDGE_CURVE('',#222,#222,#269,.T.);
#170=EDGE_CURVE('',#223,#223,#270,.T.);
#171=EDGE_CURVE('',#224,#224,#271,.T.);
#172=EDGE_CURVE('',#225,#225,#272,.T.);
#173=EDGE_CURVE('',#226,#226,#273,.T.);
#174=EDGE_CURVE('',#227,#227,#274,.T.);
#175=EDGE_CURVE('',#228,#228,#275,.T.);
#176=EDGE_CURVE('',#229,#229,#276,.T.);
#177=EDGE_CURVE('',#230,#230,#277,.T.);
#178=EDGE_CURVE('',#231,#231,#278,.T.);
#179=EDGE_CURVE('',#232,#232,#279,.T.);
#180=EDGE_CURVE('',#233,#233,#280,.T.);
#181=EDGE_CURVE('',#234,#234,#281,.T.);
#182=EDGE_CURVE('',#235,#235,#282,.T.);
#183=EDGE_CURVE('',#236,#236,#283,.T.);
#184=EDGE_CURVE('',#237,#237,#284,.T.);
#185=EDGE_CURVE('',#238,#238,#285,.T.);
#186=EDGE_CURVE('',#239,#240,#20,.T.);
#187=EDGE_CURVE('',#240,#241,#21,.T.);
#188=EDGE_CURVE('',#241,#242,#22,.T.);
#189=EDGE_CURVE('',#242,#243,#12,.T.);
#190=EDGE_CURVE('',#244,#243,#23,.T.);
#191=EDGE_CURVE('',#239,#244,#13,.T.);
#192=EDGE_CURVE('',#245,#245,#286,.T.);
#193=EDGE_CURVE('',#246,#246,#287,.T.);
#194=EDGE_CURVE('',#247,#248,#14,.T.);
#195=EDGE_CURVE('',#239,#247,#288,.T.);
#196=EDGE_CURVE('',#248,#244,#289,.T.);
#197=EDGE_CURVE('',#247,#249,#24,.T.);
#198=EDGE_CURVE('',#240,#249,#290,.T.);
#199=EDGE_CURVE('',#248,#250,#25,.T.);
#200=EDGE_CURVE('',#243,#250,#291,.T.);
#201=EDGE_CURVE('',#251,#250,#15,.T.);
#202=EDGE_CURVE('',#251,#242,#292,.T.);
#203=EDGE_CURVE('',#252,#241,#293,.T.);
#204=EDGE_CURVE('',#252,#251,#26,.T.);
#205=EDGE_CURVE('',#249,#252,#27,.T.);
#206=VERTEX_POINT('',#756);
#207=VERTEX_POINT('',#758);
#208=VERTEX_POINT('',#761);
#209=VERTEX_POINT('',#763);
#210=VERTEX_POINT('',#767);
#211=VERTEX_POINT('',#769);
#212=VERTEX_POINT('',#772);
#213=VERTEX_POINT('',#774);
#214=VERTEX_POINT('',#777);
#215=VERTEX_POINT('',#780);
#216=VERTEX_POINT('',#782);
#217=VERTEX_POINT('',#785);
#218=VERTEX_POINT('',#788);
#219=VERTEX_POINT('',#791);
#220=VERTEX_POINT('',#793);
#221=VERTEX_POINT('',#796);
#222=VERTEX_POINT('',#799);
#223=VERTEX_POINT('',#802);
#224=VERTEX_POINT('',#804);
#225=VERTEX_POINT('',#807);
#226=VERTEX_POINT('',#810);
#227=VERTEX_POINT('',#813);
#228=VERTEX_POINT('',#815);
#229=VERTEX_POINT('',#818);
#230=VERTEX_POINT('',#821);
#231=VERTEX_POINT('',#824);
#232=VERTEX_POINT('',#826);
#233=VERTEX_POINT('',#829);
#234=VERTEX_POINT('',#832);
#235=VERTEX_POINT('',#835);
#236=VERTEX_POINT('',#837);
#237=VERTEX_POINT('',#840);
#238=VERTEX_POINT('',#843);
#239=VERTEX_POINT('',#849);
#240=VERTEX_POINT('',#850);
#241=VERTEX_POINT('',#855);
#242=VERTEX_POINT('',#860);
#243=VERTEX_POINT('',#862);
#244=VERTEX_POINT('',#868);
#245=VERTEX_POINT('',#872);
#246=VERTEX_POINT('',#874);
#247=VERTEX_POINT('',#880);
#248=VERTEX_POINT('',#881);
#249=VERTEX_POINT('',#889);
#250=VERTEX_POINT('',#897);
#251=VERTEX_POINT('',#901);
#252=VERTEX_POINT('',#905);
#253=CIRCLE('',#517,0.02413);
#254=CIRCLE('',#518,0.020955);
#255=CIRCLE('',#520,0.0207701031209928);
#256=CIRCLE('',#521,0.0034925);
#257=CIRCLE('',#524,0.034544);
#258=CIRCLE('',#525,0.034544);
#259=CIRCLE('',#527,0.034036);
#260=CIRCLE('',#528,0.034544);
#261=CIRCLE('',#530,0.0032385);
#262=CIRCLE('',#532,0.0033655);
#263=CIRCLE('',#533,0.0033655);
#264=CIRCLE('',#535,0.0038735);
#265=CIRCLE('',#537,0.0038735);
#266=CIRCLE('',#539,0.0033655);
#267=CIRCLE('',#540,0.0033655);
#268=CIRCLE('',#542,0.0038735);
#269=CIRCLE('',#544,0.0038735);
#270=CIRCLE('',#546,0.0033655);
#271=CIRCLE('',#547,0.0033655);
#272=CIRCLE('',#549,0.0038735);
#273=CIRCLE('',#551,0.0038735);
#274=CIRCLE('',#553,0.0033655);
#275=CIRCLE('',#554,0.0033655);
#276=CIRCLE('',#556,0.0038735);
#277=CIRCLE('',#558,0.0038735);
#278=CIRCLE('',#560,0.0033655);
#279=CIRCLE('',#561,0.0033655);
#280=CIRCLE('',#563,0.0038735);
#281=CIRCLE('',#565,0.0038735);
#282=CIRCLE('',#567,0.0033655);
#283=CIRCLE('',#568,0.0033655);
#284=CIRCLE('',#570,0.0038735);
#285=CIRCLE('',#572,0.0038735);
#286=CIRCLE('',#575,0.0032385);
#287=CIRCLE('',#576,0.0034417);
#288=CIRCLE('',#581,0.034036);
#289=CIRCLE('',#582,0.02413);
#290=CIRCLE('',#584,0.034544);
#291=CIRCLE('',#586,0.02413);
#292=CIRCLE('',#588,0.034036);
#293=CIRCLE('',#590,0.034544);
#294=EDGE_LOOP('',(#47));
#295=EDGE_LOOP('',(#48));
#296=EDGE_LOOP('',(#49));
#297=EDGE_LOOP('',(#50));
#298=EDGE_LOOP('',(#51));
#299=EDGE_LOOP('',(#52));
#300=EDGE_LOOP('',(#53));
#301=EDGE_LOOP('',(#54));
#302=EDGE_LOOP('',(#55));
#303=EDGE_LOOP('',(#56));
#304=EDGE_LOOP('',(#57));
#305=EDGE_LOOP('',(#58));
#306=EDGE_LOOP('',(#59));
#307=EDGE_LOOP('',(#60));
#308=EDGE_LOOP('',(#61));
#309=EDGE_LOOP('',(#62));
#310=EDGE_LOOP('',(#63));
#311=EDGE_LOOP('',(#64));
#312=EDGE_LOOP('',(#65));
#313=EDGE_LOOP('',(#66));
#314=EDGE_LOOP('',(#67));
#315=EDGE_LOOP('',(#68));
#316=EDGE_LOOP('',(#69));
#317=EDGE_LOOP('',(#70));
#318=EDGE_LOOP('',(#71));
#319=EDGE_LOOP('',(#72));
#320=EDGE_LOOP('',(#73));
#321=EDGE_LOOP('',(#74));
#322=EDGE_LOOP('',(#75));
#323=EDGE_LOOP('',(#76));
#324=EDGE_LOOP('',(#77));
#325=EDGE_LOOP('',(#78));
#326=EDGE_LOOP('',(#79));
#327=EDGE_LOOP('',(#80));
#328=EDGE_LOOP('',(#81));
#329=EDGE_LOOP('',(#82));
#330=EDGE_LOOP('',(#83));
#331=EDGE_LOOP('',(#84));
#332=EDGE_LOOP('',(#85));
#333=EDGE_LOOP('',(#86));
#334=EDGE_LOOP('',(#87));
#335=EDGE_LOOP('',(#88));
#336=EDGE_LOOP('',(#89));
#337=EDGE_LOOP('',(#90));
#338=EDGE_LOOP('',(#91));
#339=EDGE_LOOP('',(#92));
#340=EDGE_LOOP('',(#93));
#341=EDGE_LOOP('',(#94));
#342=EDGE_LOOP('',(#95,#96,#97,#98,#99,#100));
#343=EDGE_LOOP('',(#101));
#344=EDGE_LOOP('',(#102));
#345=EDGE_LOOP('',(#103));
#346=EDGE_LOOP('',(#104));
#347=EDGE_LOOP('',(#105));
#348=EDGE_LOOP('',(#106));
#349=EDGE_LOOP('',(#107));
#350=EDGE_LOOP('',(#108));
#351=EDGE_LOOP('',(#109));
#352=EDGE_LOOP('',(#110));
#353=EDGE_LOOP('',(#111));
#354=EDGE_LOOP('',(#112));
#355=EDGE_LOOP('',(#113));
#356=EDGE_LOOP('',(#114));
#357=EDGE_LOOP('',(#115,#116,#117,#118));
#358=EDGE_LOOP('',(#119));
#359=EDGE_LOOP('',(#120));
#360=EDGE_LOOP('',(#121));
#361=EDGE_LOOP('',(#122,#123,#124,#125));
#362=EDGE_LOOP('',(#126,#127,#128,#129));
#363=EDGE_LOOP('',(#130));
#364=EDGE_LOOP('',(#131,#132,#133,#134));
#365=EDGE_LOOP('',(#135));
#366=EDGE_LOOP('',(#136));
#367=EDGE_LOOP('',(#137));
#368=EDGE_LOOP('',(#138,#139,#140,#141));
#369=EDGE_LOOP('',(#142,#143,#144,#145,#146,#147));
#370=EDGE_LOOP('',(#148,#149,#150,#151));
#371=EDGE_LOOP('',(#152));
#372=FACE_BOUND('',#294,.T.);
#373=FACE_BOUND('',#295,.T.);
#374=FACE_BOUND('',#296,.T.);
#375=FACE_BOUND('',#297,.T.);
#376=FACE_BOUND('',#298,.T.);
#377=FACE_BOUND('',#299,.T.);
#378=FACE_BOUND('',#300,.T.);
#379=FACE_BOUND('',#301,.T.);
#380=FACE_BOUND('',#302,.T.);
#381=FACE_BOUND('',#303,.T.);
#382=FACE_BOUND('',#304,.T.);
#383=FACE_BOUND('',#305,.T.);
#384=FACE_BOUND('',#306,.T.);
#385=FACE_BOUND('',#307,.T.);
#386=FACE_BOUND('',#308,.T.);
#387=FACE_BOUND('',#309,.T.);
#388=FACE_BOUND('',#310,.T.);
#389=FACE_BOUND('',#311,.T.);
#390=FACE_BOUND('',#312,.T.);
#391=FACE_BOUND('',#313,.T.);
#392=FACE_BOUND('',#314,.T.);
#393=FACE_BOUND('',#315,.T.);
#394=FACE_BOUND('',#316,.T.);
#395=FACE_BOUND('',#317,.T.);
#396=FACE_BOUND('',#318,.T.);
#397=FACE_BOUND('',#319,.T.);
#398=FACE_BOUND('',#320,.T.);
#399=FACE_BOUND('',#321,.T.);
#400=FACE_BOUND('',#322,.T.);
#401=FACE_BOUND('',#323,.T.);
#402=FACE_BOUND('',#324,.T.);
#403=FACE_BOUND('',#325,.T.);
#404=FACE_BOUND('',#326,.T.);
#405=FACE_BOUND('',#327,.T.);
#406=FACE_BOUND('',#328,.T.);
#407=FACE_BOUND('',#329,.T.);
#408=FACE_BOUND('',#330,.T.);
#409=FACE_BOUND('',#331,.T.);
#410=FACE_BOUND('',#332,.T.);
#411=FACE_BOUND('',#333,.T.);
#412=FACE_BOUND('',#334,.T.);
#413=FACE_BOUND('',#335,.T.);
#414=FACE_BOUND('',#336,.T.);
#415=FACE_BOUND('',#337,.T.);
#416=FACE_BOUND('',#338,.T.);
#417=FACE_BOUND('',#339,.T.);
#418=FACE_BOUND('',#340,.T.);
#419=FACE_BOUND('',#341,.T.);
#420=FACE_BOUND('',#342,.T.);
#421=FACE_BOUND('',#343,.T.);
#422=FACE_BOUND('',#344,.T.);
#423=FACE_BOUND('',#345,.T.);
#424=FACE_BOUND('',#346,.T.);
#425=FACE_BOUND('',#347,.T.);
#426=FACE_BOUND('',#348,.T.);
#427=FACE_BOUND('',#349,.T.);
#428=FACE_BOUND('',#350,.T.);
#429=FACE_BOUND('',#351,.T.);
#430=FACE_BOUND('',#352,.T.);
#431=FACE_BOUND('',#353,.T.);
#432=FACE_BOUND('',#354,.T.);
#433=FACE_BOUND('',#355,.T.);
#434=FACE_BOUND('',#356,.T.);
#435=FACE_BOUND('',#357,.T.);
#436=FACE_BOUND('',#358,.T.);
#437=FACE_BOUND('',#359,.T.);
#438=FACE_BOUND('',#360,.T.);
#439=FACE_BOUND('',#361,.T.);
#440=FACE_BOUND('',#362,.T.);
#441=FACE_BOUND('',#363,.T.);
#442=FACE_BOUND('',#364,.T.);
#443=FACE_BOUND('',#365,.T.);
#444=FACE_BOUND('',#366,.T.);
#445=FACE_BOUND('',#367,.T.);
#446=FACE_BOUND('',#368,.T.);
#447=FACE_BOUND('',#369,.T.);
#448=FACE_BOUND('',#370,.T.);
#449=FACE_BOUND('',#371,.T.);
#450=CONICAL_SURFACE('',#516,0.02413,1.22173047639603);
#451=CONICAL_SURFACE('',#522,0.020955,0.349065850398859);
#452=CONICAL_SURFACE('',#526,0.034036,0.78539816339745);
#453=CONICAL_SURFACE('',#534,0.0033655,0.78539816339745);
#454=CONICAL_SURFACE('',#536,0.0038735,0.78539816339745);
#455=CONICAL_SURFACE('',#541,0.0033655,0.785398163397449);
#456=CONICAL_SURFACE('',#543,0.0038735,0.785398163397449);
#457=CONICAL_SURFACE('',#548,0.0033655,0.78539816339745);
#458=CONICAL_SURFACE('',#550,0.0038735,0.78539816339745);
#459=CONICAL_SURFACE('',#555,0.0033655,0.78539816339745);
#460=CONICAL_SURFACE('',#557,0.0038735,0.785398163397447);
#461=CONICAL_SURFACE('',#562,0.0033655,0.785398163397449);
#462=CONICAL_SURFACE('',#564,0.0038735,0.785398163397449);
#463=CONICAL_SURFACE('',#569,0.0033655,0.785398163397452);
#464=CONICAL_SURFACE('',#571,0.0038735,0.78539816339745);
#465=CONICAL_SURFACE('',#583,0.034544,0.78539816339745);
#466=CONICAL_SURFACE('',#589,0.034544,0.78539816339745);
#467=ADVANCED_FACE('',(#372,#373),#450,.T.);
#468=ADVANCED_FACE('',(#374,#375),#43,.F.);
#469=ADVANCED_FACE('',(#376,#377),#451,.F.);
#470=ADVANCED_FACE('',(#378,#379),#40,.F.);
#471=ADVANCED_FACE('',(#380,#381),#452,.T.);
#472=ADVANCED_FACE('',(#382,#383),#41,.T.);
#473=ADVANCED_FACE('',(#384,#385),#28,.F.);
#474=ADVANCED_FACE('',(#386,#387),#453,.F.);
#475=ADVANCED_FACE('',(#388,#389),#454,.F.);
#476=ADVANCED_FACE('',(#390,#391),#29,.F.);
#477=ADVANCED_FACE('',(#392,#393),#455,.F.);
#478=ADVANCED_FACE('',(#394,#395),#456,.F.);
#479=ADVANCED_FACE('',(#396,#397),#30,.F.);
#480=ADVANCED_FACE('',(#398,#399),#457,.F.);
#481=ADVANCED_FACE('',(#400,#401),#458,.F.);
#482=ADVANCED_FACE('',(#402,#403),#31,.F.);
#483=ADVANCED_FACE('',(#404,#405),#459,.F.);
#484=ADVANCED_FACE('',(#406,#407),#460,.F.);
#485=ADVANCED_FACE('',(#408,#409),#32,.F.);
#486=ADVANCED_FACE('',(#410,#411),#461,.F.);
#487=ADVANCED_FACE('',(#412,#413),#462,.F.);
#488=ADVANCED_FACE('',(#414,#415),#33,.F.);
#489=ADVANCED_FACE('',(#416,#417),#463,.F.);
#490=ADVANCED_FACE('',(#418,#419),#464,.F.);
#491=ADVANCED_FACE('',(#420),#34,.F.);
#492=ADVANCED_FACE('',(#421,#422),#42,.T.);
#493=ADVANCED_FACE('',(#423,#424),#35,.F.);
#494=ADVANCED_FACE('',(#425,#426,#427,#428,#429,#430,#431,#432),#44,.T.);
#495=ADVANCED_FACE('',(#433,#434),#36,.T.);
#496=ADVANCED_FACE('',(#435,#436,#437,#438),#45,.F.);
#497=ADVANCED_FACE('',(#439),#465,.T.);
#498=ADVANCED_FACE('',(#440,#441),#37,.F.);
#499=ADVANCED_FACE('',(#442,#443,#444,#445),#46,.F.);
#500=ADVANCED_FACE('',(#446),#466,.T.);
#501=ADVANCED_FACE('',(#447),#38,.F.);
#502=ADVANCED_FACE('',(#448,#449),#39,.T.);
#503=CLOSED_SHELL('',(#467,#468,#469,#470,#471,#472,#473,#474,#475,#476,
#477,#478,#479,#480,#481,#482,#483,#484,#485,#486,#487,#488,#489,#490,#491,
#492,#493,#494,#495,#496,#497,#498,#499,#500,#501,#502));
#504=STYLED_ITEM('',(#505),#512);
#505=PRESENTATION_STYLE_ASSIGNMENT((#506));
#506=SURFACE_STYLE_USAGE(.BOTH.,#507);
#507=SURFACE_SIDE_STYLE('',(#508));
#508=SURFACE_STYLE_FILL_AREA(#509);
#509=FILL_AREA_STYLE('',(#510));
#510=FILL_AREA_STYLE_COLOUR('',#511);
#511=COLOUR_RGB('',0.231372549019608,0.380392156862745,0.705882352941177);
#512=MANIFOLD_SOLID_BREP('F0275X037N C276 Flange',#503);
#513=SHAPE_DEFINITION_REPRESENTATION(#922,#514);
#514=SHAPE_REPRESENTATION('F0275X037N C276 Flange',(#515),#917);
#515=AXIS2_PLACEMENT_3D('',#753,#593,#594);
#516=AXIS2_PLACEMENT_3D('',#754,#595,#596);
#517=AXIS2_PLACEMENT_3D('',#755,#597,#598);
#518=AXIS2_PLACEMENT_3D('',#757,#599,#600);
#519=AXIS2_PLACEMENT_3D('',#759,#601,#602);
#520=AXIS2_PLACEMENT_3D('',#760,#603,#604);
#521=AXIS2_PLACEMENT_3D('',#762,#605,#606);
#522=AXIS2_PLACEMENT_3D('',#764,#607,#608);
#523=AXIS2_PLACEMENT_3D('',#765,#609,#610);
#524=AXIS2_PLACEMENT_3D('',#766,#611,#612);
#525=AXIS2_PLACEMENT_3D('',#768,#613,#614);
#526=AXIS2_PLACEMENT_3D('',#770,#615,#616);
#527=AXIS2_PLACEMENT_3D('',#771,#617,#618);
#528=AXIS2_PLACEMENT_3D('',#773,#619,#620);
#529=AXIS2_PLACEMENT_3D('',#775,#621,#622);
#530=AXIS2_PLACEMENT_3D('',#776,#623,#624);
#531=AXIS2_PLACEMENT_3D('',#778,#625,#626);
#532=AXIS2_PLACEMENT_3D('',#779,#627,#628);
#533=AXIS2_PLACEMENT_3D('',#781,#629,#630);
#534=AXIS2_PLACEMENT_3D('',#783,#631,#632);
#535=AXIS2_PLACEMENT_3D('',#784,#633,#634);
#536=AXIS2_PLACEMENT_3D('',#786,#635,#636);
#537=AXIS2_PLACEMENT_3D('',#787,#637,#638);
#538=AXIS2_PLACEMENT_3D('',#789,#639,#640);
#539=AXIS2_PLACEMENT_3D('',#790,#641,#642);
#540=AXIS2_PLACEMENT_3D('',#792,#643,#644);
#541=AXIS2_PLACEMENT_3D('',#794,#645,#646);
#542=AXIS2_PLACEMENT_3D('',#795,#647,#648);
#543=AXIS2_PLACEMENT_3D('',#797,#649,#650);
#544=AXIS2_PLACEMENT_3D('',#798,#651,#652);
#545=AXIS2_PLACEMENT_3D('',#800,#653,#654);
#546=AXIS2_PLACEMENT_3D('',#801,#655,#656);
#547=AXIS2_PLACEMENT_3D('',#803,#657,#658);
#548=AXIS2_PLACEMENT_3D('',#805,#659,#660);
#549=AXIS2_PLACEMENT_3D('',#806,#661,#662);
#550=AXIS2_PLACEMENT_3D('',#808,#663,#664);
#551=AXIS2_PLACEMENT_3D('',#809,#665,#666);
#552=AXIS2_PLACEMENT_3D('',#811,#667,#668);
#553=AXIS2_PLACEMENT_3D('',#812,#669,#670);
#554=AXIS2_PLACEMENT_3D('',#814,#671,#672);
#555=AXIS2_PLACEMENT_3D('',#816,#673,#674);
#556=AXIS2_PLACEMENT_3D('',#817,#675,#676);
#557=AXIS2_PLACEMENT_3D('',#819,#677,#678);
#558=AXIS2_PLACEMENT_3D('',#820,#679,#680);
#559=AXIS2_PLACEMENT_3D('',#822,#681,#682);
#560=AXIS2_PLACEMENT_3D('',#823,#683,#684);
#561=AXIS2_PLACEMENT_3D('',#825,#685,#686);
#562=AXIS2_PLACEMENT_3D('',#827,#687,#688);
#563=AXIS2_PLACEMENT_3D('',#828,#689,#690);
#564=AXIS2_PLACEMENT_3D('',#830,#691,#692);
#565=AXIS2_PLACEMENT_3D('',#831,#693,#694);
#566=AXIS2_PLACEMENT_3D('',#833,#695,#696);
#567=AXIS2_PLACEMENT_3D('',#834,#697,#698);
#568=AXIS2_PLACEMENT_3D('',#836,#699,#700);
#569=AXIS2_PLACEMENT_3D('',#838,#701,#702);
#570=AXIS2_PLACEMENT_3D('',#839,#703,#704);
#571=AXIS2_PLACEMENT_3D('',#841,#705,#706);
#572=AXIS2_PLACEMENT_3D('',#842,#707,#708);
#573=AXIS2_PLACEMENT_3D('',#844,#709,#710);
#574=AXIS2_PLACEMENT_3D('',#870,#713,#714);
#575=AXIS2_PLACEMENT_3D('',#871,#715,#716);
#576=AXIS2_PLACEMENT_3D('',#873,#717,#718);
#577=AXIS2_PLACEMENT_3D('',#875,#719,#720);
#578=AXIS2_PLACEMENT_3D('',#876,#721,#722);
#579=AXIS2_PLACEMENT_3D('',#877,#723,#724);
#580=AXIS2_PLACEMENT_3D('',#878,#725,#726);
#581=AXIS2_PLACEMENT_3D('',#882,#728,#729);
#582=AXIS2_PLACEMENT_3D('',#883,#730,#731);
#583=AXIS2_PLACEMENT_3D('',#884,#732,#733);
#584=AXIS2_PLACEMENT_3D('',#890,#734,#735);
#585=AXIS2_PLACEMENT_3D('',#891,#736,#737);
#586=AXIS2_PLACEMENT_3D('',#898,#738,#739);
#587=AXIS2_PLACEMENT_3D('',#899,#740,#741);
#588=AXIS2_PLACEMENT_3D('',#902,#743,#744);
#589=AXIS2_PLACEMENT_3D('',#903,#745,#746);
#590=AXIS2_PLACEMENT_3D('',#904,#747,#748);
#591=AXIS2_PLACEMENT_3D('',#910,#749,#750);
#592=AXIS2_PLACEMENT_3D('',#915,#751,#752);
#593=DIRECTION('',(0.,0.,1.));
#594=DIRECTION('',(1.,0.,0.));
#595=DIRECTION('',(0.,0.,-1.));
#596=DIRECTION('',(-1.,0.,0.));
#597=DIRECTION('',(0.,0.,1.));
#598=DIRECTION('',(1.,0.,0.));
#599=DIRECTION('',(0.,0.,1.));
#600=DIRECTION('',(1.,0.,0.));
#601=DIRECTION('',(0.,0.,-1.));
#602=DIRECTION('',(-1.,0.,0.));
#603=DIRECTION('',(0.,0.,1.));
#604=DIRECTION('',(1.,0.,0.));
#605=DIRECTION('',(0.,0.,-1.));
#606=DIRECTION('',(-1.,0.,0.));
#607=DIRECTION('',(0.,0.,1.));
#608=DIRECTION('',(1.,0.,0.));
#609=DIRECTION('',(0.,0.,1.));
#610=DIRECTION('',(1.,0.,0.));
#611=DIRECTION('',(0.,0.,-1.));
#612=DIRECTION('',(-1.,0.,0.));
#613=DIRECTION('',(0.,0.,1.));
#614=DIRECTION('',(1.,0.,0.));
#615=DIRECTION('',(0.,0.,1.));
#616=DIRECTION('',(1.,0.,0.));
#617=DIRECTION('',(0.,0.,-1.));
#618=DIRECTION('',(-1.,0.,0.));
#619=DIRECTION('',(0.,0.,-1.));
#620=DIRECTION('',(-1.,0.,0.));
#621=DIRECTION('',(0.,0.,-1.));
#622=DIRECTION('',(-1.,0.,0.));
#623=DIRECTION('',(0.,0.,-1.));
#624=DIRECTION('',(-1.,0.,0.));
#625=DIRECTION('',(0.,0.,1.));
#626=DIRECTION('',(0.,-1.,0.));
#627=DIRECTION('',(0.,0.,-1.));
#628=DIRECTION('',(-1.,0.,0.));
#629=DIRECTION('',(0.,0.,-1.));
#630=DIRECTION('',(-1.,0.,0.));
#631=DIRECTION('',(0.,0.,-1.));
#632=DIRECTION('',(-1.,0.,0.));
#633=DIRECTION('',(0.,0.,-1.));
#634=DIRECTION('',(-1.,0.,0.));
#635=DIRECTION('',(0.,0.,1.));
#636=DIRECTION('',(1.,0.,0.));
#637=DIRECTION('',(0.,0.,-1.));
#638=DIRECTION('',(-1.,0.,0.));
#639=DIRECTION('',(0.,0.,1.));
#640=DIRECTION('',(0.,-1.,0.));
#641=DIRECTION('',(0.,0.,-1.));
#642=DIRECTION('',(-1.,0.,0.));
#643=DIRECTION('',(0.,0.,-1.));
#644=DIRECTION('',(-1.,0.,0.));
#645=DIRECTION('',(0.,0.,-1.));
#646=DIRECTION('',(-1.,0.,0.));
#647=DIRECTION('',(0.,0.,-1.));
#648=DIRECTION('',(-1.,0.,0.));
#649=DIRECTION('',(0.,0.,1.));
#650=DIRECTION('',(1.,0.,0.));
#651=DIRECTION('',(0.,0.,-1.));
#652=DIRECTION('',(-1.,0.,0.));
#653=DIRECTION('',(0.,0.,1.));
#654=DIRECTION('',(0.,-1.,0.));
#655=DIRECTION('',(0.,0.,-1.));
#656=DIRECTION('',(-1.,0.,0.));
#657=DIRECTION('',(0.,0.,-1.));
#658=DIRECTION('',(-1.,0.,0.));
#659=DIRECTION('',(0.,0.,-1.));
#660=DIRECTION('',(-1.,0.,0.));
#661=DIRECTION('',(0.,0.,-1.));
#662=DIRECTION('',(-1.,0.,0.));
#663=DIRECTION('',(0.,0.,1.));
#664=DIRECTION('',(1.,0.,0.));
#665=DIRECTION('',(0.,0.,-1.));
#666=DIRECTION('',(-1.,0.,0.));
#667=DIRECTION('',(0.,0.,1.));
#668=DIRECTION('',(0.,-1.,0.));
#669=DIRECTION('',(0.,0.,-1.));
#670=DIRECTION('',(-1.,0.,0.));
#671=DIRECTION('',(0.,0.,-1.));
#672=DIRECTION('',(-1.,0.,0.));
#673=DIRECTION('',(0.,0.,-1.));
#674=DIRECTION('',(-1.,0.,0.));
#675=DIRECTION('',(0.,0.,-1.));
#676=DIRECTION('',(-1.,0.,0.));
#677=DIRECTION('',(0.,0.,1.));
#678=DIRECTION('',(1.,0.,0.));
#679=DIRECTION('',(0.,0.,-1.));
#680=DIRECTION('',(-1.,0.,0.));
#681=DIRECTION('',(0.,0.,1.));
#682=DIRECTION('',(0.,-1.,0.));
#683=DIRECTION('',(0.,0.,-1.));
#684=DIRECTION('',(-1.,0.,0.));
#685=DIRECTION('',(0.,0.,-1.));
#686=DIRECTION('',(-1.,0.,0.));
#687=DIRECTION('',(0.,0.,-1.));
#688=DIRECTION('',(-1.,0.,0.));
#689=DIRECTION('',(0.,0.,-1.));
#690=DIRECTION('',(-1.,0.,0.));
#691=DIRECTION('',(0.,0.,1.));
#692=DIRECTION('',(1.,0.,0.));
#693=DIRECTION('',(0.,0.,-1.));
#694=DIRECTION('',(-1.,0.,0.));
#695=DIRECTION('',(0.,0.,1.));
#696=DIRECTION('',(0.,-1.,0.));
#697=DIRECTION('',(0.,0.,-1.));
#698=DIRECTION('',(-1.,0.,0.));
#699=DIRECTION('',(0.,0.,-1.));
#700=DIRECTION('',(-1.,0.,0.));
#701=DIRECTION('',(0.,0.,-1.));
#702=DIRECTION('',(-1.,0.,0.));
#703=DIRECTION('',(0.,0.,-1.));
#704=DIRECTION('',(-1.,0.,0.));
#705=DIRECTION('',(0.,0.,1.));
#706=DIRECTION('',(1.,0.,0.));
#707=DIRECTION('',(0.,0.,-1.));
#708=DIRECTION('',(-1.,0.,0.));
#709=DIRECTION('',(0.,1.,0.));
#710=DIRECTION('',(0.,0.,-1.));
#711=DIRECTION('',(0.,1.,0.));
#712=DIRECTION('',(0.,1.,0.));
#713=DIRECTION('',(0.,0.,-1.));
#714=DIRECTION('',(-1.,0.,0.));
#715=DIRECTION('',(0.,0.,-1.));
#716=DIRECTION('',(-1.,0.,0.));
#717=DIRECTION('',(0.,0.,-1.));
#718=DIRECTION('',(-1.,0.,0.));
#719=DIRECTION('',(0.,0.,1.));
#720=DIRECTION('',(0.,-1.,0.));
#721=DIRECTION('',(0.,0.,-1.));
#722=DIRECTION('',(-1.,0.,0.));
#723=DIRECTION('',(0.,0.,1.));
#724=DIRECTION('',(-1.,0.,0.));
#725=DIRECTION('',(0.,0.,-1.));
#726=DIRECTION('',(-1.,0.,0.));
#727=DIRECTION('',(0.,-1.,0.));
#728=DIRECTION('',(0.,0.,-1.));
#729=DIRECTION('',(-1.,0.,0.));
#730=DIRECTION('',(0.,0.,1.));
#731=DIRECTION('',(1.,0.,0.));
#732=DIRECTION('',(0.,0.,-1.));
#733=DIRECTION('',(-1.,0.,0.));
#734=DIRECTION('',(0.,0.,-1.));
#735=DIRECTION('',(-1.,0.,0.));
#736=DIRECTION('',(0.,0.,-1.));
#737=DIRECTION('',(1.,0.,0.));
#738=DIRECTION('',(0.,0.,1.));
#739=DIRECTION('',(1.,0.,0.));
#740=DIRECTION('',(0.,0.,-1.));
#741=DIRECTION('',(-1.,0.,0.));
#742=DIRECTION('',(0.,-1.,0.));
#743=DIRECTION('',(0.,0.,-1.));
#744=DIRECTION('',(-1.,0.,0.));
#745=DIRECTION('',(0.,0.,-1.));
#746=DIRECTION('',(-1.,0.,0.));
#747=DIRECTION('',(0.,0.,-1.));
#748=DIRECTION('',(-1.,0.,0.));
#749=DIRECTION('',(0.,1.,0.));
#750=DIRECTION('',(0.,0.,-1.));
#751=DIRECTION('',(0.,0.,1.));
#752=DIRECTION('',(-1.,0.,0.));
#753=CARTESIAN_POINT('',(0.,0.,0.));
#754=CARTESIAN_POINT('',(0.,0.,0.0045339945062048));
#755=CARTESIAN_POINT('',(0.,0.,0.0045339945062048));
#756=CARTESIAN_POINT('',(0.02413,0.,0.0045339945062048));
#757=CARTESIAN_POINT('',(0.,0.,0.0056896));
#758=CARTESIAN_POINT('',(0.020955,0.,0.0056896));
#759=CARTESIAN_POINT('',(0.,0.,0.0051816));
#760=CARTESIAN_POINT('',(0.,0.,0.0051816));
#761=CARTESIAN_POINT('',(0.0207701031209928,0.,0.0051816));
#762=CARTESIAN_POINT('',(3.46944695195361E-18,0.,0.0051816));
#763=CARTESIAN_POINT('',(-0.0034925,0.,0.0051816));
#764=CARTESIAN_POINT('',(0.,0.,0.0056896));
#765=CARTESIAN_POINT('',(0.,0.,0.));
#766=CARTESIAN_POINT('',(0.,0.,0.000439940905122492));
#767=CARTESIAN_POINT('',(-0.034544,0.,0.000439940905122492));
#768=CARTESIAN_POINT('',(0.,0.,-0.000439940905122492));
#769=CARTESIAN_POINT('',(0.034544,0.,-0.000439940905122492));
#770=CARTESIAN_POINT('',(3.30643715532042E-18,0.,-0.00635));
#771=CARTESIAN_POINT('',(3.30643715532042E-18,0.,-0.00635));
#772=CARTESIAN_POINT('',(-0.034036,0.,-0.00635));
#773=CARTESIAN_POINT('',(3.30643715532042E-18,0.,-0.005842));
#774=CARTESIAN_POINT('',(-0.034544,0.,-0.005842));
#775=CARTESIAN_POINT('',(3.46944695195361E-18,0.,0.0049276));
#776=CARTESIAN_POINT('',(3.46944695195361E-18,0.,0.0049276));
#777=CARTESIAN_POINT('',(-0.0032385,0.,0.0049276));
#778=CARTESIAN_POINT('',(-0.0146812,0.0254285843160802,0.00635));
#779=CARTESIAN_POINT('',(-0.0146812,0.0254285843160802,0.005842));
#780=CARTESIAN_POINT('',(-0.0180467,0.0254285843160802,0.005842));
#781=CARTESIAN_POINT('',(-0.0146812,0.0254285843160802,-0.005842));
#782=CARTESIAN_POINT('',(-0.0180467,0.0254285843160802,-0.005842));
#783=CARTESIAN_POINT('',(-0.0146812,0.0254285843160802,-0.005842));
#784=CARTESIAN_POINT('',(-0.0146812,0.0254285843160802,-0.00635));
#785=CARTESIAN_POINT('',(-0.0185547,0.0254285843160802,-0.00635));
#786=CARTESIAN_POINT('',(-0.0146812,0.0254285843160802,0.00635));
#787=CARTESIAN_POINT('',(-0.0146812,0.0254285843160802,0.00635));
#788=CARTESIAN_POINT('',(-0.0185547,0.0254285843160802,0.00635));
#789=CARTESIAN_POINT('',(-0.0293624,1.38777878078145E-17,0.00635));
#790=CARTESIAN_POINT('',(-0.0293624,1.38777878078145E-17,0.005842));
#791=CARTESIAN_POINT('',(-0.0327279,1.38777878078145E-17,0.005842));
#792=CARTESIAN_POINT('',(-0.0293624,1.38777878078145E-17,-0.005842));
#793=CARTESIAN_POINT('',(-0.0327279,1.38777878078145E-17,-0.005842));
#794=CARTESIAN_POINT('',(-0.0293624,1.38777878078145E-17,-0.005842));
#795=CARTESIAN_POINT('',(-0.0293624,1.38777878078145E-17,-0.00635));
#796=CARTESIAN_POINT('',(-0.0332359,1.38777878078145E-17,-0.00635));
#797=CARTESIAN_POINT('',(-0.0293624,1.38777878078145E-17,0.00635));
#798=CARTESIAN_POINT('',(-0.0293624,1.38777878078145E-17,0.00635));
#799=CARTESIAN_POINT('',(-0.0332359,1.38777878078145E-17,0.00635));
#800=CARTESIAN_POINT('',(-0.0146812,-0.0254285843160802,0.00635));
#801=CARTESIAN_POINT('',(-0.0146812,-0.0254285843160802,0.005842));
#802=CARTESIAN_POINT('',(-0.0180467,-0.0254285843160802,0.005842));
#803=CARTESIAN_POINT('',(-0.0146812,-0.0254285843160802,-0.005842));
#804=CARTESIAN_POINT('',(-0.0180467,-0.0254285843160802,-0.005842));
#805=CARTESIAN_POINT('',(-0.0146812,-0.0254285843160802,-0.005842));
#806=CARTESIAN_POINT('',(-0.0146812,-0.0254285843160802,-0.00635));
#807=CARTESIAN_POINT('',(-0.0185547,-0.0254285843160802,-0.00635));
#808=CARTESIAN_POINT('',(-0.0146812,-0.0254285843160802,0.00635));
#809=CARTESIAN_POINT('',(-0.0146812,-0.0254285843160802,0.00635));
#810=CARTESIAN_POINT('',(-0.0185547,-0.0254285843160802,0.00635));
#811=CARTESIAN_POINT('',(0.0146812,-0.0254285843160802,0.00635));
#812=CARTESIAN_POINT('',(0.0146812,-0.0254285843160802,0.005842));
#813=CARTESIAN_POINT('',(0.0113157,-0.0254285843160802,0.005842));
#814=CARTESIAN_POINT('',(0.0146812,-0.0254285843160802,-0.005842));
#815=CARTESIAN_POINT('',(0.0113157,-0.0254285843160802,-0.005842));
#816=CARTESIAN_POINT('',(0.0146812,-0.0254285843160802,-0.005842));
#817=CARTESIAN_POINT('',(0.0146812,-0.0254285843160802,-0.00635));
#818=CARTESIAN_POINT('',(0.0108077,-0.0254285843160802,-0.00635));
#819=CARTESIAN_POINT('',(0.0146812,-0.0254285843160802,0.00635));
#820=CARTESIAN_POINT('',(0.0146812,-0.0254285843160802,0.00635));
#821=CARTESIAN_POINT('',(0.0108077,-0.0254285843160802,0.00635));
#822=CARTESIAN_POINT('',(0.0293624,-4.5102810375397E-17,0.00635));
#823=CARTESIAN_POINT('',(0.0293624,-4.5102810375397E-17,0.005842));
#824=CARTESIAN_POINT('',(0.0259969,-4.5102810375397E-17,0.005842));
#825=CARTESIAN_POINT('',(0.0293624,-4.5102810375397E-17,-0.005842));
#826=CARTESIAN_POINT('',(0.0259969,-4.5102810375397E-17,-0.005842));
#827=CARTESIAN_POINT('',(0.0293624,-4.5102810375397E-17,-0.005842));
#828=CARTESIAN_POINT('',(0.0293624,-4.5102810375397E-17,-0.00635));
#829=CARTESIAN_POINT('',(0.0254889,-4.5102810375397E-17,-0.00635));
#830=CARTESIAN_POINT('',(0.0293624,-4.5102810375397E-17,0.00635));
#831=CARTESIAN_POINT('',(0.0293624,-4.5102810375397E-17,0.00635));
#832=CARTESIAN_POINT('',(0.0254889,-4.5102810375397E-17,0.00635));
#833=CARTESIAN_POINT('',(0.0146812,0.0254285843160802,0.00635));
#834=CARTESIAN_POINT('',(0.0146812,0.0254285843160802,0.005842));
#835=CARTESIAN_POINT('',(0.0113157,0.0254285843160802,0.005842));
#836=CARTESIAN_POINT('',(0.0146812,0.0254285843160802,-0.005842));
#837=CARTESIAN_POINT('',(0.0113157,0.0254285843160802,-0.005842));
#838=CARTESIAN_POINT('',(0.0146812,0.0254285843160802,-0.005842));
#839=CARTESIAN_POINT('',(0.0146812,0.0254285843160802,-0.00635));
#840=CARTESIAN_POINT('',(0.0108077,0.0254285843160802,-0.00635));
#841=CARTESIAN_POINT('',(0.0146812,0.0254285843160802,0.00635));
#842=CARTESIAN_POINT('',(0.0146812,0.0254285843160802,0.00635));
#843=CARTESIAN_POINT('',(0.0108077,0.0254285843160802,0.00635));
#844=CARTESIAN_POINT('',(0.,0.122485921931455,0.00794385));
#845=CARTESIAN_POINT('',(-0.00176917883211393,-0.033989988265076,0.00635));
#846=CARTESIAN_POINT('',(-0.00159361920972755,-0.0341942617062738,0.00615512823182866));
#847=CARTESIAN_POINT('',(-0.00138286548824896,-0.0343768408945986,0.00598240302211528));
#848=CARTESIAN_POINT('',(-0.00111918643425298,-0.0345258650219364,0.00584200003202317));
#849=CARTESIAN_POINT('',(-0.00176917883211393,-0.033989988265076,0.00635));
#850=CARTESIAN_POINT('',(-0.001119186425128,-0.0345258650372099,0.00584200002716435));
#851=CARTESIAN_POINT('',(-0.00111918641209046,-0.0345258650546948,0.00584200002022217));
#852=CARTESIAN_POINT('',(-0.000427556984053035,-0.0345482848335138,0.00547372337559542));
#853=CARTESIAN_POINT('',(0.000427554367083601,-0.0345482849174154,0.00547372200170218));
#854=CARTESIAN_POINT('',(0.00111918636572605,-0.0345258650561977,0.00584199999553419));
#855=CARTESIAN_POINT('',(0.0011191863821658,-0.0345258650491405,0.00584200000428798));
#856=CARTESIAN_POINT('',(0.00111918640839791,-0.0345258650266041,0.00584199997822189));
#857=CARTESIAN_POINT('',(0.0013828654814176,-0.0343768408955577,0.00598240297160624));
#858=CARTESIAN_POINT('',(0.00159361920150122,-0.0341942617158455,0.0061551282226974));
#859=CARTESIAN_POINT('',(0.00176917883211393,-0.033989988265076,0.00635));
#860=CARTESIAN_POINT('',(0.00176917883211393,-0.033989988265076,0.00635));
#861=CARTESIAN_POINT('',(0.00176917883211393,-0.122485921931455,0.00635));
#862=CARTESIAN_POINT('',(0.00176917883211393,-0.0240650557086411,0.00635));
#863=CARTESIAN_POINT('',(-0.00176917883211393,-0.0240650557086411,0.00635));
#864=CARTESIAN_POINT('',(-0.00132028071398513,-0.0240980571302037,0.00585172158711972));
#865=CARTESIAN_POINT('',(-3.77060341208023E-7,-0.0241619428407233,0.00527347884451532));
#866=CARTESIAN_POINT('',(0.00132027996321468,-0.0240980571853978,0.00585172075376201));
#867=CARTESIAN_POINT('',(0.00176917883211392,-0.0240650557086411,0.00635));
#868=CARTESIAN_POINT('',(-0.00176917883211393,-0.0240650557086411,0.00635));
#869=CARTESIAN_POINT('',(-0.00176917883211393,-0.122485921931455,0.00635));
#870=CARTESIAN_POINT('',(3.46944695195361E-18,0.,-0.0061468));
#871=CARTESIAN_POINT('',(3.46944695195361E-18,0.,-0.0061468));
#872=CARTESIAN_POINT('',(-0.0032385,0.,-0.0061468));
#873=CARTESIAN_POINT('',(3.46944695195361E-18,0.,-0.00635));
#874=CARTESIAN_POINT('',(-0.0034417,0.,-0.00635));
#875=CARTESIAN_POINT('',(3.46944695195361E-18,0.,0.00635));
#876=CARTESIAN_POINT('',(3.30643715532042E-18,0.,-0.00635));
#877=CARTESIAN_POINT('',(3.30643715532042E-18,0.,0.00635));
#878=CARTESIAN_POINT('',(3.30643715532042E-18,0.,0.00635));
#879=CARTESIAN_POINT('',(-0.00176917883211393,0.122485921931455,0.00635));
#880=CARTESIAN_POINT('',(-0.00176917883211393,0.033989988265076,0.00635));
#881=CARTESIAN_POINT('',(-0.00176917883211393,0.0240650557086411,0.00635));
#882=CARTESIAN_POINT('',(3.30643715532042E-18,0.,0.00635));
#883=CARTESIAN_POINT('',(0.,0.,0.00635));
#884=CARTESIAN_POINT('',(3.30643715532042E-18,0.,0.005842));
#885=CARTESIAN_POINT('',(-0.00176917883211393,0.0339899882650759,0.00635));
#886=CARTESIAN_POINT('',(-0.00159361919595447,0.0341942617222995,0.00615512821654049));
#887=CARTESIAN_POINT('',(-0.0013828654558978,0.0343768409230472,0.00598240299520528));
#888=CARTESIAN_POINT('',(-0.00111918637411295,0.0345258650559259,0.005842));
#889=CARTESIAN_POINT('',(-0.00111918637411292,0.0345258650559258,0.005842));
#890=CARTESIAN_POINT('',(3.30643715532042E-18,0.,0.005842));
#891=CARTESIAN_POINT('',(0.,0.,0.00124216766505093));
#892=CARTESIAN_POINT('',(-0.00176917883211392,0.0240650557086411,0.00635));
#893=CARTESIAN_POINT('',(-0.00132028071398513,0.0240980571302037,0.00585172158711972));
#894=CARTESIAN_POINT('',(-3.77060341207156E-7,0.0241619428407233,0.00527347884451532));
#895=CARTESIAN_POINT('',(0.00132027996321469,0.0240980571853978,0.00585172075376201));
#896=CARTESIAN_POINT('',(0.00176917883211393,0.0240650557086411,0.00635));
#897=CARTESIAN_POINT('',(0.00176917883211393,0.0240650557086411,0.00635));
#898=CARTESIAN_POINT('',(0.,0.,0.00635));
#899=CARTESIAN_POINT('',(3.30643715532042E-18,0.,0.00635));
#900=CARTESIAN_POINT('',(0.00176917883211393,0.122485921931455,0.00635));
#901=CARTESIAN_POINT('',(0.00176917883211393,0.033989988265076,0.00635));
#902=CARTESIAN_POINT('',(3.30643715532042E-18,0.,0.00635));
#903=CARTESIAN_POINT('',(3.30643715532042E-18,0.,0.005842));
#904=CARTESIAN_POINT('',(3.30643715532042E-18,0.,0.005842));
#905=CARTESIAN_POINT('',(0.00111918637411291,0.0345258650559258,0.005842));
#906=CARTESIAN_POINT('',(0.00111918637411292,0.0345258650559258,0.005842));
#907=CARTESIAN_POINT('',(0.00138286545589777,0.0343768409230472,0.00598240299520528));
#908=CARTESIAN_POINT('',(0.00159361919595448,0.0341942617222995,0.00615512821654049));
#909=CARTESIAN_POINT('',(0.00176917883211394,0.033989988265076,0.00635));
#910=CARTESIAN_POINT('',(0.,0.122485921931455,0.00794385));
#911=CARTESIAN_POINT('',(-0.00111918637411292,0.0345258650559258,0.005842));
#912=CARTESIAN_POINT('',(-0.000427556949503696,0.0345482848338721,0.00547372337323872));
#913=CARTESIAN_POINT('',(0.000427554387039308,0.0345482849169367,0.00547372200878587));
#914=CARTESIAN_POINT('',(0.00111918637411291,0.0345258650559258,0.005842));
#915=CARTESIAN_POINT('',(3.30643715532042E-18,0.,0.00635));
#916=MECHANICAL_DESIGN_GEOMETRIC_PRESENTATION_REPRESENTATION('',(#504),
#917);
#917=(
GEOMETRIC_REPRESENTATION_CONTEXT(3)
GLOBAL_UNCERTAINTY_ASSIGNED_CONTEXT((#918))
GLOBAL_UNIT_ASSIGNED_CONTEXT((#921,#920,#919))
REPRESENTATION_CONTEXT('F0275X037N C276 Flange',
'TOP_LEVEL_ASSEMBLY_PART')
);
#918=UNCERTAINTY_MEASURE_WITH_UNIT(LENGTH_MEASURE(2.E-5),#921,
'DISTANCE_ACCURACY_VALUE','Maximum Tolerance applied to model');
#919=(
NAMED_UNIT(*)
SI_UNIT($,.STERADIAN.)
SOLID_ANGLE_UNIT()
);
#920=(
NAMED_UNIT(*)
PLANE_ANGLE_UNIT()
SI_UNIT($,.RADIAN.)
);
#921=(
LENGTH_UNIT()
NAMED_UNIT(*)
SI_UNIT($,.METRE.)
);
#922=PRODUCT_DEFINITION_SHAPE('','',#923);
#923=PRODUCT_DEFINITION('','',#925,#924);
#924=PRODUCT_DEFINITION_CONTEXT('',#931,'design');
#925=PRODUCT_DEFINITION_FORMATION_WITH_SPECIFIED_SOURCE('','',#927,
 .NOT_KNOWN.);
#926=PRODUCT_RELATED_PRODUCT_CATEGORY('','',(#927));
#927=PRODUCT('F0275X037N C276 Flange','F0275X037N C276 Flange',
'F0275X037N C276 Flange',(#929));
#928=PRODUCT_CATEGORY('','');
#929=PRODUCT_CONTEXT('',#931,'mechanical');
#930=APPLICATION_PROTOCOL_DEFINITION('international standard',
'ap242_managed_model_based_3d_engineering',2020,#931);
#931=APPLICATION_CONTEXT('managed model based 3d engineering');
ENDSEC;
END-ISO-10303-21;
