ISO-10303-21;
HEADER;
/* Generated by software containing ST-Developer
 * from STEP Tools, Inc. (www.steptools.com) 
 */
/* OPTION: using custom renumber hook */

FILE_DESCRIPTION(
/* description */ ('STEP AP242 Edition 2',
'CAx-IF Rec.Pracs.---Representation and Presentation of Product Manufa
cturing Information (PMI)---4.0---2014-10-13',
'CAx-IF Rec.Pracs.---3D Tessellated Geometry---0.4---2014-09-14','2;1',
'CAx-IF Rec.Pracs.---User Defined Attributes---1.5---2016-08-15'),
/* implementation_level */ '2;1');

FILE_NAME(
/* name */ 'NP-Crucible Assembly - Needle Probe',
/* time_stamp */ '2026-07-15T12:54:19Z',
/* author */ (''),
/* organization */ (''),
/* preprocessor_version */ 'ST-DEVELOPER v20',
/* originating_system */ 'ONSHAPE BY PTC INC, 1.217',
/* authorisation */ '  ');

FILE_SCHEMA (('AP242_MANAGED_MODEL_BASED_3D_ENGINEERING_MIM_LF { 1 0 10303 442 3 1 4 }'));
ENDSEC;

DATA;
#10=SHAPE_REPRESENTATION_RELATIONSHIP('','',#102,#11);
#11=ADVANCED_BREP_SHAPE_REPRESENTATION('',(#100),#175);
#12=DEGENERATE_TOROIDAL_SURFACE('',#116,0.00241249999999974,0.00399999999999969,
 .F.);
#13=CONICAL_SURFACE('',#114,0.00157991606761005,0.0615886763275393);
#14=SPHERICAL_SURFACE('',#110,0.0014025);
#15=CYLINDRICAL_SURFACE('',#107,0.0047625);
#16=CYLINDRICAL_SURFACE('',#112,0.0014025);
#17=CYLINDRICAL_SURFACE('',#118,0.00158749999999995);
#18=ORIENTED_EDGE('',*,*,#32,.T.);
#19=ORIENTED_EDGE('',*,*,#33,.F.);
#20=ORIENTED_EDGE('',*,*,#34,.T.);
#21=ORIENTED_EDGE('',*,*,#32,.F.);
#22=ORIENTED_EDGE('',*,*,#34,.F.);
#23=ORIENTED_EDGE('',*,*,#35,.T.);
#24=ORIENTED_EDGE('',*,*,#35,.F.);
#25=ORIENTED_EDGE('',*,*,#36,.T.);
#26=ORIENTED_EDGE('',*,*,#36,.F.);
#27=ORIENTED_EDGE('',*,*,#37,.T.);
#28=ORIENTED_EDGE('',*,*,#38,.T.);
#29=ORIENTED_EDGE('',*,*,#37,.F.);
#30=ORIENTED_EDGE('',*,*,#33,.T.);
#31=ORIENTED_EDGE('',*,*,#38,.F.);
#32=EDGE_CURVE('',#39,#39,#46,.T.);
#33=EDGE_CURVE('',#40,#40,#47,.T.);
#34=EDGE_CURVE('',#41,#41,#48,.T.);
#35=EDGE_CURVE('',#42,#42,#49,.T.);
#36=EDGE_CURVE('',#43,#43,#50,.T.);
#37=EDGE_CURVE('',#44,#44,#51,.T.);
#38=EDGE_CURVE('',#45,#45,#52,.T.);
#39=VERTEX_POINT('',#154);
#40=VERTEX_POINT('',#156);
#41=VERTEX_POINT('',#159);
#42=VERTEX_POINT('',#163);
#43=VERTEX_POINT('',#166);
#44=VERTEX_POINT('',#169);
#45=VERTEX_POINT('',#172);
#46=CIRCLE('',#105,0.0047625);
#47=CIRCLE('',#106,0.00158749999999997);
#48=CIRCLE('',#108,0.0047625);
#49=CIRCLE('',#111,0.0014025);
#50=CIRCLE('',#113,0.0014025);
#51=CIRCLE('',#115,0.00157991606761005);
#52=CIRCLE('',#117,0.00158749999999994);
#53=EDGE_LOOP('',(#18));
#54=EDGE_LOOP('',(#19));
#55=EDGE_LOOP('',(#20));
#56=EDGE_LOOP('',(#21));
#57=EDGE_LOOP('',(#22));
#58=EDGE_LOOP('',(#23));
#59=EDGE_LOOP('',(#24));
#60=EDGE_LOOP('',(#25));
#61=EDGE_LOOP('',(#26));
#62=EDGE_LOOP('',(#27));
#63=EDGE_LOOP('',(#28));
#64=EDGE_LOOP('',(#29));
#65=EDGE_LOOP('',(#30));
#66=EDGE_LOOP('',(#31));
#67=FACE_BOUND('',#53,.T.);
#68=FACE_BOUND('',#54,.T.);
#69=FACE_BOUND('',#55,.T.);
#70=FACE_BOUND('',#56,.T.);
#71=FACE_BOUND('',#57,.T.);
#72=FACE_BOUND('',#58,.T.);
#73=FACE_BOUND('',#59,.T.);
#74=FACE_BOUND('',#60,.T.);
#75=FACE_BOUND('',#61,.T.);
#76=FACE_BOUND('',#62,.T.);
#77=FACE_BOUND('',#63,.T.);
#78=FACE_BOUND('',#64,.T.);
#79=FACE_BOUND('',#65,.T.);
#80=FACE_BOUND('',#66,.T.);
#81=PLANE('',#104);
#82=PLANE('',#109);
#83=ADVANCED_FACE('',(#67,#68),#81,.T.);
#84=ADVANCED_FACE('',(#69,#70),#15,.T.);
#85=ADVANCED_FACE('',(#71),#82,.T.);
#86=ADVANCED_FACE('',(#72),#14,.T.);
#87=ADVANCED_FACE('',(#73,#74),#16,.T.);
#88=ADVANCED_FACE('',(#75,#76),#13,.T.);
#89=ADVANCED_FACE('',(#77,#78),#12,.F.);
#90=ADVANCED_FACE('',(#79,#80),#17,.T.);
#91=CLOSED_SHELL('',(#83,#84,#85,#86,#87,#88,#89,#90));
#92=STYLED_ITEM('',(#93),#100);
#93=PRESENTATION_STYLE_ASSIGNMENT((#94));
#94=SURFACE_STYLE_USAGE(.BOTH.,#95);
#95=SURFACE_SIDE_STYLE('',(#96));
#96=SURFACE_STYLE_FILL_AREA(#97);
#97=FILL_AREA_STYLE('',(#98));
#98=FILL_AREA_STYLE_COLOUR('',#99);
#99=COLOUR_RGB('',0.615686274509804,0.811764705882353,0.929411764705882);
#100=MANIFOLD_SOLID_BREP('Needle Probe',#91);
#101=SHAPE_DEFINITION_REPRESENTATION(#180,#102);
#102=SHAPE_REPRESENTATION('Needle Probe',(#103),#175);
#103=AXIS2_PLACEMENT_3D('',#151,#119,#120);
#104=AXIS2_PLACEMENT_3D('',#152,#121,#122);
#105=AXIS2_PLACEMENT_3D('',#153,#123,#124);
#106=AXIS2_PLACEMENT_3D('',#155,#125,#126);
#107=AXIS2_PLACEMENT_3D('',#157,#127,#128);
#108=AXIS2_PLACEMENT_3D('',#158,#129,#130);
#109=AXIS2_PLACEMENT_3D('',#160,#131,#132);
#110=AXIS2_PLACEMENT_3D('',#161,#133,#134);
#111=AXIS2_PLACEMENT_3D('',#162,#135,#136);
#112=AXIS2_PLACEMENT_3D('',#164,#137,#138);
#113=AXIS2_PLACEMENT_3D('',#165,#139,#140);
#114=AXIS2_PLACEMENT_3D('',#167,#141,#142);
#115=AXIS2_PLACEMENT_3D('',#168,#143,#144);
#116=AXIS2_PLACEMENT_3D('',#170,#145,#146);
#117=AXIS2_PLACEMENT_3D('',#171,#147,#148);
#118=AXIS2_PLACEMENT_3D('',#173,#149,#150);
#119=DIRECTION('',(0.,0.,1.));
#120=DIRECTION('',(1.,0.,0.));
#121=DIRECTION('',(-5.699797960987E-18,0.,-1.));
#122=DIRECTION('',(-1.,0.,5.699797960987E-18));
#123=DIRECTION('',(-5.699797960987E-18,0.,-1.));
#124=DIRECTION('',(-1.,0.,5.699797960987E-18));
#125=DIRECTION('',(-5.699797960987E-18,0.,-1.));
#126=DIRECTION('',(-1.,0.,5.699797960987E-18));
#127=DIRECTION('',(-5.699797960987E-18,0.,-1.));
#128=DIRECTION('',(-1.,0.,5.699797960987E-18));
#129=DIRECTION('',(-5.699797960987E-18,0.,-1.));
#130=DIRECTION('',(-1.,0.,5.699797960987E-18));
#131=DIRECTION('',(5.699797960987E-18,0.,1.));
#132=DIRECTION('',(1.,0.,-5.699797960987E-18));
#133=DIRECTION('',(-5.699797960987E-18,0.,-1.));
#134=DIRECTION('',(-1.,0.,5.699797960987E-18));
#135=DIRECTION('',(-5.699797960987E-18,0.,-1.));
#136=DIRECTION('',(-1.,0.,5.699797960987E-18));
#137=DIRECTION('',(-5.699797960987E-18,0.,-1.));
#138=DIRECTION('',(-1.,0.,5.699797960987E-18));
#139=DIRECTION('',(-5.699797960987E-18,0.,-1.));
#140=DIRECTION('',(-1.,0.,5.699797960987E-18));
#141=DIRECTION('',(5.699797960987E-18,0.,1.));
#142=DIRECTION('',(1.,0.,-5.699797960987E-18));
#143=DIRECTION('',(-5.699797960987E-18,0.,-1.));
#144=DIRECTION('',(-1.,0.,5.699797960987E-18));
#145=DIRECTION('',(-5.699797960987E-18,0.,-1.));
#146=DIRECTION('',(-1.,0.,5.699797960987E-18));
#147=DIRECTION('',(-5.699797960987E-18,0.,-1.));
#148=DIRECTION('',(-1.,0.,5.699797960987E-18));
#149=DIRECTION('',(-5.699797960987E-18,0.,-1.));
#150=DIRECTION('',(-1.,0.,5.699797960987E-18));
#151=CARTESIAN_POINT('',(0.,0.,0.));
#152=CARTESIAN_POINT('',(0.003175,0.,0.4318));
#153=CARTESIAN_POINT('',(2.34638555302762E-18,0.,0.4318));
#154=CARTESIAN_POINT('',(-0.0047625,0.,0.4318));
#155=CARTESIAN_POINT('',(2.34638555302762E-18,0.,0.4318));
#156=CARTESIAN_POINT('',(-0.00158749999999996,0.,0.4318));
#157=CARTESIAN_POINT('',(1.29676775851186E-18,0.,0.24765));
#158=CARTESIAN_POINT('',(2.70832272355029E-18,0.,0.4953));
#159=CARTESIAN_POINT('',(-0.0047625,0.,0.4953));
#160=CARTESIAN_POINT('',(0.00238125,0.,0.4953));
#161=CARTESIAN_POINT('',(2.40741243048404E-35,0.,0.0014025));
#162=CARTESIAN_POINT('',(-1.06793239886282E-19,0.,0.0014025));
#163=CARTESIAN_POINT('',(-0.0014025,0.,0.0014025));
#164=CARTESIAN_POINT('',(1.29676775851186E-18,0.,0.24765));
#165=CARTESIAN_POINT('',(4.64312266309713E-19,0.,0.1016));
#166=CARTESIAN_POINT('',(-0.0014025,0.,0.1016));
#167=CARTESIAN_POINT('',(4.80710683721774E-19,0.,0.104477017312596));
#168=CARTESIAN_POINT('',(4.80710683721774E-19,0.,0.104477017312596));
#169=CARTESIAN_POINT('',(-0.00157991606761005,0.,0.104477017312596));
#170=CARTESIAN_POINT('',(4.33680868994202E-19,0.,0.104723216303432));
#171=CARTESIAN_POINT('',(4.82113968227738E-19,0.,0.104723216303432));
#172=CARTESIAN_POINT('',(-0.00158749999999994,0.,0.104723216303432));
#173=CARTESIAN_POINT('',(1.29676775851186E-18,0.,0.24765));
#174=MECHANICAL_DESIGN_GEOMETRIC_PRESENTATION_REPRESENTATION('',(#92),#175);
#175=(
GEOMETRIC_REPRESENTATION_CONTEXT(3)
GLOBAL_UNCERTAINTY_ASSIGNED_CONTEXT((#176))
GLOBAL_UNIT_ASSIGNED_CONTEXT((#179,#178,#177))
REPRESENTATION_CONTEXT('Needle Probe','TOP_LEVEL_ASSEMBLY_PART')
);
#176=UNCERTAINTY_MEASURE_WITH_UNIT(LENGTH_MEASURE(1.E-8),#179,
'DISTANCE_ACCURACY_VALUE','Maximum Tolerance applied to model');
#177=(
NAMED_UNIT(*)
SI_UNIT($,.STERADIAN.)
SOLID_ANGLE_UNIT()
);
#178=(
NAMED_UNIT(*)
PLANE_ANGLE_UNIT()
SI_UNIT($,.RADIAN.)
);
#179=(
LENGTH_UNIT()
NAMED_UNIT(*)
SI_UNIT($,.METRE.)
);
#180=PRODUCT_DEFINITION_SHAPE('','',#181);
#181=PRODUCT_DEFINITION('','',#183,#182);
#182=PRODUCT_DEFINITION_CONTEXT('',#189,'design');
#183=PRODUCT_DEFINITION_FORMATION_WITH_SPECIFIED_SOURCE('','',#185,
 .NOT_KNOWN.);
#184=PRODUCT_RELATED_PRODUCT_CATEGORY('','',(#185));
#185=PRODUCT('Needle Probe','Needle Probe','Needle Probe',(#187));
#186=PRODUCT_CATEGORY('','');
#187=PRODUCT_CONTEXT('',#189,'mechanical');
#188=APPLICATION_PROTOCOL_DEFINITION('international standard',
'ap242_managed_model_based_3d_engineering',2020,#189);
#189=APPLICATION_CONTEXT('managed model based 3d engineering');
ENDSEC;
END-ISO-10303-21;
