ISO-10303-21;
HEADER;
/* Generated by software containing ST-Developer
 * from STEP Tools, Inc. (www.steptools.com) 
 */
/* OPTION: using custom renumber hook */

FILE_DESCRIPTION(
/* description */ ('STEP AP242 Edition 2',
'CAx-IF Rec.Pracs.---Representation and Presentation of Product Manufa
cturing Information (PMI)---4.0---2014-10-13',
'CAx-IF Rec.Pracs.---3D Tessellated Geometry---0.4---2014-09-14','2;1',
'CAx-IF Rec.Pracs.---User Defined Attributes---1.5---2016-08-15'),
/* implementation_level */ '2;1');

FILE_NAME(
/* name */ 'NP-Crucible Assembly - Centering Top Spacer',
/* time_stamp */ '2026-07-15T12:54:18Z',
/* author */ (''),
/* organization */ (''),
/* preprocessor_version */ 'ST-DEVELOPER v20',
/* originating_system */ 'ONSHAPE BY PTC INC, 1.217',
/* authorisation */ '  ');

FILE_SCHEMA (('AP242_MANAGED_MODEL_BASED_3D_ENGINEERING_MIM_LF { 1 0 10303 442 3 1 4 }'));
ENDSEC;

DATA;
#10=SHAPE_REPRESENTATION_RELATIONSHIP('','',#395,#11);
#11=ADVANCED_BREP_SHAPE_REPRESENTATION('',(#393),#661);
#12=CYLINDRICAL_SURFACE('',#407,0.0017375);
#13=CYLINDRICAL_SURFACE('',#409,0.0017375);
#14=CYLINDRICAL_SURFACE('',#419,0.017399);
#15=CYLINDRICAL_SURFACE('',#420,0.017399);
#16=CYLINDRICAL_SURFACE('',#421,0.017399);
#17=CYLINDRICAL_SURFACE('',#422,0.0017375);
#18=CYLINDRICAL_SURFACE('',#426,0.000979160807971653);
#19=CYLINDRICAL_SURFACE('',#429,0.000979160807971653);
#20=CYLINDRICAL_SURFACE('',#432,0.000979160807971653);
#21=LINE('',#554,#57);
#22=LINE('',#558,#58);
#23=LINE('',#562,#59);
#24=LINE('',#566,#60);
#25=LINE('',#570,#61);
#26=LINE('',#574,#62);
#27=LINE('',#578,#63);
#28=LINE('',#582,#64);
#29=LINE('',#586,#65);
#30=LINE('',#588,#66);
#31=LINE('',#592,#67);
#32=LINE('',#597,#68);
#33=LINE('',#598,#69);
#34=LINE('',#600,#70);
#35=LINE('',#602,#71);
#36=LINE('',#606,#72);
#37=LINE('',#610,#73);
#38=LINE('',#614,#74);
#39=LINE('',#615,#75);
#40=LINE('',#618,#76);
#41=LINE('',#623,#77);
#42=LINE('',#627,#78);
#43=LINE('',#631,#79);
#44=LINE('',#632,#80);
#45=LINE('',#634,#81);
#46=LINE('',#635,#82);
#47=LINE('',#637,#83);
#48=LINE('',#638,#84);
#49=LINE('',#640,#85);
#50=LINE('',#641,#86);
#51=LINE('',#644,#87);
#52=LINE('',#646,#88);
#53=LINE('',#649,#89);
#54=LINE('',#651,#90);
#55=LINE('',#654,#91);
#56=LINE('',#656,#92);
#57=VECTOR('',#441,1.);
#58=VECTOR('',#444,1.);
#59=VECTOR('',#447,1.);
#60=VECTOR('',#450,1.);
#61=VECTOR('',#453,1.);
#62=VECTOR('',#456,1.);
#63=VECTOR('',#459,1.);
#64=VECTOR('',#462,1.);
#65=VECTOR('',#465,1.);
#66=VECTOR('',#468,1.);
#67=VECTOR('',#471,1.);
#68=VECTOR('',#476,1.);
#69=VECTOR('',#477,1.);
#70=VECTOR('',#480,1.);
#71=VECTOR('',#481,1.);
#72=VECTOR('',#484,1.);
#73=VECTOR('',#487,1.);
#74=VECTOR('',#490,1.);
#75=VECTOR('',#491,1.);
#76=VECTOR('',#494,1.);
#77=VECTOR('',#497,1.);
#78=VECTOR('',#500,1.);
#79=VECTOR('',#505,1.);
#80=VECTOR('',#506,1.);
#81=VECTOR('',#509,1.);
#82=VECTOR('',#510,1.);
#83=VECTOR('',#513,1.);
#84=VECTOR('',#514,1.);
#85=VECTOR('',#517,1.);
#86=VECTOR('',#518,1.);
#87=VECTOR('',#523,1.);
#88=VECTOR('',#526,1.);
#89=VECTOR('',#531,1.);
#90=VECTOR('',#534,1.);
#91=VECTOR('',#539,1.);
#92=VECTOR('',#542,1.);
#93=ORIENTED_EDGE('',*,*,#201,.F.);
#94=ORIENTED_EDGE('',*,*,#202,.T.);
#95=ORIENTED_EDGE('',*,*,#203,.F.);
#96=ORIENTED_EDGE('',*,*,#204,.F.);
#97=ORIENTED_EDGE('',*,*,#205,.F.);
#98=ORIENTED_EDGE('',*,*,#206,.T.);
#99=ORIENTED_EDGE('',*,*,#207,.F.);
#100=ORIENTED_EDGE('',*,*,#208,.F.);
#101=ORIENTED_EDGE('',*,*,#209,.F.);
#102=ORIENTED_EDGE('',*,*,#210,.T.);
#103=ORIENTED_EDGE('',*,*,#211,.F.);
#104=ORIENTED_EDGE('',*,*,#212,.F.);
#105=ORIENTED_EDGE('',*,*,#213,.T.);
#106=ORIENTED_EDGE('',*,*,#214,.T.);
#107=ORIENTED_EDGE('',*,*,#215,.T.);
#108=ORIENTED_EDGE('',*,*,#216,.T.);
#109=ORIENTED_EDGE('',*,*,#217,.T.);
#110=ORIENTED_EDGE('',*,*,#218,.T.);
#111=ORIENTED_EDGE('',*,*,#219,.F.);
#112=ORIENTED_EDGE('',*,*,#220,.F.);
#113=ORIENTED_EDGE('',*,*,#221,.T.);
#114=ORIENTED_EDGE('',*,*,#205,.T.);
#115=ORIENTED_EDGE('',*,*,#222,.F.);
#116=ORIENTED_EDGE('',*,*,#223,.T.);
#117=ORIENTED_EDGE('',*,*,#201,.T.);
#118=ORIENTED_EDGE('',*,*,#224,.F.);
#119=ORIENTED_EDGE('',*,*,#225,.F.);
#120=ORIENTED_EDGE('',*,*,#222,.T.);
#121=ORIENTED_EDGE('',*,*,#226,.T.);
#122=ORIENTED_EDGE('',*,*,#227,.T.);
#123=ORIENTED_EDGE('',*,*,#228,.F.);
#124=ORIENTED_EDGE('',*,*,#229,.T.);
#125=ORIENTED_EDGE('',*,*,#230,.T.);
#126=ORIENTED_EDGE('',*,*,#231,.T.);
#127=ORIENTED_EDGE('',*,*,#232,.F.);
#128=ORIENTED_EDGE('',*,*,#220,.T.);
#129=ORIENTED_EDGE('',*,*,#233,.T.);
#130=ORIENTED_EDGE('',*,*,#234,.T.);
#131=ORIENTED_EDGE('',*,*,#235,.F.);
#132=ORIENTED_EDGE('',*,*,#236,.F.);
#133=ORIENTED_EDGE('',*,*,#237,.F.);
#134=ORIENTED_EDGE('',*,*,#238,.F.);
#135=ORIENTED_EDGE('',*,*,#239,.F.);
#136=ORIENTED_EDGE('',*,*,#240,.F.);
#137=ORIENTED_EDGE('',*,*,#236,.T.);
#138=ORIENTED_EDGE('',*,*,#241,.T.);
#139=ORIENTED_EDGE('',*,*,#213,.F.);
#140=ORIENTED_EDGE('',*,*,#242,.F.);
#141=ORIENTED_EDGE('',*,*,#243,.F.);
#142=ORIENTED_EDGE('',*,*,#240,.T.);
#143=ORIENTED_EDGE('',*,*,#244,.T.);
#144=ORIENTED_EDGE('',*,*,#215,.F.);
#145=ORIENTED_EDGE('',*,*,#245,.F.);
#146=ORIENTED_EDGE('',*,*,#238,.T.);
#147=ORIENTED_EDGE('',*,*,#246,.T.);
#148=ORIENTED_EDGE('',*,*,#217,.F.);
#149=ORIENTED_EDGE('',*,*,#229,.F.);
#150=ORIENTED_EDGE('',*,*,#247,.T.);
#151=ORIENTED_EDGE('',*,*,#209,.T.);
#152=ORIENTED_EDGE('',*,*,#248,.F.);
#153=ORIENTED_EDGE('',*,*,#237,.T.);
#154=ORIENTED_EDGE('',*,*,#242,.T.);
#155=ORIENTED_EDGE('',*,*,#218,.F.);
#156=ORIENTED_EDGE('',*,*,#246,.F.);
#157=ORIENTED_EDGE('',*,*,#232,.T.);
#158=ORIENTED_EDGE('',*,*,#249,.T.);
#159=ORIENTED_EDGE('',*,*,#206,.F.);
#160=ORIENTED_EDGE('',*,*,#221,.F.);
#161=ORIENTED_EDGE('',*,*,#248,.T.);
#162=ORIENTED_EDGE('',*,*,#208,.T.);
#163=ORIENTED_EDGE('',*,*,#250,.F.);
#164=ORIENTED_EDGE('',*,*,#230,.F.);
#165=ORIENTED_EDGE('',*,*,#250,.T.);
#166=ORIENTED_EDGE('',*,*,#207,.T.);
#167=ORIENTED_EDGE('',*,*,#249,.F.);
#168=ORIENTED_EDGE('',*,*,#231,.F.);
#169=ORIENTED_EDGE('',*,*,#228,.T.);
#170=ORIENTED_EDGE('',*,*,#251,.T.);
#171=ORIENTED_EDGE('',*,*,#210,.F.);
#172=ORIENTED_EDGE('',*,*,#247,.F.);
#173=ORIENTED_EDGE('',*,*,#224,.T.);
#174=ORIENTED_EDGE('',*,*,#212,.T.);
#175=ORIENTED_EDGE('',*,*,#252,.F.);
#176=ORIENTED_EDGE('',*,*,#226,.F.);
#177=ORIENTED_EDGE('',*,*,#252,.T.);
#178=ORIENTED_EDGE('',*,*,#211,.T.);
#179=ORIENTED_EDGE('',*,*,#251,.F.);
#180=ORIENTED_EDGE('',*,*,#227,.F.);
#181=ORIENTED_EDGE('',*,*,#225,.T.);
#182=ORIENTED_EDGE('',*,*,#253,.T.);
#183=ORIENTED_EDGE('',*,*,#202,.F.);
#184=ORIENTED_EDGE('',*,*,#223,.F.);
#185=ORIENTED_EDGE('',*,*,#219,.T.);
#186=ORIENTED_EDGE('',*,*,#204,.T.);
#187=ORIENTED_EDGE('',*,*,#254,.F.);
#188=ORIENTED_EDGE('',*,*,#233,.F.);
#189=ORIENTED_EDGE('',*,*,#254,.T.);
#190=ORIENTED_EDGE('',*,*,#203,.T.);
#191=ORIENTED_EDGE('',*,*,#253,.F.);
#192=ORIENTED_EDGE('',*,*,#234,.F.);
#193=ORIENTED_EDGE('',*,*,#239,.T.);
#194=ORIENTED_EDGE('',*,*,#245,.T.);
#195=ORIENTED_EDGE('',*,*,#216,.F.);
#196=ORIENTED_EDGE('',*,*,#244,.F.);
#197=ORIENTED_EDGE('',*,*,#235,.T.);
#198=ORIENTED_EDGE('',*,*,#243,.T.);
#199=ORIENTED_EDGE('',*,*,#214,.F.);
#200=ORIENTED_EDGE('',*,*,#241,.F.);
#201=EDGE_CURVE('',#255,#256,#291,.T.);
#202=EDGE_CURVE('',#255,#257,#21,.T.);
#203=EDGE_CURVE('',#258,#257,#292,.T.);
#204=EDGE_CURVE('',#259,#258,#22,.T.);
#205=EDGE_CURVE('',#260,#259,#293,.T.);
#206=EDGE_CURVE('',#260,#261,#23,.T.);
#207=EDGE_CURVE('',#262,#261,#294,.T.);
#208=EDGE_CURVE('',#263,#262,#24,.T.);
#209=EDGE_CURVE('',#264,#263,#295,.T.);
#210=EDGE_CURVE('',#264,#265,#25,.T.);
#211=EDGE_CURVE('',#266,#265,#296,.T.);
#212=EDGE_CURVE('',#256,#266,#26,.T.);
#213=EDGE_CURVE('',#267,#268,#297,.T.);
#214=EDGE_CURVE('',#268,#269,#27,.T.);
#215=EDGE_CURVE('',#269,#270,#298,.T.);
#216=EDGE_CURVE('',#270,#271,#28,.T.);
#217=EDGE_CURVE('',#271,#272,#299,.T.);
#218=EDGE_CURVE('',#272,#267,#29,.T.);
#219=EDGE_CURVE('',#273,#259,#30,.T.);
#220=EDGE_CURVE('',#274,#273,#300,.T.);
#221=EDGE_CURVE('',#274,#260,#31,.T.);
#222=EDGE_CURVE('',#275,#276,#301,.T.);
#223=EDGE_CURVE('',#275,#255,#32,.T.);
#224=EDGE_CURVE('',#276,#256,#33,.T.);
#225=EDGE_CURVE('',#275,#277,#34,.T.);
#226=EDGE_CURVE('',#276,#278,#35,.T.);
#227=EDGE_CURVE('',#278,#279,#302,.T.);
#228=EDGE_CURVE('',#280,#279,#36,.T.);
#229=EDGE_CURVE('',#280,#281,#303,.T.);
#230=EDGE_CURVE('',#281,#282,#37,.T.);
#231=EDGE_CURVE('',#282,#283,#304,.T.);
#232=EDGE_CURVE('',#274,#283,#38,.T.);
#233=EDGE_CURVE('',#273,#284,#39,.T.);
#234=EDGE_CURVE('',#284,#277,#305,.T.);
#235=EDGE_CURVE('',#285,#286,#40,.T.);
#236=EDGE_CURVE('',#287,#285,#306,.T.);
#237=EDGE_CURVE('',#288,#287,#41,.T.);
#238=EDGE_CURVE('',#289,#288,#307,.T.);
#239=EDGE_CURVE('',#290,#289,#42,.T.);
#240=EDGE_CURVE('',#286,#290,#308,.T.);
#241=EDGE_CURVE('',#285,#268,#43,.T.);
#242=EDGE_CURVE('',#287,#267,#44,.T.);
#243=EDGE_CURVE('',#286,#269,#45,.T.);
#244=EDGE_CURVE('',#290,#270,#46,.T.);
#245=EDGE_CURVE('',#289,#271,#47,.T.);
#246=EDGE_CURVE('',#288,#272,#48,.T.);
#247=EDGE_CURVE('',#280,#264,#49,.T.);
#248=EDGE_CURVE('',#281,#263,#50,.T.);
#249=EDGE_CURVE('',#283,#261,#51,.T.);
#250=EDGE_CURVE('',#282,#262,#52,.T.);
#251=EDGE_CURVE('',#279,#265,#53,.T.);
#252=EDGE_CURVE('',#278,#266,#54,.T.);
#253=EDGE_CURVE('',#277,#257,#55,.T.);
#254=EDGE_CURVE('',#284,#258,#56,.T.);
#255=VERTEX_POINT('',#552);
#256=VERTEX_POINT('',#553);
#257=VERTEX_POINT('',#555);
#258=VERTEX_POINT('',#557);
#259=VERTEX_POINT('',#559);
#260=VERTEX_POINT('',#561);
#261=VERTEX_POINT('',#563);
#262=VERTEX_POINT('',#565);
#263=VERTEX_POINT('',#567);
#264=VERTEX_POINT('',#569);
#265=VERTEX_POINT('',#571);
#266=VERTEX_POINT('',#573);
#267=VERTEX_POINT('',#576);
#268=VERTEX_POINT('',#577);
#269=VERTEX_POINT('',#579);
#270=VERTEX_POINT('',#581);
#271=VERTEX_POINT('',#583);
#272=VERTEX_POINT('',#585);
#273=VERTEX_POINT('',#589);
#274=VERTEX_POINT('',#591);
#275=VERTEX_POINT('',#595);
#276=VERTEX_POINT('',#596);
#277=VERTEX_POINT('',#601);
#278=VERTEX_POINT('',#603);
#279=VERTEX_POINT('',#605);
#280=VERTEX_POINT('',#607);
#281=VERTEX_POINT('',#609);
#282=VERTEX_POINT('',#611);
#283=VERTEX_POINT('',#613);
#284=VERTEX_POINT('',#616);
#285=VERTEX_POINT('',#619);
#286=VERTEX_POINT('',#620);
#287=VERTEX_POINT('',#622);
#288=VERTEX_POINT('',#624);
#289=VERTEX_POINT('',#626);
#290=VERTEX_POINT('',#628);
#291=CIRCLE('',#398,0.0017375);
#292=CIRCLE('',#399,0.000979160807971653);
#293=CIRCLE('',#400,0.0017375);
#294=CIRCLE('',#401,0.000979160807971653);
#295=CIRCLE('',#402,0.0017375);
#296=CIRCLE('',#403,0.000979160807971653);
#297=CIRCLE('',#404,0.017399);
#298=CIRCLE('',#405,0.017399);
#299=CIRCLE('',#406,0.017399);
#300=CIRCLE('',#408,0.0017375);
#301=CIRCLE('',#410,0.0017375);
#302=CIRCLE('',#412,0.000979160807971653);
#303=CIRCLE('',#413,0.0017375);
#304=CIRCLE('',#414,0.000979160807971653);
#305=CIRCLE('',#415,0.000979160807971653);
#306=CIRCLE('',#416,0.017399);
#307=CIRCLE('',#417,0.017399);
#308=CIRCLE('',#418,0.017399);
#309=EDGE_LOOP('',(#93,#94,#95,#96,#97,#98,#99,#100,#101,#102,#103,#104));
#310=EDGE_LOOP('',(#105,#106,#107,#108,#109,#110));
#311=EDGE_LOOP('',(#111,#112,#113,#114));
#312=EDGE_LOOP('',(#115,#116,#117,#118));
#313=EDGE_LOOP('',(#119,#120,#121,#122,#123,#124,#125,#126,#127,#128,#129,
#130));
#314=EDGE_LOOP('',(#131,#132,#133,#134,#135,#136));
#315=EDGE_LOOP('',(#137,#138,#139,#140));
#316=EDGE_LOOP('',(#141,#142,#143,#144));
#317=EDGE_LOOP('',(#145,#146,#147,#148));
#318=EDGE_LOOP('',(#149,#150,#151,#152));
#319=EDGE_LOOP('',(#153,#154,#155,#156));
#320=EDGE_LOOP('',(#157,#158,#159,#160));
#321=EDGE_LOOP('',(#161,#162,#163,#164));
#322=EDGE_LOOP('',(#165,#166,#167,#168));
#323=EDGE_LOOP('',(#169,#170,#171,#172));
#324=EDGE_LOOP('',(#173,#174,#175,#176));
#325=EDGE_LOOP('',(#177,#178,#179,#180));
#326=EDGE_LOOP('',(#181,#182,#183,#184));
#327=EDGE_LOOP('',(#185,#186,#187,#188));
#328=EDGE_LOOP('',(#189,#190,#191,#192));
#329=EDGE_LOOP('',(#193,#194,#195,#196));
#330=EDGE_LOOP('',(#197,#198,#199,#200));
#331=FACE_BOUND('',#309,.T.);
#332=FACE_BOUND('',#310,.T.);
#333=FACE_BOUND('',#311,.T.);
#334=FACE_BOUND('',#312,.T.);
#335=FACE_BOUND('',#313,.T.);
#336=FACE_BOUND('',#314,.T.);
#337=FACE_BOUND('',#315,.T.);
#338=FACE_BOUND('',#316,.T.);
#339=FACE_BOUND('',#317,.T.);
#340=FACE_BOUND('',#318,.T.);
#341=FACE_BOUND('',#319,.T.);
#342=FACE_BOUND('',#320,.T.);
#343=FACE_BOUND('',#321,.T.);
#344=FACE_BOUND('',#322,.T.);
#345=FACE_BOUND('',#323,.T.);
#346=FACE_BOUND('',#324,.T.);
#347=FACE_BOUND('',#325,.T.);
#348=FACE_BOUND('',#326,.T.);
#349=FACE_BOUND('',#327,.T.);
#350=FACE_BOUND('',#328,.T.);
#351=FACE_BOUND('',#329,.T.);
#352=FACE_BOUND('',#330,.T.);
#353=PLANE('',#397);
#354=PLANE('',#411);
#355=PLANE('',#423);
#356=PLANE('',#424);
#357=PLANE('',#425);
#358=PLANE('',#427);
#359=PLANE('',#428);
#360=PLANE('',#430);
#361=PLANE('',#431);
#362=PLANE('',#433);
#363=PLANE('',#434);
#364=ADVANCED_FACE('',(#331,#332),#353,.T.);
#365=ADVANCED_FACE('',(#333),#12,.F.);
#366=ADVANCED_FACE('',(#334),#13,.F.);
#367=ADVANCED_FACE('',(#335,#336),#354,.F.);
#368=ADVANCED_FACE('',(#337),#14,.T.);
#369=ADVANCED_FACE('',(#338),#15,.T.);
#370=ADVANCED_FACE('',(#339),#16,.T.);
#371=ADVANCED_FACE('',(#340),#17,.F.);
#372=ADVANCED_FACE('',(#341),#355,.T.);
#373=ADVANCED_FACE('',(#342),#356,.T.);
#374=ADVANCED_FACE('',(#343),#357,.F.);
#375=ADVANCED_FACE('',(#344),#18,.F.);
#376=ADVANCED_FACE('',(#345),#358,.T.);
#377=ADVANCED_FACE('',(#346),#359,.F.);
#378=ADVANCED_FACE('',(#347),#19,.F.);
#379=ADVANCED_FACE('',(#348),#360,.T.);
#380=ADVANCED_FACE('',(#349),#361,.F.);
#381=ADVANCED_FACE('',(#350),#20,.F.);
#382=ADVANCED_FACE('',(#351),#362,.T.);
#383=ADVANCED_FACE('',(#352),#363,.T.);
#384=CLOSED_SHELL('',(#364,#365,#366,#367,#368,#369,#370,#371,#372,#373,
#374,#375,#376,#377,#378,#379,#380,#381,#382,#383));
#385=STYLED_ITEM('',(#386),#393);
#386=PRESENTATION_STYLE_ASSIGNMENT((#387));
#387=SURFACE_STYLE_USAGE(.BOTH.,#388);
#388=SURFACE_SIDE_STYLE('',(#389));
#389=SURFACE_STYLE_FILL_AREA(#390);
#390=FILL_AREA_STYLE('',(#391));
#391=FILL_AREA_STYLE_COLOUR('',#392);
#392=COLOUR_RGB('',0.980392156862745,0.713725490196078,0.00392156862745098);
#393=MANIFOLD_SOLID_BREP('Centering Top Spacer',#384);
#394=SHAPE_DEFINITION_REPRESENTATION(#666,#395);
#395=SHAPE_REPRESENTATION('Centering Top Spacer',(#396),#661);
#396=AXIS2_PLACEMENT_3D('',#549,#435,#436);
#397=AXIS2_PLACEMENT_3D('',#550,#437,#438);
#398=AXIS2_PLACEMENT_3D('',#551,#439,#440);
#399=AXIS2_PLACEMENT_3D('',#556,#442,#443);
#400=AXIS2_PLACEMENT_3D('',#560,#445,#446);
#401=AXIS2_PLACEMENT_3D('',#564,#448,#449);
#402=AXIS2_PLACEMENT_3D('',#568,#451,#452);
#403=AXIS2_PLACEMENT_3D('',#572,#454,#455);
#404=AXIS2_PLACEMENT_3D('',#575,#457,#458);
#405=AXIS2_PLACEMENT_3D('',#580,#460,#461);
#406=AXIS2_PLACEMENT_3D('',#584,#463,#464);
#407=AXIS2_PLACEMENT_3D('',#587,#466,#467);
#408=AXIS2_PLACEMENT_3D('',#590,#469,#470);
#409=AXIS2_PLACEMENT_3D('',#593,#472,#473);
#410=AXIS2_PLACEMENT_3D('',#594,#474,#475);
#411=AXIS2_PLACEMENT_3D('',#599,#478,#479);
#412=AXIS2_PLACEMENT_3D('',#604,#482,#483);
#413=AXIS2_PLACEMENT_3D('',#608,#485,#486);
#414=AXIS2_PLACEMENT_3D('',#612,#488,#489);
#415=AXIS2_PLACEMENT_3D('',#617,#492,#493);
#416=AXIS2_PLACEMENT_3D('',#621,#495,#496);
#417=AXIS2_PLACEMENT_3D('',#625,#498,#499);
#418=AXIS2_PLACEMENT_3D('',#629,#501,#502);
#419=AXIS2_PLACEMENT_3D('',#630,#503,#504);
#420=AXIS2_PLACEMENT_3D('',#633,#507,#508);
#421=AXIS2_PLACEMENT_3D('',#636,#511,#512);
#422=AXIS2_PLACEMENT_3D('',#639,#515,#516);
#423=AXIS2_PLACEMENT_3D('',#642,#519,#520);
#424=AXIS2_PLACEMENT_3D('',#643,#521,#522);
#425=AXIS2_PLACEMENT_3D('',#645,#524,#525);
#426=AXIS2_PLACEMENT_3D('',#647,#527,#528);
#427=AXIS2_PLACEMENT_3D('',#648,#529,#530);
#428=AXIS2_PLACEMENT_3D('',#650,#532,#533);
#429=AXIS2_PLACEMENT_3D('',#652,#535,#536);
#430=AXIS2_PLACEMENT_3D('',#653,#537,#538);
#431=AXIS2_PLACEMENT_3D('',#655,#540,#541);
#432=AXIS2_PLACEMENT_3D('',#657,#543,#544);
#433=AXIS2_PLACEMENT_3D('',#658,#545,#546);
#434=AXIS2_PLACEMENT_3D('',#659,#547,#548);
#435=DIRECTION('',(0.,0.,1.));
#436=DIRECTION('',(1.,0.,0.));
#437=DIRECTION('',(5.699797960987E-18,0.,1.));
#438=DIRECTION('',(1.,0.,-5.699797960987E-18));
#439=DIRECTION('',(5.699797960987E-18,0.,1.));
#440=DIRECTION('',(1.,0.,-5.699797960987E-18));
#441=DIRECTION('',(0.866025403784439,0.5,-4.93616983065349E-18));
#442=DIRECTION('',(5.699797960987E-18,0.,1.));
#443=DIRECTION('',(1.,0.,-5.699797960987E-18));
#444=DIRECTION('',(0.866025403784439,0.5,-4.93616983065349E-18));
#445=DIRECTION('',(5.699797960987E-18,0.,1.));
#446=DIRECTION('',(1.,0.,-5.699797960987E-18));
#447=DIRECTION('',(0.,-1.,0.));
#448=DIRECTION('',(5.699797960987E-18,0.,1.));
#449=DIRECTION('',(1.,0.,-5.699797960987E-18));
#450=DIRECTION('',(0.,-1.,0.));
#451=DIRECTION('',(5.699797960987E-18,0.,1.));
#452=DIRECTION('',(1.,0.,-5.699797960987E-18));
#453=DIRECTION('',(-0.866025403784439,0.5,4.93616983065349E-18));
#454=DIRECTION('',(5.699797960987E-18,0.,1.));
#455=DIRECTION('',(1.,0.,-5.699797960987E-18));
#456=DIRECTION('',(-0.866025403784438,0.5,4.93616983065349E-18));
#457=DIRECTION('',(5.699797960987E-18,0.,1.));
#458=DIRECTION('',(1.,0.,-5.699797960987E-18));
#459=DIRECTION('',(1.,0.,-5.699797960987E-18));
#460=DIRECTION('',(5.699797960987E-18,0.,1.));
#461=DIRECTION('',(1.,0.,-5.699797960987E-18));
#462=DIRECTION('',(-0.5,0.866025403784439,2.8498989804935E-18));
#463=DIRECTION('',(5.699797960987E-18,0.,1.));
#464=DIRECTION('',(1.,0.,-5.699797960987E-18));
#465=DIRECTION('',(-0.5,-0.866025403784439,2.8498989804935E-18));
#466=DIRECTION('',(5.699797960987E-18,0.,1.));
#467=DIRECTION('',(1.,0.,-5.699797960987E-18));
#468=DIRECTION('',(5.699797960987E-18,0.,1.));
#469=DIRECTION('',(5.699797960987E-18,0.,1.));
#470=DIRECTION('',(1.,0.,-5.699797960987E-18));
#471=DIRECTION('',(5.699797960987E-18,0.,1.));
#472=DIRECTION('',(5.699797960987E-18,0.,1.));
#473=DIRECTION('',(1.,0.,-5.699797960987E-18));
#474=DIRECTION('',(5.699797960987E-18,0.,1.));
#475=DIRECTION('',(1.,0.,-5.699797960987E-18));
#476=DIRECTION('',(5.699797960987E-18,0.,1.));
#477=DIRECTION('',(5.699797960987E-18,0.,1.));
#478=DIRECTION('',(5.699797960987E-18,0.,1.));
#479=DIRECTION('',(1.,0.,-5.699797960987E-18));
#480=DIRECTION('',(0.866025403784439,0.5,-4.93616983065349E-18));
#481=DIRECTION('',(-0.866025403784438,0.5,4.93616983065349E-18));
#482=DIRECTION('',(5.699797960987E-18,0.,1.));
#483=DIRECTION('',(1.,0.,-5.699797960987E-18));
#484=DIRECTION('',(-0.866025403784439,0.5,4.93616983065349E-18));
#485=DIRECTION('',(5.699797960987E-18,0.,1.));
#486=DIRECTION('',(1.,0.,-5.699797960987E-18));
#487=DIRECTION('',(0.,-1.,0.));
#488=DIRECTION('',(5.699797960987E-18,0.,1.));
#489=DIRECTION('',(1.,0.,-5.699797960987E-18));
#490=DIRECTION('',(0.,-1.,0.));
#491=DIRECTION('',(0.866025403784439,0.5,-4.93616983065349E-18));
#492=DIRECTION('',(5.699797960987E-18,0.,1.));
#493=DIRECTION('',(1.,0.,-5.699797960987E-18));
#494=DIRECTION('',(1.,0.,-5.699797960987E-18));
#495=DIRECTION('',(5.699797960987E-18,0.,1.));
#496=DIRECTION('',(1.,0.,-5.699797960987E-18));
#497=DIRECTION('',(-0.5,-0.866025403784439,2.8498989804935E-18));
#498=DIRECTION('',(5.699797960987E-18,0.,1.));
#499=DIRECTION('',(1.,0.,-5.699797960987E-18));
#500=DIRECTION('',(-0.5,0.866025403784439,2.8498989804935E-18));
#501=DIRECTION('',(5.699797960987E-18,0.,1.));
#502=DIRECTION('',(1.,0.,-5.699797960987E-18));
#503=DIRECTION('',(5.699797960987E-18,0.,1.));
#504=DIRECTION('',(1.,0.,-5.699797960987E-18));
#505=DIRECTION('',(5.699797960987E-18,0.,1.));
#506=DIRECTION('',(5.699797960987E-18,0.,1.));
#507=DIRECTION('',(5.699797960987E-18,0.,1.));
#508=DIRECTION('',(1.,0.,-5.699797960987E-18));
#509=DIRECTION('',(5.699797960987E-18,0.,1.));
#510=DIRECTION('',(5.699797960987E-18,0.,1.));
#511=DIRECTION('',(5.699797960987E-18,0.,1.));
#512=DIRECTION('',(1.,0.,-5.699797960987E-18));
#513=DIRECTION('',(5.699797960987E-18,0.,1.));
#514=DIRECTION('',(5.699797960987E-18,0.,1.));
#515=DIRECTION('',(5.699797960987E-18,0.,1.));
#516=DIRECTION('',(1.,0.,-5.699797960987E-18));
#517=DIRECTION('',(5.699797960987E-18,0.,1.));
#518=DIRECTION('',(5.699797960987E-18,0.,1.));
#519=DIRECTION('',(-0.866025403784439,0.5,4.93616983065349E-18));
#520=DIRECTION('',(-0.5,-0.866025403784439,0.));
#521=DIRECTION('',(-1.,0.,5.699797960987E-18));
#522=DIRECTION('',(5.699797960987E-18,0.,1.));
#523=DIRECTION('',(5.699797960987E-18,0.,1.));
#524=DIRECTION('',(-1.,0.,5.699797960987E-18));
#525=DIRECTION('',(5.699797960987E-18,0.,1.));
#526=DIRECTION('',(5.699797960987E-18,0.,1.));
#527=DIRECTION('',(5.699797960987E-18,0.,1.));
#528=DIRECTION('',(1.,0.,-5.699797960987E-18));
#529=DIRECTION('',(0.5,0.866025403784439,-2.8498989804935E-18));
#530=DIRECTION('',(-0.866025403784439,0.5,0.));
#531=DIRECTION('',(5.699797960987E-18,0.,1.));
#532=DIRECTION('',(0.5,0.866025403784438,-2.8498989804935E-18));
#533=DIRECTION('',(-0.866025403784438,0.5,0.));
#534=DIRECTION('',(5.699797960987E-18,0.,1.));
#535=DIRECTION('',(5.699797960987E-18,0.,1.));
#536=DIRECTION('',(1.,0.,-5.699797960987E-18));
#537=DIRECTION('',(0.5,-0.866025403784439,-2.8498989804935E-18));
#538=DIRECTION('',(0.866025403784439,0.5,0.));
#539=DIRECTION('',(5.699797960987E-18,0.,1.));
#540=DIRECTION('',(0.5,-0.866025403784439,-2.8498989804935E-18));
#541=DIRECTION('',(0.866025403784439,0.5,0.));
#542=DIRECTION('',(5.699797960987E-18,0.,1.));
#543=DIRECTION('',(5.699797960987E-18,0.,1.));
#544=DIRECTION('',(1.,0.,-5.699797960987E-18));
#545=DIRECTION('',(0.866025403784439,0.5,-4.93616983065349E-18));
#546=DIRECTION('',(-0.5,0.866025403784439,0.));
#547=DIRECTION('',(0.,-1.,0.));
#548=DIRECTION('',(0.,0.,-1.));
#549=CARTESIAN_POINT('',(0.,0.,0.));
#550=CARTESIAN_POINT('',(0.00956825,0.,0.109804573881636));
#551=CARTESIAN_POINT('',(5.11076679791027E-19,0.,0.109804573881636));
#552=CARTESIAN_POINT('',(0.00075344524804201,0.00156563932890143,0.109804573881636));
#553=CARTESIAN_POINT('',(-0.000753445248042006,0.00156563932890143,0.109804573881636));
#554=CARTESIAN_POINT('',(0.00143097052770475,0.00195680873149748,0.109804573881636));
#555=CARTESIAN_POINT('',(0.00210849580736749,0.00234797813409354,0.109804573881636));
#556=CARTESIAN_POINT('',(0.00259807621135332,0.0015,0.109804573881636));
#557=CARTESIAN_POINT('',(0.00308765661533914,0.000652021865906451,0.109804573881636));
#558=CARTESIAN_POINT('',(0.0024101313356764,0.000260852463310392,0.109804573881636));
#559=CARTESIAN_POINT('',(0.00173260605601366,-0.000130316939285668,0.109804573881636));
#560=CARTESIAN_POINT('',(5.11076679791027E-19,0.,0.109804573881636));
#561=CARTESIAN_POINT('',(0.000979160807971652,-0.00143532238961576,0.109804573881636));
#562=CARTESIAN_POINT('',(0.000979160807971653,-0.00221766119480788,0.109804573881636));
#563=CARTESIAN_POINT('',(0.000979160807971653,-0.003,0.109804573881636));
#564=CARTESIAN_POINT('',(-4.60887331692487E-19,-0.003,0.109804573881636));
#565=CARTESIAN_POINT('',(-0.000979160807971653,-0.003,0.109804573881636));
#566=CARTESIAN_POINT('',(-0.000979160807971653,-0.00221766119480788,0.109804573881636));
#567=CARTESIAN_POINT('',(-0.000979160807971653,-0.00143532238961576,0.109804573881636));
#568=CARTESIAN_POINT('',(5.11076679791027E-19,0.,0.109804573881636));
#569=CARTESIAN_POINT('',(-0.00173260605601366,-0.000130316939285665,0.109804573881636));
#570=CARTESIAN_POINT('',(-0.0024101313356764,0.000260852463310395,0.109804573881636));
#571=CARTESIAN_POINT('',(-0.00308765661533914,0.000652021865906454,0.109804573881636));
#572=CARTESIAN_POINT('',(-0.00259807621135332,0.0015,0.109804573881636));
#573=CARTESIAN_POINT('',(-0.00210849580736749,0.00234797813409355,0.109804573881636));
#574=CARTESIAN_POINT('',(-0.00143097052770475,0.00195680873149749,0.109804573881636));
#575=CARTESIAN_POINT('',(5.11076679791027E-19,0.,0.109804573881636));
#576=CARTESIAN_POINT('',(-0.0166916143512242,-0.00491072411666614,0.109804573881636));
#577=CARTESIAN_POINT('',(-0.0125986190116219,-0.012,0.109804573881636));
#578=CARTESIAN_POINT('',(2.0332876174297E-53,-0.012,0.109804573881636));
#579=CARTESIAN_POINT('',(0.0125986190116219,-0.012,0.109804573881636));
#580=CARTESIAN_POINT('',(5.11076679791027E-19,0.,0.109804573881636));
#581=CARTESIAN_POINT('',(0.0166916143512242,-0.00491072411666614,0.109804573881636));
#582=CARTESIAN_POINT('',(0.0103923048454133,0.006,0.109804573881636));
#583=CARTESIAN_POINT('',(0.00409299533960233,0.0169107241166662,0.109804573881636));
#584=CARTESIAN_POINT('',(5.11076679791027E-19,0.,0.109804573881636));
#585=CARTESIAN_POINT('',(-0.00409299533960233,0.0169107241166662,0.109804573881636));
#586=CARTESIAN_POINT('',(-0.0103923048454133,0.006,0.109804573881636));
#587=CARTESIAN_POINT('',(1.41424976062768E-18,0.,0.268261608151716));
#588=CARTESIAN_POINT('',(0.00173260605601366,-0.000130316939285668,0.0848045738816357));
#589=CARTESIAN_POINT('',(0.00173260605601366,-0.000130316939285668,0.106629573881636));
#590=CARTESIAN_POINT('',(4.92979821264894E-19,0.,0.106629573881636));
#591=CARTESIAN_POINT('',(0.000979160807971652,-0.00143532238961576,0.106629573881636));
#592=CARTESIAN_POINT('',(0.000979160807971652,-0.00143532238961576,0.0848045738816357));
#593=CARTESIAN_POINT('',(1.41424976062768E-18,0.,0.268261608151716));
#594=CARTESIAN_POINT('',(4.92979821264894E-19,0.,0.106629573881636));
#595=CARTESIAN_POINT('',(0.00075344524804201,0.00156563932890143,0.106629573881636));
#596=CARTESIAN_POINT('',(-0.000753445248042006,0.00156563932890143,0.106629573881636));
#597=CARTESIAN_POINT('',(0.00075344524804201,0.00156563932890143,0.0848045738816357));
#598=CARTESIAN_POINT('',(-0.000753445248042006,0.00156563932890143,0.0848045738816357));
#599=CARTESIAN_POINT('',(0.00956825,0.,0.106629573881636));
#600=CARTESIAN_POINT('',(0.00668660709601418,0.00499115191897378,0.106629573881636));
#601=CARTESIAN_POINT('',(0.00210849580736749,0.00234797813409355,0.106629573881636));
#602=CARTESIAN_POINT('',(0.00766576790398582,-0.00329519565078668,0.106629573881636));
#603=CARTESIAN_POINT('',(-0.00210849580736749,0.00234797813409355,0.106629573881636));
#604=CARTESIAN_POINT('',(-0.00259807621135332,0.0015,0.106629573881636));
#605=CARTESIAN_POINT('',(-0.00308765661533914,0.000652021865906453,0.106629573881636));
#606=CARTESIAN_POINT('',(0.00668660709601417,-0.00499115191897378,0.106629573881636));
#607=CARTESIAN_POINT('',(-0.00173260605601366,-0.000130316939285665,0.106629573881636));
#608=CARTESIAN_POINT('',(4.92979821264894E-19,0.,0.106629573881636));
#609=CARTESIAN_POINT('',(-0.000979160807971653,-0.00143532238961576,0.106629573881636));
#610=CARTESIAN_POINT('',(-0.000979160807971653,0.,0.106629573881636));
#611=CARTESIAN_POINT('',(-0.000979160807971653,-0.003,0.106629573881636));
#612=CARTESIAN_POINT('',(-4.7898419021862E-19,-0.003,0.106629573881636));
#613=CARTESIAN_POINT('',(0.000979160807971652,-0.003,0.106629573881636));
#614=CARTESIAN_POINT('',(0.000979160807971653,0.,0.106629573881636));
#615=CARTESIAN_POINT('',(0.00766576790398583,0.00329519565078668,0.106629573881636));
#616=CARTESIAN_POINT('',(0.00308765661533914,0.000652021865906451,0.106629573881636));
#617=CARTESIAN_POINT('',(0.00259807621135332,0.0015,0.106629573881636));
#618=CARTESIAN_POINT('',(0.00956825,-0.012,0.106629573881636));
#619=CARTESIAN_POINT('',(-0.0125986190116219,-0.012,0.106629573881636));
#620=CARTESIAN_POINT('',(0.0125986190116219,-0.012,0.106629573881636));
#621=CARTESIAN_POINT('',(4.92979821264894E-19,0.,0.106629573881636));
#622=CARTESIAN_POINT('',(-0.0166916143512242,-0.00491072411666614,0.106629573881636));
#623=CARTESIAN_POINT('',(-0.00800024234541327,0.0101431737848802,0.106629573881636));
#624=CARTESIAN_POINT('',(-0.00409299533960233,0.0169107241166662,0.106629573881636));
#625=CARTESIAN_POINT('',(4.92979821264894E-19,0.,0.106629573881636));
#626=CARTESIAN_POINT('',(0.00409299533960233,0.0169107241166662,0.106629573881636));
#627=CARTESIAN_POINT('',(0.0127843673454133,0.00185682621511977,0.106629573881636));
#628=CARTESIAN_POINT('',(0.0166916143512242,-0.00491072411666614,0.106629573881636));
#629=CARTESIAN_POINT('',(4.92979821264894E-19,0.,0.106629573881636));
#630=CARTESIAN_POINT('',(1.41424976062768E-18,0.,0.268261608151716));
#631=CARTESIAN_POINT('',(-0.0125986190116219,-0.012,0.0848045738816357));
#632=CARTESIAN_POINT('',(-0.0166916143512242,-0.00491072411666614,0.0848045738816357));
#633=CARTESIAN_POINT('',(1.41424976062768E-18,0.,0.268261608151716));
#634=CARTESIAN_POINT('',(0.0125986190116219,-0.012,0.0848045738816357));
#635=CARTESIAN_POINT('',(0.0166916143512242,-0.00491072411666614,0.0848045738816357));
#636=CARTESIAN_POINT('',(1.41424976062768E-18,0.,0.268261608151716));
#637=CARTESIAN_POINT('',(0.00409299533960233,0.0169107241166662,0.0848045738816357));
#638=CARTESIAN_POINT('',(-0.00409299533960233,0.0169107241166662,0.0848045738816357));
#639=CARTESIAN_POINT('',(1.41424976062768E-18,0.,0.268261608151716));
#640=CARTESIAN_POINT('',(-0.00173260605601366,-0.000130316939285665,0.0848045738816357));
#641=CARTESIAN_POINT('',(-0.000979160807971653,-0.00143532238961576,0.0848045738816357));
#642=CARTESIAN_POINT('',(-0.0103923048454133,0.006,0.0848045738816357));
#643=CARTESIAN_POINT('',(0.000979160807971652,-0.00221766119480788,0.0848045738816357));
#644=CARTESIAN_POINT('',(0.000979160807971653,-0.003,0.0848045738816357));
#645=CARTESIAN_POINT('',(-0.000979160807971653,-0.00221766119480788,0.0848045738816357));
#646=CARTESIAN_POINT('',(-0.000979160807971653,-0.003,0.0848045738816357));
#647=CARTESIAN_POINT('',(-6.03382280717162E-19,-0.003,0.0848045738816357));
#648=CARTESIAN_POINT('',(-0.0024101313356764,0.000260852463310395,0.0848045738816357));
#649=CARTESIAN_POINT('',(-0.00308765661533914,0.000652021865906454,0.0848045738816357));
#650=CARTESIAN_POINT('',(-0.00143097052770475,0.00195680873149749,0.0848045738816357));
#651=CARTESIAN_POINT('',(-0.00210849580736749,0.00234797813409355,0.0848045738816357));
#652=CARTESIAN_POINT('',(-0.00259807621135332,0.0015,0.0848045738816357));
#653=CARTESIAN_POINT('',(0.00143097052770475,0.00195680873149748,0.0848045738816357));
#654=CARTESIAN_POINT('',(0.00210849580736749,0.00234797813409354,0.0848045738816357));
#655=CARTESIAN_POINT('',(0.0024101313356764,0.000260852463310392,0.0848045738816357));
#656=CARTESIAN_POINT('',(0.00308765661533914,0.000652021865906451,0.0848045738816357));
#657=CARTESIAN_POINT('',(0.00259807621135332,0.0015,0.0848045738816357));
#658=CARTESIAN_POINT('',(0.0103923048454133,0.006,0.0848045738816357));
#659=CARTESIAN_POINT('',(-1.42494949024675E-19,-0.012,0.0848045738816357));
#660=MECHANICAL_DESIGN_GEOMETRIC_PRESENTATION_REPRESENTATION('',(#385),
#661);
#661=(
GEOMETRIC_REPRESENTATION_CONTEXT(3)
GLOBAL_UNCERTAINTY_ASSIGNED_CONTEXT((#662))
GLOBAL_UNIT_ASSIGNED_CONTEXT((#665,#664,#663))
REPRESENTATION_CONTEXT('Centering Top Spacer','TOP_LEVEL_ASSEMBLY_PART')
);
#662=UNCERTAINTY_MEASURE_WITH_UNIT(LENGTH_MEASURE(1.E-8),#665,
'DISTANCE_ACCURACY_VALUE','Maximum Tolerance applied to model');
#663=(
NAMED_UNIT(*)
SI_UNIT($,.STERADIAN.)
SOLID_ANGLE_UNIT()
);
#664=(
NAMED_UNIT(*)
PLANE_ANGLE_UNIT()
SI_UNIT($,.RADIAN.)
);
#665=(
LENGTH_UNIT()
NAMED_UNIT(*)
SI_UNIT($,.METRE.)
);
#666=PRODUCT_DEFINITION_SHAPE('','',#667);
#667=PRODUCT_DEFINITION('','',#669,#668);
#668=PRODUCT_DEFINITION_CONTEXT('',#675,'design');
#669=PRODUCT_DEFINITION_FORMATION_WITH_SPECIFIED_SOURCE('','',#671,
 .NOT_KNOWN.);
#670=PRODUCT_RELATED_PRODUCT_CATEGORY('','',(#671));
#671=PRODUCT('Centering Top Spacer','Centering Top Spacer',
'Centering Top Spacer',(#673));
#672=PRODUCT_CATEGORY('','');
#673=PRODUCT_CONTEXT('',#675,'mechanical');
#674=APPLICATION_PROTOCOL_DEFINITION('international standard',
'ap242_managed_model_based_3d_engineering',2020,#675);
#675=APPLICATION_CONTEXT('managed model based 3d engineering');
ENDSEC;
END-ISO-10303-21;
